solid MetalHeatShield_Template_v2.4
facet normal 0.0 1.0 -2.888114106843666e-12
  outer loop
    vertex 31.999999999999964 17.89606232472996 0.8125000000000013
    vertex 0.0 17.896062324727616 1.690365480235018e-24
    vertex 0.0 17.89606232472996 0.8125000000000013
  endloop
endfacet
facet normal 0.0 1.0 -2.888114106843666e-12
  outer loop
    vertex 0.0 17.896062324727616 1.690365480235018e-24
    vertex 31.999999999999964 17.89606232472996 0.8125000000000013
    vertex 31.999999999999964 17.896062324727616 1.690365480235018e-24
  endloop
endfacet
facet normal -2.932765141860779e-14 -1.0 2.5271583970792303e-12
  outer loop
    vertex 31.999999999999964 0.0 5.164000202461469e-11
    vertex 21.999999999999936 2.3462121134798507e-12 0.812500000049577
    vertex 21.99999999999786 5.865530283699627e-13 5.1532843298276975e-11
  endloop
endfacet
facet normal -2.932765141860779e-14 -1.0 2.5271583970792303e-12
  outer loop
    vertex 21.999999999999936 2.3462121134798507e-12 0.812500000049577
    vertex 31.999999999999964 0.0 5.164000202461469e-11
    vertex 31.999999999999964 2.3462121134798507e-12 0.8125000000516356
  endloop
endfacet
facet normal 5.215006508752305e-16 -2.8500142330227205e-12 -1.0
  outer loop
    vertex 31.999999999999964 17.896062324727616 1.690365480235018e-24
    vertex 21.999999999999936 10.000000000000325 2.9357148684342274e-11
    vertex 0.0 17.896062324727616 1.690365480235018e-24
  endloop
endfacet
facet normal 5.215006508752305e-16 -2.8500142330227205e-12 -1.0
  outer loop
    vertex 21.999999999999936 10.000000000000325 2.9357148684342274e-11
    vertex 31.999999999999964 17.896062324727616 1.690365480235018e-24
    vertex 31.999999999999964 0.0 5.164000202461469e-11
  endloop
endfacet
facet normal 5.215006508752305e-16 -2.8500142330227205e-12 -1.0
  outer loop
    vertex 21.999999999999936 10.000000000000325 2.9357148684342274e-11
    vertex 31.999999999999964 0.0 5.164000202461469e-11
    vertex 21.99999999999786 5.865530283699627e-13 5.1532843298276975e-11
  endloop
endfacet
facet normal 5.215006508752305e-16 -2.8500142330227205e-12 -1.0
  outer loop
    vertex 0.0 17.896062324727616 1.690365480235018e-24
    vertex 9.999999999999982 10.000000000000325 2.9357148684342274e-11
    vertex 0.0 0.0 5.164000202461469e-11
  endloop
endfacet
facet normal 5.215006508752305e-16 -2.8500142330227205e-12 -1.0
  outer loop
    vertex 9.999999999999982 10.000000000000325 2.9357148684342274e-11
    vertex 0.0 17.896062324727616 1.690365480235018e-24
    vertex 21.999999999999936 10.000000000000325 2.9357148684342274e-11
  endloop
endfacet
facet normal 5.215006508752305e-16 -2.8500142330227205e-12 -1.0
  outer loop
    vertex 0.0 0.0 5.164000202461469e-11
    vertex 9.999999999999982 10.000000000000325 2.9357148684342274e-11
    vertex 10.000000000004155 1.1618261908097337e-12 5.143132450490439e-11
  endloop
endfacet
facet normal 0.0 -1.0 2.4993925732515334e-12
  outer loop
    vertex 21.999999999999936 10.000000000000325 2.9357148684342274e-11
    vertex 9.999999999999982 10.000000000002355 0.8125000000275762
    vertex 9.999999999999982 10.000000000000325 2.9357148684342274e-11
  endloop
endfacet
facet normal 0.0 -1.0 2.4993925732515334e-12
  outer loop
    vertex 9.999999999999982 10.000000000002355 0.8125000000275762
    vertex 21.999999999999936 10.000000000000325 2.9357148684342274e-11
    vertex 21.999999999999936 10.000000000002355 0.8125000000275762
  endloop
endfacet
facet normal -1.0574874309554463e-14 2.7907396046807033e-12 1.0
  outer loop
    vertex 0.0 17.89606232472996 0.8125000000000013
    vertex 9.999999999999982 10.000000000002355 0.8125000000275762
    vertex 31.999999999999964 17.89606232472996 0.8125000000000013
  endloop
endfacet
facet normal -1.0574874309554463e-14 2.7907396046807033e-12 1.0
  outer loop
    vertex 9.999999999999982 10.000000000002355 0.8125000000275762
    vertex 0.0 17.89606232472996 0.8125000000000013
    vertex 0.0 2.3462121134798507e-12 0.8125000000516356
  endloop
endfacet
facet normal -1.0574874309554463e-14 2.7907396046807033e-12 1.0
  outer loop
    vertex 9.999999999999982 10.000000000002355 0.8125000000275762
    vertex 0.0 2.3462121134798507e-12 0.8125000000516356
    vertex 10.000000000000004 2.3462121134798507e-12 0.8125000000475184
  endloop
endfacet
facet normal -1.0574874309554463e-14 2.7907396046807033e-12 1.0
  outer loop
    vertex 31.999999999999964 17.89606232472996 0.8125000000000013
    vertex 21.999999999999936 10.000000000002355 0.8125000000275762
    vertex 31.999999999999964 2.3462121134798507e-12 0.8125000000516356
  endloop
endfacet
facet normal -1.0574874309554463e-14 2.7907396046807033e-12 1.0
  outer loop
    vertex 21.999999999999936 10.000000000002355 0.8125000000275762
    vertex 31.999999999999964 17.89606232472996 0.8125000000000013
    vertex 9.999999999999982 10.000000000002355 0.8125000000275762
  endloop
endfacet
facet normal -1.0574874309554463e-14 2.7907396046807033e-12 1.0
  outer loop
    vertex 31.999999999999964 2.3462121134798507e-12 0.8125000000516356
    vertex 21.999999999999936 10.000000000002355 0.8125000000275762
    vertex 21.999999999999936 2.3462121134798507e-12 0.812500000049577
  endloop
endfacet
facet normal 1.0 2.0980550630692998e-13 2.5544557921962642e-12
  outer loop
    vertex 9.999999999999982 10.000000000002355 0.8125000000275762
    vertex 10.000000000004155 1.1618261908097337e-12 5.143132450490439e-11
    vertex 9.999999999999982 10.000000000000325 2.9357148684342274e-11
  endloop
endfacet
facet normal 1.0 2.0980550630692998e-13 2.5544557921962642e-12
  outer loop
    vertex 10.000000000004155 1.1618261908097337e-12 5.143132450490439e-11
    vertex 9.999999999999982 10.000000000002355 0.8125000000275762
    vertex 10.000000000000004 2.3462121134798507e-12 0.8125000000475184
  endloop
endfacet
facet normal -1.0 1.0377476656058373e-13 1.2772278960980972e-12
  outer loop
    vertex 21.99999999999786 5.865530283699627e-13 5.1532843298276975e-11
    vertex 21.999999999999936 10.000000000002355 0.8125000000275762
    vertex 21.999999999999936 10.000000000000325 2.9357148684342274e-11
  endloop
endfacet
facet normal -1.0 1.0377476656058373e-13 1.2772278960980972e-12
  outer loop
    vertex 21.999999999999936 10.000000000002355 0.8125000000275762
    vertex 21.99999999999786 5.865530283699627e-13 5.1532843298276975e-11
    vertex 21.999999999999936 2.3462121134798507e-12 0.812500000049577
  endloop
endfacet
facet normal -1.0 0.0 0.0
  outer loop
    vertex 0.0 0.0 5.164000202461469e-11
    vertex 0.0 17.89606232472996 0.8125000000000013
    vertex 0.0 17.896062324727616 1.690365480235018e-24
  endloop
endfacet
facet normal -1.0 0.0 0.0
  outer loop
    vertex 0.0 17.89606232472996 0.8125000000000013
    vertex 0.0 0.0 5.164000202461469e-11
    vertex 0.0 2.3462121134798507e-12 0.8125000000516356
  endloop
endfacet
facet normal 1.0 0.0 0.0
  outer loop
    vertex 31.999999999999964 17.89606232472996 0.8125000000000013
    vertex 31.999999999999964 0.0 5.164000202461469e-11
    vertex 31.999999999999964 17.896062324727616 1.690365480235018e-24
  endloop
endfacet
facet normal 1.0 0.0 0.0
  outer loop
    vertex 31.999999999999964 0.0 5.164000202461469e-11
    vertex 31.999999999999964 17.89606232472996 0.8125000000000013
    vertex 31.999999999999964 2.3462121134798507e-12 0.8125000000516356
  endloop
endfacet
facet normal 5.809130954062929e-14 -1.0 2.1731441432719045e-12
  outer loop
    vertex 10.000000000004155 1.1618261908097337e-12 5.143132450490439e-11
    vertex 0.0 2.3462121134798507e-12 0.8125000000516356
    vertex 0.0 0.0 5.164000202461469e-11
  endloop
endfacet
facet normal 5.809130954062929e-14 -1.0 2.1731441432719045e-12
  outer loop
    vertex 0.0 2.3462121134798507e-12 0.8125000000516356
    vertex 10.000000000004155 1.1618261908097337e-12 5.143132450490439e-11
    vertex 10.000000000000004 2.3462121134798507e-12 0.8125000000475184
  endloop
endfacet
endsolid MetalHeatShield_Template_v2.4
