solid Shroud_v2.6_Heat_Shield
facet normal 1.0 0.0 0.0
  outer loop
    vertex 31.99999999999985 14.993665061683556 -7.106033539372447e-11
    vertex 31.999999999999964 4.015632271148206e-12 0.8125000000000041
    vertex 31.999999999999964 0.0 -2.8199664825478975e-15
  endloop
endfacet
facet normal 1.0 0.0 0.0
  outer loop
    vertex 31.999999999999964 4.015632271148206e-12 0.8125000000000041
    vertex 31.99999999999985 14.993665061683556 -7.106033539372447e-11
    vertex 31.99999999999985 14.99366506168757 0.8124999999289213
  endloop
endfacet
facet normal -1.691979889550469e-14 1.0 -4.871327901107755e-12
  outer loop
    vertex 26.999999999999837 14.993665061683533 -7.051890182907527e-11
    vertex 31.99999999999985 14.99366506168757 0.8124999999289213
    vertex 31.99999999999985 14.993665061683556 -7.106033539372447e-11
  endloop
endfacet
facet normal -1.691979889550469e-14 1.0 -4.871327901107755e-12
  outer loop
    vertex 31.99999999999985 14.99366506168757 0.8124999999289213
    vertex 26.999999999999837 14.993665061683533 -7.051890182907527e-11
    vertex 26.999999999999837 14.993665061687436 0.8124999999287182
  endloop
endfacet
facet normal -1.0 0.0 0.0
  outer loop
    vertex 0.0 4.015632271148206e-12 0.8125000000000041
    vertex 4.0607517348689725e-13 24.048179867734635 -1.1337957239732076e-10
    vertex 0.0 0.0 -2.8199664825478975e-15
  endloop
endfacet
facet normal -1.0 0.0 0.0
  outer loop
    vertex 4.0607517348689725e-13 24.048179867734635 -1.1337957239732076e-10
    vertex 0.0 4.015632271148206e-12 0.8125000000000041
    vertex 4.0607517348689725e-13 24.048179867738654 0.8124999998866133
  endloop
endfacet
facet normal 2.3168233249848323e-14 4.813184213578476e-12 1.0
  outer loop
    vertex 0.0 4.015632271148206e-12 0.8125000000000041
    vertex 10.824879588756982 9.048179867739819 0.8124999999364647
    vertex 4.0607517348689725e-13 24.048179867738654 0.8124999998866133
  endloop
endfacet
facet normal 2.3168233249848323e-14 4.813184213578476e-12 1.0
  outer loop
    vertex 10.824879588756982 9.048179867739819 0.8124999999364647
    vertex 0.0 4.015632271148206e-12 0.8125000000000041
    vertex 11.000000000001197 8.819958504503962 0.8124999999433398
  endloop
endfacet
facet normal 2.3168233249848323e-14 4.813184213578476e-12 1.0
  outer loop
    vertex 11.000000000001197 8.819958504503962 0.8124999999433398
    vertex 0.0 4.015632271148206e-12 0.8125000000000041
    vertex 11.778391324344334 7.80553918062053 0.8124999999364647
  endloop
endfacet
facet normal 2.3168233249848323e-14 4.813184213578476e-12 1.0
  outer loop
    vertex 11.778391324344334 7.80553918062053 0.8124999999364647
    vertex 0.0 4.015632271148206e-12 0.8125000000000041
    vertex 13.021032011463612 6.852027445033179 0.8124999999364647
  endloop
endfacet
facet normal 2.3168233249848323e-14 4.813184213578476e-12 1.0
  outer loop
    vertex 13.021032011463612 6.852027445033179 0.8124999999364647
    vertex 0.0 4.015632271148206e-12 0.8125000000000041
    vertex 14.468117740848493 6.252624910005404 0.8124999999364647
  endloop
endfacet
facet normal 2.3168233249848323e-14 4.813184213578476e-12 1.0
  outer loop
    vertex 14.468117740848493 6.252624910005404 0.8124999999364647
    vertex 0.0 4.015632271148206e-12 0.8125000000000041
    vertex 31.999999999999964 4.015632271148206e-12 0.8125000000000041
  endloop
endfacet
facet normal 2.3168233249848323e-14 4.813184213578476e-12 1.0
  outer loop
    vertex 4.0607517348689725e-13 24.048179867738654 0.8124999998866133
    vertex 10.824879588756982 9.048179867739819 0.8124999999364647
    vertex 10.22547705372922 10.4952655971247 0.8124999999364647
  endloop
endfacet
facet normal 2.3168233249848323e-14 4.813184213578476e-12 1.0
  outer loop
    vertex 4.0607517348689725e-13 24.048179867738654 0.8124999998866133
    vertex 10.22547705372922 10.4952655971247 0.8124999999364647
    vertex 10.021032011463618 12.048179867739826 0.8124999999364647
  endloop
endfacet
facet normal 2.3168233249848323e-14 4.813184213578476e-12 1.0
  outer loop
    vertex 14.468117740848493 6.252624910005404 0.8124999999364647
    vertex 31.999999999999964 4.015632271148206e-12 0.8125000000000041
    vertex 16.021032011463628 6.0481798677398135 0.8124999999364647
  endloop
endfacet
facet normal 2.3168233249848323e-14 4.813184213578476e-12 1.0
  outer loop
    vertex 16.021032011463628 6.0481798677398135 0.8124999999364647
    vertex 31.999999999999964 4.015632271148206e-12 0.8125000000000041
    vertex 17.573946282078765 6.252624910005404 0.8124999999364647
  endloop
endfacet
facet normal 2.3168233249848323e-14 4.813184213578476e-12 1.0
  outer loop
    vertex 17.573946282078765 6.252624910005404 0.8124999999364647
    vertex 31.999999999999964 4.015632271148206e-12 0.8125000000000041
    vertex 19.021032011463625 6.852027445033179 0.8124999999364647
  endloop
endfacet
facet normal 2.3168233249848323e-14 4.813184213578476e-12 1.0
  outer loop
    vertex 19.021032011463625 6.852027445033179 0.8124999999364647
    vertex 31.999999999999964 4.015632271148206e-12 0.8125000000000041
    vertex 20.263672698582926 7.80553918062053 0.8124999999364647
  endloop
endfacet
facet normal 2.3168233249848323e-14 4.813184213578476e-12 1.0
  outer loop
    vertex 20.263672698582926 7.80553918062053 0.8124999999364647
    vertex 31.999999999999964 4.015632271148206e-12 0.8125000000000041
    vertex 20.999999999999353 8.76513960254211 0.8124999999437261
  endloop
endfacet
facet normal 2.3168233249848323e-14 4.813184213578476e-12 1.0
  outer loop
    vertex 20.999999999999353 8.76513960254211 0.8124999999437261
    vertex 31.999999999999964 4.015632271148206e-12 0.8125000000000041
    vertex 21.217184434170274 9.048179867739819 0.8124999999364647
  endloop
endfacet
facet normal 2.3168233249848323e-14 4.813184213578476e-12 1.0
  outer loop
    vertex 21.217184434170274 9.048179867739819 0.8124999999364647
    vertex 31.999999999999964 4.015632271148206e-12 0.8125000000000041
    vertex 21.81658696919804 10.4952655971247 0.8124999999364647
  endloop
endfacet
facet normal 2.3168233249848323e-14 4.813184213578476e-12 1.0
  outer loop
    vertex 21.81658696919804 10.4952655971247 0.8124999999364647
    vertex 31.999999999999964 4.015632271148206e-12 0.8125000000000041
    vertex 22.02103201146364 12.048179867739826 0.8124999999364647
  endloop
endfacet
facet normal 2.3168233249848323e-14 4.813184213578476e-12 1.0
  outer loop
    vertex 22.02103201146364 12.048179867739826 0.8124999999364647
    vertex 31.999999999999964 4.015632271148206e-12 0.8125000000000041
    vertex 26.999999999999837 14.993665061687436 0.8124999999287182
  endloop
endfacet
facet normal 2.3168233249848323e-14 4.813184213578476e-12 1.0
  outer loop
    vertex 22.02103201146364 12.048179867739826 0.8124999999364647
    vertex 26.999999999999837 14.993665061687436 0.8124999999287182
    vertex 26.999999999999794 24.048179867738884 0.8124999998837285
  endloop
endfacet
facet normal 2.3168233249848323e-14 4.813184213578476e-12 1.0
  outer loop
    vertex 26.999999999999837 14.993665061687436 0.8124999999287182
    vertex 31.999999999999964 4.015632271148206e-12 0.8125000000000041
    vertex 31.99999999999985 14.99366506168757 0.8124999999289213
  endloop
endfacet
facet normal 2.3168233249848323e-14 4.813184213578476e-12 1.0
  outer loop
    vertex 4.0607517348689725e-13 24.048179867738654 0.8124999998866133
    vertex 13.021032011463634 17.244332290446472 0.8124999999364647
    vertex 26.999999999999794 24.048179867738884 0.8124999998837285
  endloop
endfacet
facet normal 2.3168233249848323e-14 4.813184213578476e-12 1.0
  outer loop
    vertex 13.021032011463634 17.244332290446472 0.8124999999364647
    vertex 4.0607517348689725e-13 24.048179867738654 0.8124999998866133
    vertex 11.778391324344334 16.29082055485912 0.8124999999364647
  endloop
endfacet
facet normal 2.3168233249848323e-14 4.813184213578476e-12 1.0
  outer loop
    vertex 11.778391324344334 16.29082055485912 0.8124999999364647
    vertex 4.0607517348689725e-13 24.048179867738654 0.8124999998866133
    vertex 11.000000000002846 15.27640123097783 0.812499999929584
  endloop
endfacet
facet normal 2.3168233249848323e-14 4.813184213578476e-12 1.0
  outer loop
    vertex 11.000000000002846 15.27640123097783 0.812499999929584
    vertex 4.0607517348689725e-13 24.048179867738654 0.8124999998866133
    vertex 10.824879588756982 15.048179867739831 0.8124999999364647
  endloop
endfacet
facet normal 2.3168233249848323e-14 4.813184213578476e-12 1.0
  outer loop
    vertex 10.824879588756982 15.048179867739831 0.8124999999364647
    vertex 4.0607517348689725e-13 24.048179867738654 0.8124999998866133
    vertex 10.22547705372922 13.601094138354961 0.8124999999364647
  endloop
endfacet
facet normal 2.3168233249848323e-14 4.813184213578476e-12 1.0
  outer loop
    vertex 10.22547705372922 13.601094138354961 0.8124999999364647
    vertex 4.0607517348689725e-13 24.048179867738654 0.8124999998866133
    vertex 10.021032011463618 12.048179867739826 0.8124999999364647
  endloop
endfacet
facet normal 2.3168233249848323e-14 4.813184213578476e-12 1.0
  outer loop
    vertex 26.999999999999794 24.048179867738884 0.8124999998837285
    vertex 13.021032011463634 17.244332290446472 0.8124999999364647
    vertex 14.468117740848514 17.843734825474247 0.8124999999364647
  endloop
endfacet
facet normal 2.3168233249848323e-14 4.813184213578476e-12 1.0
  outer loop
    vertex 26.999999999999794 24.048179867738884 0.8124999998837285
    vertex 14.468117740848514 17.843734825474247 0.8124999999364647
    vertex 16.021032011463628 18.048179867739837 0.8124999999364647
  endloop
endfacet
facet normal 2.3168233249848323e-14 4.813184213578476e-12 1.0
  outer loop
    vertex 26.999999999999794 24.048179867738884 0.8124999998837285
    vertex 16.021032011463628 18.048179867739837 0.8124999999364647
    vertex 17.573946282078765 17.843734825474247 0.8124999999364647
  endloop
endfacet
facet normal 2.3168233249848323e-14 4.813184213578476e-12 1.0
  outer loop
    vertex 26.999999999999794 24.048179867738884 0.8124999998837285
    vertex 17.573946282078765 17.843734825474247 0.8124999999364647
    vertex 19.021032011463646 17.244332290446472 0.8124999999364647
  endloop
endfacet
facet normal 2.3168233249848323e-14 4.813184213578476e-12 1.0
  outer loop
    vertex 26.999999999999794 24.048179867738884 0.8124999998837285
    vertex 19.021032011463646 17.244332290446472 0.8124999999364647
    vertex 20.263672698582926 16.29082055485912 0.8124999999364647
  endloop
endfacet
facet normal 2.3168233249848323e-14 4.813184213578476e-12 1.0
  outer loop
    vertex 26.999999999999794 24.048179867738884 0.8124999998837285
    vertex 20.263672698582926 16.29082055485912 0.8124999999364647
    vertex 20.99999999999854 15.3312201329386 0.8124999999292286
  endloop
endfacet
facet normal 2.3168233249848323e-14 4.813184213578476e-12 1.0
  outer loop
    vertex 26.999999999999794 24.048179867738884 0.8124999998837285
    vertex 20.99999999999854 15.3312201329386 0.8124999999292286
    vertex 21.217184434170274 15.048179867739831 0.8124999999364647
  endloop
endfacet
facet normal 2.3168233249848323e-14 4.813184213578476e-12 1.0
  outer loop
    vertex 26.999999999999794 24.048179867738884 0.8124999998837285
    vertex 21.217184434170274 15.048179867739831 0.8124999999364647
    vertex 21.81658696919806 13.60109413835495 0.8124999999364647
  endloop
endfacet
facet normal 2.3168233249848323e-14 4.813184213578476e-12 1.0
  outer loop
    vertex 26.999999999999794 24.048179867738884 0.8124999998837285
    vertex 21.81658696919806 13.60109413835495 0.8124999999364647
    vertex 22.02103201146364 12.048179867739826 0.8124999999364647
  endloop
endfacet
facet normal 1.0 1.6919798895504686e-14 -8.124740805249099e-26
  outer loop
    vertex 26.999999999999794 24.04817986773498 -1.1552274692405716e-10
    vertex 26.999999999999837 14.993665061687436 0.8124999999287182
    vertex 26.999999999999837 14.993665061683533 -7.051890182907527e-11
  endloop
endfacet
facet normal 1.0 1.6919798895504686e-14 -8.124740805249099e-26
  outer loop
    vertex 26.999999999999837 14.993665061687436 0.8124999999287182
    vertex 26.999999999999794 24.04817986773498 -1.1552274692405716e-10
    vertex 26.999999999999794 24.048179867738884 0.8124999998837285
  endloop
endfacet
facet normal -1.2666345912771086e-14 -4.085132921822215e-12 -1.0
  outer loop
    vertex 4.0607517348689725e-13 24.048179867734635 -1.1337957239732076e-10
    vertex 10.225477053729309 13.601094138354172 -9.217906438152567e-11
    vertex 10.021032011463708 12.048179867739035 -9.217906438152567e-11
  endloop
endfacet
facet normal -1.2666345912771086e-14 -4.085132921822215e-12 -1.0
  outer loop
    vertex 10.225477053729309 13.601094138354172 -9.217906438152567e-11
    vertex 4.0607517348689725e-13 24.048179867734635 -1.1337957239732076e-10
    vertex 10.824879588757073 15.04817986773904 -9.217906438152567e-11
  endloop
endfacet
facet normal -1.2666345912771086e-14 -4.085132921822215e-12 -1.0
  outer loop
    vertex 10.824879588757073 15.04817986773904 -9.217906438152567e-11
    vertex 4.0607517348689725e-13 24.048179867734635 -1.1337957239732076e-10
    vertex 11.778391324344287 16.290820554854044 -6.66583677144672e-11
  endloop
endfacet
facet normal -1.2666345912771086e-14 -4.085132921822215e-12 -1.0
  outer loop
    vertex 11.778391324344287 16.290820554854044 -6.66583677144672e-11
    vertex 4.0607517348689725e-13 24.048179867734635 -1.1337957239732076e-10
    vertex 13.02103201146359 17.244332290441395 -6.66583677144672e-11
  endloop
endfacet
facet normal -1.2666345912771086e-14 -4.085132921822215e-12 -1.0
  outer loop
    vertex 13.02103201146359 17.244332290441395 -6.66583677144672e-11
    vertex 4.0607517348689725e-13 24.048179867734635 -1.1337957239732076e-10
    vertex 26.999999999999794 24.04817986773498 -1.1552274692405716e-10
  endloop
endfacet
facet normal -1.2666345912771086e-14 -4.085132921822215e-12 -1.0
  outer loop
    vertex 10.824879588757073 15.04817986773904 -9.217906438152567e-11
    vertex 11.778391324344287 16.290820554854044 -6.66583677144672e-11
    vertex 11.0000000000028 15.276401230972755 -7.353908593188407e-11
  endloop
endfacet
facet normal -1.2666345912771086e-14 -4.085132921822215e-12 -1.0
  outer loop
    vertex 13.02103201146359 17.244332290441395 -6.66583677144672e-11
    vertex 26.999999999999794 24.04817986773498 -1.1552274692405716e-10
    vertex 14.46811774084847 17.84373482546917 -6.66583677144672e-11
  endloop
endfacet
facet normal -1.2666345912771086e-14 -4.085132921822215e-12 -1.0
  outer loop
    vertex 14.46811774084847 17.84373482546917 -6.66583677144672e-11
    vertex 26.999999999999794 24.04817986773498 -1.1552274692405716e-10
    vertex 16.021032011463582 18.04817986773476 -6.66583677144672e-11
  endloop
endfacet
facet normal -1.2666345912771086e-14 -4.085132921822215e-12 -1.0
  outer loop
    vertex 16.021032011463582 18.04817986773476 -6.66583677144672e-11
    vertex 26.999999999999794 24.04817986773498 -1.1552274692405716e-10
    vertex 17.57394628207872 17.84373482546917 -6.66583677144672e-11
  endloop
endfacet
facet normal -1.2666345912771086e-14 -4.085132921822215e-12 -1.0
  outer loop
    vertex 17.57394628207872 17.84373482546917 -6.66583677144672e-11
    vertex 26.999999999999794 24.04817986773498 -1.1552274692405716e-10
    vertex 19.0210320114636 17.244332290441395 -6.66583677144672e-11
  endloop
endfacet
facet normal -1.2666345912771086e-14 -4.085132921822215e-12 -1.0
  outer loop
    vertex 19.0210320114636 17.244332290441395 -6.66583677144672e-11
    vertex 26.999999999999794 24.04817986773498 -1.1552274692405716e-10
    vertex 20.26367269858288 16.290820554854044 -6.66583677144672e-11
  endloop
endfacet
facet normal -1.2666345912771086e-14 -4.085132921822215e-12 -1.0
  outer loop
    vertex 20.26367269858288 16.290820554854044 -6.66583677144672e-11
    vertex 26.999999999999794 24.04817986773498 -1.1552274692405716e-10
    vertex 20.999999999998494 15.331220132933526 -7.38944017086851e-11
  endloop
endfacet
facet normal -1.2666345912771086e-14 -4.085132921822215e-12 -1.0
  outer loop
    vertex 20.999999999998494 15.331220132933526 -7.38944017086851e-11
    vertex 26.999999999999794 24.04817986773498 -1.1552274692405716e-10
    vertex 21.2171844341703 15.048179867738973 -9.488059227180655e-11
  endloop
endfacet
facet normal -1.2666345912771086e-14 -4.085132921822215e-12 -1.0
  outer loop
    vertex 21.2171844341703 15.048179867738973 -9.488059227180655e-11
    vertex 26.999999999999794 24.04817986773498 -1.1552274692405716e-10
    vertex 21.816586969198084 13.601094138354092 -9.488059227180655e-11
  endloop
endfacet
facet normal -1.2666345912771086e-14 -4.085132921822215e-12 -1.0
  outer loop
    vertex 21.816586969198084 13.601094138354092 -9.488059227180655e-11
    vertex 26.999999999999794 24.04817986773498 -1.1552274692405716e-10
    vertex 22.021032011463664 12.048179867738968 -9.488059227180655e-11
  endloop
endfacet
facet normal -1.2666345912771086e-14 -4.085132921822215e-12 -1.0
  outer loop
    vertex 0.0 0.0 -2.8199664825478975e-15
    vertex 14.46811774084865 6.252624910000588 -3.062765596695271e-11
    vertex 31.999999999999964 0.0 -2.8199664825478975e-15
  endloop
endfacet
facet normal -1.2666345912771086e-14 -4.085132921822215e-12 -1.0
  outer loop
    vertex 14.46811774084865 6.252624910000588 -3.062765596695271e-11
    vertex 0.0 0.0 -2.8199664825478975e-15
    vertex 13.02103201146377 6.852027445028362 -3.062765596695271e-11
  endloop
endfacet
facet normal -1.2666345912771086e-14 -4.085132921822215e-12 -1.0
  outer loop
    vertex 13.02103201146377 6.852027445028362 -3.062765596695271e-11
    vertex 0.0 0.0 -2.8199664825478975e-15
    vertex 11.778391324344492 7.805539180615713 -3.062765596695271e-11
  endloop
endfacet
facet normal -1.2666345912771086e-14 -4.085132921822215e-12 -1.0
  outer loop
    vertex 11.778391324344492 7.805539180615713 -3.062765596695271e-11
    vertex 0.0 0.0 -2.8199664825478975e-15
    vertex 11.000000000001355 8.819958504499146 -2.3758217615466037e-11
  endloop
endfacet
facet normal -1.2666345912771086e-14 -4.085132921822215e-12 -1.0
  outer loop
    vertex 11.000000000001355 8.819958504499146 -2.3758217615466037e-11
    vertex 0.0 0.0 -2.8199664825478975e-15
    vertex 10.824879588757073 9.04817986773903 -9.217906438152567e-11
  endloop
endfacet
facet normal -1.2666345912771086e-14 -4.085132921822215e-12 -1.0
  outer loop
    vertex 10.824879588757073 9.04817986773903 -9.217906438152567e-11
    vertex 0.0 0.0 -2.8199664825478975e-15
    vertex 4.0607517348689725e-13 24.048179867734635 -1.1337957239732076e-10
  endloop
endfacet
facet normal -1.2666345912771086e-14 -4.085132921822215e-12 -1.0
  outer loop
    vertex 10.824879588757073 9.04817986773903 -9.217906438152567e-11
    vertex 4.0607517348689725e-13 24.048179867734635 -1.1337957239732076e-10
    vertex 10.225477053729309 10.495265597123911 -9.217906438152567e-11
  endloop
endfacet
facet normal -1.2666345912771086e-14 -4.085132921822215e-12 -1.0
  outer loop
    vertex 10.225477053729309 10.495265597123911 -9.217906438152567e-11
    vertex 4.0607517348689725e-13 24.048179867734635 -1.1337957239732076e-10
    vertex 10.021032011463708 12.048179867739035 -9.217906438152567e-11
  endloop
endfacet
facet normal -1.2666345912771086e-14 -4.085132921822215e-12 -1.0
  outer loop
    vertex 31.999999999999964 0.0 -2.8199664825478975e-15
    vertex 14.46811774084865 6.252624910000588 -3.062765596695271e-11
    vertex 16.021032011463788 6.048179867734997 -3.062765596695271e-11
  endloop
endfacet
facet normal -1.2666345912771086e-14 -4.085132921822215e-12 -1.0
  outer loop
    vertex 31.999999999999964 0.0 -2.8199664825478975e-15
    vertex 16.021032011463788 6.048179867734997 -3.062765596695271e-11
    vertex 17.573946282078925 6.252624910000588 -3.062765596695271e-11
  endloop
endfacet
facet normal -1.2666345912771086e-14 -4.085132921822215e-12 -1.0
  outer loop
    vertex 31.999999999999964 0.0 -2.8199664825478975e-15
    vertex 17.573946282078925 6.252624910000588 -3.062765596695271e-11
    vertex 19.02103201146378 6.852027445028362 -3.062765596695271e-11
  endloop
endfacet
facet normal -1.2666345912771086e-14 -4.085132921822215e-12 -1.0
  outer loop
    vertex 31.999999999999964 0.0 -2.8199664825478975e-15
    vertex 19.02103201146378 6.852027445028362 -3.062765596695271e-11
    vertex 20.263672698583083 7.805539180615713 -3.062765596695271e-11
  endloop
endfacet
facet normal -1.2666345912771086e-14 -4.085132921822215e-12 -1.0
  outer loop
    vertex 31.999999999999964 0.0 -2.8199664825478975e-15
    vertex 20.263672698583083 7.805539180615713 -3.062765596695271e-11
    vertex 20.99999999999951 8.765139602537293 -2.3363422307909332e-11
  endloop
endfacet
facet normal -1.2666345912771086e-14 -4.085132921822215e-12 -1.0
  outer loop
    vertex 31.999999999999964 0.0 -2.8199664825478975e-15
    vertex 20.99999999999951 8.765139602537293 -2.3363422307909332e-11
    vertex 21.2171844341703 9.048179867738963 -9.488059227180655e-11
  endloop
endfacet
facet normal -1.2666345912771086e-14 -4.085132921822215e-12 -1.0
  outer loop
    vertex 31.999999999999964 0.0 -2.8199664825478975e-15
    vertex 21.2171844341703 9.048179867738963 -9.488059227180655e-11
    vertex 21.81658696919806 10.495265597123842 -9.488059227180655e-11
  endloop
endfacet
facet normal -1.2666345912771086e-14 -4.085132921822215e-12 -1.0
  outer loop
    vertex 31.999999999999964 0.0 -2.8199664825478975e-15
    vertex 21.81658696919806 10.495265597123842 -9.488059227180655e-11
    vertex 22.021032011463664 12.048179867738968 -9.488059227180655e-11
  endloop
endfacet
facet normal -1.2666345912771086e-14 -4.085132921822215e-12 -1.0
  outer loop
    vertex 31.999999999999964 0.0 -2.8199664825478975e-15
    vertex 22.021032011463664 12.048179867738968 -9.488059227180655e-11
    vertex 26.999999999999837 14.993665061683533 -7.051890182907527e-11
  endloop
endfacet
facet normal -1.2666345912771086e-14 -4.085132921822215e-12 -1.0
  outer loop
    vertex 26.999999999999837 14.993665061683533 -7.051890182907527e-11
    vertex 22.021032011463664 12.048179867738968 -9.488059227180655e-11
    vertex 26.999999999999794 24.04817986773498 -1.1552274692405716e-10
  endloop
endfacet
facet normal -1.2666345912771086e-14 -4.085132921822215e-12 -1.0
  outer loop
    vertex 31.999999999999964 0.0 -2.8199664825478975e-15
    vertex 26.999999999999837 14.993665061683533 -7.051890182907527e-11
    vertex 31.99999999999985 14.993665061683556 -7.106033539372447e-11
  endloop
endfacet
facet normal 0.0 -1.0 4.9392033072556415e-12
  outer loop
    vertex 31.999999999999964 4.015632271148206e-12 0.8125000000000041
    vertex 0.0 0.0 -2.8199664825478975e-15
    vertex 31.999999999999964 0.0 -2.8199664825478975e-15
  endloop
endfacet
facet normal 0.0 -1.0 4.9392033072556415e-12
  outer loop
    vertex 0.0 0.0 -2.8199664825478975e-15
    vertex 31.999999999999964 4.015632271148206e-12 0.8125000000000041
    vertex 0.0 4.015632271148206e-12 0.8125000000000041
  endloop
endfacet
facet normal 0.6087614290087241 0.7933533402912325 -4.584696001501185e-12
  outer loop
    vertex 11.778391324344334 7.80553918062053 0.8124999999364647
    vertex 13.02103201146377 6.852027445028362 -3.062765596695271e-11
    vertex 11.778391324344492 7.805539180615713 -3.062765596695271e-11
  endloop
endfacet
facet normal 0.6087614290087241 0.7933533402912325 -4.584696001501185e-12
  outer loop
    vertex 13.02103201146377 6.852027445028362 -3.062765596695271e-11
    vertex 11.778391324344334 7.80553918062053 0.8124999999364647
    vertex 13.021032011463612 6.852027445033179 0.8124999999364647
  endloop
endfacet
facet normal 0.382683432365087 0.9238795325112878 -5.402387284072873e-12
  outer loop
    vertex 13.021032011463612 6.852027445033179 0.8124999999364647
    vertex 14.46811774084865 6.252624910000588 -3.062765596695271e-11
    vertex 13.02103201146377 6.852027445028362 -3.062765596695271e-11
  endloop
endfacet
facet normal 0.382683432365087 0.9238795325112878 -5.402387284072873e-12
  outer loop
    vertex 14.46811774084865 6.252624910000588 -3.062765596695271e-11
    vertex 13.021032011463612 6.852027445033179 0.8124999999364647
    vertex 14.468117740848493 6.252624910005404 0.8124999999364647
  endloop
endfacet
facet normal -0.13052619222005077 0.9914448613738105 -5.902643995182638e-12
  outer loop
    vertex 16.021032011463628 6.0481798677398135 0.8124999999364647
    vertex 17.573946282078925 6.252624910000588 -3.062765596695271e-11
    vertex 16.021032011463788 6.048179867734997 -3.062765596695271e-11
  endloop
endfacet
facet normal -0.13052619222005077 0.9914448613738105 -5.902643995182638e-12
  outer loop
    vertex 17.573946282078925 6.252624910000588 -3.062765596695271e-11
    vertex 16.021032011463628 6.0481798677398135 0.8124999999364647
    vertex 17.573946282078765 6.252624910005404 0.8124999999364647
  endloop
endfacet
facet normal -0.6087614290087172 0.7933533402912377 -4.821292014574819e-12
  outer loop
    vertex 19.021032011463625 6.852027445033179 0.8124999999364647
    vertex 20.263672698583083 7.805539180615713 -3.062765596695271e-11
    vertex 19.02103201146378 6.852027445028362 -3.062765596695271e-11
  endloop
endfacet
facet normal -0.6087614290087172 0.7933533402912377 -4.821292014574819e-12
  outer loop
    vertex 20.263672698583083 7.805539180615713 -3.062765596695271e-11
    vertex 19.021032011463625 6.852027445033179 0.8124999999364647
    vertex 20.263672698582926 7.80553918062053 0.8124999999364647
  endloop
endfacet
facet normal -0.3826834323650921 0.923879532511286 -5.551117755571912e-12
  outer loop
    vertex 17.573946282078765 6.252624910005404 0.8124999999364647
    vertex 19.02103201146378 6.852027445028362 -3.062765596695271e-11
    vertex 17.573946282078925 6.252624910000588 -3.062765596695271e-11
  endloop
endfacet
facet normal -0.3826834323650921 0.923879532511286 -5.551117755571912e-12
  outer loop
    vertex 19.02103201146378 6.852027445028362 -3.062765596695271e-11
    vertex 17.573946282078765 6.252624910005404 0.8124999999364647
    vertex 19.021032011463625 6.852027445033179 0.8124999999364647
  endloop
endfacet
facet normal 0.13052619222005077 0.9914448613738105 -5.851914801102078e-12
  outer loop
    vertex 14.468117740848493 6.252624910005404 0.8124999999364647
    vertex 16.021032011463788 6.048179867734997 -3.062765596695271e-11
    vertex 14.46811774084865 6.252624910000588 -3.062765596695271e-11
  endloop
endfacet
facet normal 0.13052619222005077 0.9914448613738105 -5.851914801102078e-12
  outer loop
    vertex 16.021032011463788 6.048179867734997 -3.062765596695271e-11
    vertex 14.468117740848493 6.252624910005404 0.8124999999364647
    vertex 16.021032011463628 6.0481798677398135 0.8124999999364647
  endloop
endfacet
facet normal -9.456441842363099e-15 1.0 -4.77389932897642e-12
  outer loop
    vertex 4.0607517348689725e-13 24.048179867734635 -1.1337957239732076e-10
    vertex 26.999999999999794 24.048179867738884 0.8124999998837285
    vertex 26.999999999999794 24.04817986773498 -1.1552274692405716e-10
  endloop
endfacet
facet normal -9.456441842363099e-15 1.0 -4.77389932897642e-12
  outer loop
    vertex 26.999999999999794 24.048179867738884 0.8124999998837285
    vertex 4.0607517348689725e-13 24.048179867734635 -1.1337957239732076e-10
    vertex 4.0607517348689725e-13 24.048179867738654 0.8124999998866133
  endloop
endfacet
facet normal -0.6087614290087242 -0.7933533402912324 4.982361956901669e-12
  outer loop
    vertex 20.263672698582926 16.29082055485912 0.8124999999364647
    vertex 19.0210320114636 17.244332290441395 -6.66583677144672e-11
    vertex 20.26367269858288 16.290820554854044 -6.66583677144672e-11
  endloop
endfacet
facet normal -0.6087614290087242 -0.7933533402912324 4.982361956901669e-12
  outer loop
    vertex 19.0210320114636 17.244332290441395 -6.66583677144672e-11
    vertex 20.263672698582926 16.29082055485912 0.8124999999364647
    vertex 19.021032011463646 17.244332290446472 0.8124999999364647
  endloop
endfacet
facet normal 0.6087614290087172 -0.7933533402912378 4.9308859686791295e-12
  outer loop
    vertex 13.021032011463634 17.244332290446472 0.8124999999364647
    vertex 11.778391324344287 16.290820554854044 -6.66583677144672e-11
    vertex 13.02103201146359 17.244332290441395 -6.66583677144672e-11
  endloop
endfacet
facet normal 0.6087614290087172 -0.7933533402912378 4.9308859686791295e-12
  outer loop
    vertex 11.778391324344287 16.290820554854044 -6.66583677144672e-11
    vertex 13.021032011463634 17.244332290446472 0.8124999999364647
    vertex 11.778391324344334 16.29082055485912 0.8124999999364647
  endloop
endfacet
facet normal 0.13052619222005263 -0.9914448613738104 6.1887193834824326e-12
  outer loop
    vertex 16.021032011463628 18.048179867739837 0.8124999999364647
    vertex 14.46811774084847 17.84373482546917 -6.66583677144672e-11
    vertex 16.021032011463582 18.04817986773476 -6.66583677144672e-11
  endloop
endfacet
facet normal 0.13052619222005263 -0.9914448613738104 6.1887193834824326e-12
  outer loop
    vertex 14.46811774084847 17.84373482546917 -6.66583677144672e-11
    vertex 16.021032011463628 18.048179867739837 0.8124999999364647
    vertex 14.468117740848514 17.843734825474247 0.8124999999364647
  endloop
endfacet
facet normal 0.38268343236508695 -0.923879532511288 5.7559312783266684e-12
  outer loop
    vertex 14.468117740848514 17.843734825474247 0.8124999999364647
    vertex 13.02103201146359 17.244332290441395 -6.66583677144672e-11
    vertex 14.46811774084847 17.84373482546917 -6.66583677144672e-11
  endloop
endfacet
facet normal 0.38268343236508695 -0.923879532511288 5.7559312783266684e-12
  outer loop
    vertex 13.02103201146359 17.244332290441395 -6.66583677144672e-11
    vertex 14.468117740848514 17.843734825474247 0.8124999999364647
    vertex 13.021032011463634 17.244332290446472 0.8124999999364647
  endloop
endfacet
facet normal -0.13052619222005074 -0.9914448613738105 6.199756489996223e-12
  outer loop
    vertex 17.573946282078765 17.843734825474247 0.8124999999364647
    vertex 16.021032011463582 18.04817986773476 -6.66583677144672e-11
    vertex 17.57394628207872 17.84373482546917 -6.66583677144672e-11
  endloop
endfacet
facet normal -0.13052619222005074 -0.9914448613738105 6.199756489996223e-12
  outer loop
    vertex 16.021032011463582 18.04817986773476 -6.66583677144672e-11
    vertex 17.573946282078765 17.843734825474247 0.8124999999364647
    vertex 16.021032011463628 18.048179867739837 0.8124999999364647
  endloop
endfacet
facet normal -0.38268343236508695 -0.923879532511288 5.788290437298805e-12
  outer loop
    vertex 19.021032011463646 17.244332290446472 0.8124999999364647
    vertex 17.57394628207872 17.84373482546917 -6.66583677144672e-11
    vertex 19.0210320114636 17.244332290441395 -6.66583677144672e-11
  endloop
endfacet
facet normal -0.38268343236508695 -0.923879532511288 5.788290437298805e-12
  outer loop
    vertex 17.57394628207872 17.84373482546917 -6.66583677144672e-11
    vertex 19.021032011463646 17.244332290446472 0.8124999999364647
    vertex 17.573946282078765 17.843734825474247 0.8124999999364647
  endloop
endfacet
facet normal -0.7933533402908552 -0.6087614290092158 2.7715624403612195e-12
  outer loop
    vertex 21.217184434170274 15.048179867739831 0.8124999999364647
    vertex 20.999999999998494 15.331220132933526 -7.38944017086851e-11
    vertex 21.2171844341703 15.048179867738973 -9.488059227180655e-11
  endloop
endfacet
facet normal -0.7933533402908552 -0.6087614290092158 2.7715624403612195e-12
  outer loop
    vertex 20.999999999998494 15.331220132933526 -7.38944017086851e-11
    vertex 21.217184434170274 15.048179867739831 0.8124999999364647
    vertex 20.99999999999854 15.3312201329386 0.8124999999292286
  endloop
endfacet
facet normal -0.7933533402908552 -0.6087614290092158 2.7715624403612195e-12
  outer loop
    vertex 20.999999999998494 15.331220132933526 -7.38944017086851e-11
    vertex 20.99999999999854 15.3312201329386 0.8124999999292286
    vertex 20.26367269858288 16.290820554854044 -6.66583677144672e-11
  endloop
endfacet
facet normal -0.7933533402908552 -0.6087614290092158 2.7715624403612195e-12
  outer loop
    vertex 20.26367269858288 16.290820554854044 -6.66583677144672e-11
    vertex 20.99999999999854 15.3312201329386 0.8124999999292286
    vertex 20.263672698582926 16.29082055485912 0.8124999999364647
  endloop
endfacet
facet normal 0.7933533402908962 -0.6087614290091624 2.7325486709342406e-12
  outer loop
    vertex 11.0000000000028 15.276401230972755 -7.353908593188407e-11
    vertex 10.824879588756982 15.048179867739831 0.8124999999364647
    vertex 10.824879588757073 15.04817986773904 -9.217906438152567e-11
  endloop
endfacet
facet normal 0.7933533402908962 -0.6087614290091624 2.7325486709342406e-12
  outer loop
    vertex 10.824879588756982 15.048179867739831 0.8124999999364647
    vertex 11.0000000000028 15.276401230972755 -7.353908593188407e-11
    vertex 11.000000000002846 15.27640123097783 0.812499999929584
  endloop
endfacet
facet normal 0.7933533402908962 -0.6087614290091624 2.7325486709342406e-12
  outer loop
    vertex 11.000000000002846 15.27640123097783 0.812499999929584
    vertex 11.0000000000028 15.276401230972755 -7.353908593188407e-11
    vertex 11.778391324344287 16.290820554854044 -6.66583677144672e-11
  endloop
endfacet
facet normal 0.7933533402908962 -0.6087614290091624 2.7325486709342406e-12
  outer loop
    vertex 11.000000000002846 15.27640123097783 0.812499999929584
    vertex 11.778391324344287 16.290820554854044 -6.66583677144672e-11
    vertex 11.778391324344334 16.29082055485912 0.8124999999364647
  endloop
endfacet
facet normal 0.7933533402915588 0.6087614290082989 -2.470869607807744e-12
  outer loop
    vertex 11.000000000001355 8.819958504499146 -2.3758217615466037e-11
    vertex 11.778391324344334 7.80553918062053 0.8124999999364647
    vertex 11.778391324344492 7.805539180615713 -3.062765596695271e-11
  endloop
endfacet
facet normal 0.7933533402915588 0.6087614290082989 -2.470869607807744e-12
  outer loop
    vertex 11.778391324344334 7.80553918062053 0.8124999999364647
    vertex 11.000000000001355 8.819958504499146 -2.3758217615466037e-11
    vertex 11.000000000001197 8.819958504503962 0.8124999999433398
  endloop
endfacet
facet normal 0.7933533402915588 0.6087614290082989 -2.470869607807744e-12
  outer loop
    vertex 11.000000000001197 8.819958504503962 0.8124999999433398
    vertex 11.000000000001355 8.819958504499146 -2.3758217615466037e-11
    vertex 10.824879588757073 9.04817986773903 -9.217906438152567e-11
  endloop
endfacet
facet normal 0.7933533402915588 0.6087614290082989 -2.470869607807744e-12
  outer loop
    vertex 11.000000000001197 8.819958504503962 0.8124999999433398
    vertex 10.824879588757073 9.04817986773903 -9.217906438152567e-11
    vertex 10.824879588756982 9.048179867739819 0.8124999999364647
  endloop
endfacet
facet normal 0.9914448613738096 -0.13052619222005782 1.293422671506038e-13
  outer loop
    vertex 10.225477053729309 13.601094138354172 -9.217906438152567e-11
    vertex 10.021032011463618 12.048179867739826 0.8124999999364647
    vertex 10.021032011463708 12.048179867739035 -9.217906438152567e-11
  endloop
endfacet
facet normal 0.9914448613738096 -0.13052619222005782 1.293422671506038e-13
  outer loop
    vertex 10.021032011463618 12.048179867739826 0.8124999999364647
    vertex 10.225477053729309 13.601094138354172 -9.217906438152567e-11
    vertex 10.22547705372922 13.601094138354961 0.8124999999364647
  endloop
endfacet
facet normal 0.9914448613738096 0.13052619222005876 -1.3613918269371655e-13
  outer loop
    vertex 10.021032011463708 12.048179867739035 -9.217906438152567e-11
    vertex 10.22547705372922 10.4952655971247 0.8124999999364647
    vertex 10.225477053729309 10.495265597123911 -9.217906438152567e-11
  endloop
endfacet
facet normal 0.9914448613738096 0.13052619222005876 -1.3613918269371655e-13
  outer loop
    vertex 10.22547705372922 10.4952655971247 0.8124999999364647
    vertex 10.021032011463708 12.048179867739035 -9.217906438152567e-11
    vertex 10.021032011463618 12.048179867739826 0.8124999999364647
  endloop
endfacet
facet normal 0.9238795325112906 0.38268343236508084 -3.923429722180674e-13
  outer loop
    vertex 10.225477053729309 10.495265597123911 -9.217906438152567e-11
    vertex 10.824879588756982 9.048179867739819 0.8124999999364647
    vertex 10.824879588757073 9.04817986773903 -9.217906438152567e-11
  endloop
endfacet
facet normal 0.9238795325112906 0.38268343236508084 -3.923429722180674e-13
  outer loop
    vertex 10.824879588756982 9.048179867739819 0.8124999999364647
    vertex 10.225477053729309 10.495265597123911 -9.217906438152567e-11
    vertex 10.22547705372922 10.4952655971247 0.8124999999364647
  endloop
endfacet
facet normal 0.9238795325112894 -0.38268343236508334 3.860092552367872e-13
  outer loop
    vertex 10.824879588757073 15.04817986773904 -9.217906438152567e-11
    vertex 10.22547705372922 13.601094138354961 0.8124999999364647
    vertex 10.225477053729309 13.601094138354172 -9.217906438152567e-11
  endloop
endfacet
facet normal 0.9238795325112894 -0.38268343236508334 3.860092552367872e-13
  outer loop
    vertex 10.22547705372922 13.601094138354961 0.8124999999364647
    vertex 10.824879588757073 15.04817986773904 -9.217906438152567e-11
    vertex 10.824879588756982 15.048179867739831 0.8124999999364647
  endloop
endfacet
facet normal -0.7933533402915993 0.608761429008246 -2.730006793877429e-12
  outer loop
    vertex 20.263672698582926 7.80553918062053 0.8124999999364647
    vertex 20.99999999999951 8.765139602537293 -2.3363422307909332e-11
    vertex 20.263672698583083 7.805539180615713 -3.062765596695271e-11
  endloop
endfacet
facet normal -0.7933533402915993 0.608761429008246 -2.730006793877429e-12
  outer loop
    vertex 20.99999999999951 8.765139602537293 -2.3363422307909332e-11
    vertex 20.263672698582926 7.80553918062053 0.8124999999364647
    vertex 20.999999999999353 8.76513960254211 0.8124999999437261
  endloop
endfacet
facet normal -0.7933533402915993 0.608761429008246 -2.730006793877429e-12
  outer loop
    vertex 20.99999999999951 8.765139602537293 -2.3363422307909332e-11
    vertex 20.999999999999353 8.76513960254211 0.8124999999437261
    vertex 21.2171844341703 9.048179867738963 -9.488059227180655e-11
  endloop
endfacet
facet normal -0.7933533402915993 0.608761429008246 -2.730006793877429e-12
  outer loop
    vertex 21.2171844341703 9.048179867738963 -9.488059227180655e-11
    vertex 20.999999999999353 8.76513960254211 0.8124999999437261
    vertex 21.217184434170274 9.048179867739819 0.8124999999364647
  endloop
endfacet
facet normal -0.9914448613738096 0.13052619222005876 -1.3069444153094363e-13
  outer loop
    vertex 21.81658696919804 10.4952655971247 0.8124999999364647
    vertex 22.021032011463664 12.048179867738968 -9.488059227180655e-11
    vertex 21.81658696919806 10.495265597123842 -9.488059227180655e-11
  endloop
endfacet
facet normal -0.9914448613738096 0.13052619222005876 -1.3069444153094363e-13
  outer loop
    vertex 22.021032011463664 12.048179867738968 -9.488059227180655e-11
    vertex 21.81658696919804 10.4952655971247 0.8124999999364647
    vertex 22.02103201146364 12.048179867739826 0.8124999999364647
  endloop
endfacet
facet normal -0.9238795325112853 -0.38268343236509306 4.1907100942843244e-13
  outer loop
    vertex 21.81658696919806 13.60109413835495 0.8124999999364647
    vertex 21.2171844341703 15.048179867738973 -9.488059227180655e-11
    vertex 21.816586969198084 13.601094138354092 -9.488059227180655e-11
  endloop
endfacet
facet normal -0.9238795325112853 -0.38268343236509306 4.1907100942843244e-13
  outer loop
    vertex 21.2171844341703 15.048179867738973 -9.488059227180655e-11
    vertex 21.81658696919806 13.60109413835495 0.8124999999364647
    vertex 21.217184434170274 15.048179867739831 0.8124999999364647
  endloop
endfacet
facet normal -0.9238795325112906 0.38268343236508084 -4.017569687206484e-13
  outer loop
    vertex 21.217184434170274 9.048179867739819 0.8124999999364647
    vertex 21.81658696919806 10.495265597123842 -9.488059227180655e-11
    vertex 21.2171844341703 9.048179867738963 -9.488059227180655e-11
  endloop
endfacet
facet normal -0.9238795325112906 0.38268343236508084 -4.017569687206484e-13
  outer loop
    vertex 21.81658696919806 10.495265597123842 -9.488059227180655e-11
    vertex 21.217184434170274 9.048179867739819 0.8124999999364647
    vertex 21.81658696919804 10.4952655971247 0.8124999999364647
  endloop
endfacet
facet normal -0.9914448613738114 -0.1305261922200446 1.4927469586633527e-13
  outer loop
    vertex 22.02103201146364 12.048179867739826 0.8124999999364647
    vertex 21.816586969198084 13.601094138354092 -9.488059227180655e-11
    vertex 22.021032011463664 12.048179867738968 -9.488059227180655e-11
  endloop
endfacet
facet normal -0.9914448613738114 -0.1305261922200446 1.4927469586633527e-13
  outer loop
    vertex 21.816586969198084 13.601094138354092 -9.488059227180655e-11
    vertex 22.02103201146364 12.048179867739826 0.8124999999364647
    vertex 21.81658696919806 13.60109413835495 0.8124999999364647
  endloop
endfacet
endsolid Shroud_v2.6_Heat_Shield
