solid Shroud_v2.5_Wire_Path
facet normal 0.9217866076491629 0.3650564072325016 -0.13054987360065246
  outer loop
    vertex 0.9775169320442254 2.9986058301118894 3.5002060863186797
    vertex 1.9190332205295388 0.7600901617161306 3.88850686955924
    vertex 1.8715086319425327 0.7412560839288443 3.5002795303345287
  endloop
endfacet
facet normal 0.9217866076491629 0.3650564072325016 -0.13054987360065246
  outer loop
    vertex 1.9190332205295388 0.7600901617161306 3.88850686955924
    vertex 0.9775169320442254 2.9986058301118894 3.5002060863186797
    vertex 1.0250415206312316 3.0174399078991816 3.8884334255433908
  endloop
endfacet
facet normal -0.12136667405744159 -0.04809782573492543 -0.9914417429117091
  outer loop
    vertex 2.7330985788100213 3.6939264521153334 4.949049695514578
    vertex 3.2661383976934517 1.2936284402776839 5.0002436722560955
    vertex 2.372146697795139 3.5509781864607404 5.000170228240247
  endloop
endfacet
facet normal -0.12136667405744159 -0.04809782573492543 -0.9914417429117091
  outer loop
    vertex 3.2661383976934517 1.2936284402776839 5.0002436722560955
    vertex 2.7330985788100213 3.6939264521153334 4.949049695514578
    vertex 3.6270902787082386 1.436576705932277 4.9491231395304265
  endloop
endfacet
facet normal 0.12136716384235584 0.048098019705114244 0.9914416735447977
  outer loop
    vertex 2.9050433144552135 1.1511440184476793 21.05102497145415
    vertex 2.3720550964093565 3.5513116775088176 20.999830791978106
    vertex 2.0111032357500016 3.408363419922464 21.05095153167915
  endloop
endfacet
facet normal 0.12136716384235584 0.048098019705114244 0.9914416735447977
  outer loop
    vertex 2.3720550964093565 3.5513116775088176 20.999830791978106
    vertex 2.9050433144552135 1.1511440184476793 21.05102497145415
    vertex 3.2659951751145684 1.294092276034027 20.999904231753113
  endloop
endfacet
facet normal -0.7376207593118294 -0.2921441598072301 -0.6087424786580676
  outer loop
    vertex 3.358282258301994 3.941509046296207 4.560805073872589
    vertex 4.47390052208486 1.7719212839955936 4.250212658332449
    vertex 4.252273958200301 1.6841593001131503 4.560878517888436
  endloop
endfacet
facet normal -0.7376207593118294 -0.2921441598072301 -0.6087424786580676
  outer loop
    vertex 4.47390052208486 1.7719212839955936 4.250212658332449
    vertex 3.358282258301994 3.941509046296207 4.560805073872589
    vertex 3.579908822186553 4.029271030178644 4.2501392143166
  endloop
endfacet
facet normal -0.355786224508115 -0.14087408390167008 0.9238888758585235
  outer loop
    vertex 3.626948217815089 1.4370443276126144 21.051006012570554
    vertex 3.0693640104945903 3.8274776285825713 21.200774372218458
    vertex 2.733008139109883 3.694263729087399 21.050932572795546
  endloop
endfacet
facet normal -0.355786224508115 -0.14087408390167008 0.9238888758585235
  outer loop
    vertex 3.0693640104945903 3.8274776285825713 21.200774372218458
    vertex 3.626948217815089 1.4370443276126144 21.051006012570554
    vertex 3.9633040891997964 1.5702582271077863 21.20084781199347
  endloop
endfacet
facet normal 0.3558071345029394 0.14094248279417587 0.9238703911158863
  outer loop
    vertex 2.568800833195145 1.0173666128748045 2.201223535701871
    vertex 2.0111616085797963 3.4079191626485694 2.051290819651813
    vertex 1.6748091332969277 3.274716359057861 2.201150091686022
  endloop
endfacet
facet normal 0.3558071345029394 0.14094248279417587 0.9238703911158863
  outer loop
    vertex 2.0111616085797963 3.4079191626485694 2.051290819651813
    vertex 2.568800833195145 1.0173666128748045 2.201223535701871
    vertex 2.9051533084780132 1.150569416465513 2.0513642636676592
  endloop
endfacet
facet normal 0.5659823628396148 0.2241235623321998 -0.7933678804703472
  outer loop
    vertex 1.674837892442201 3.2748122784359914 4.799226252215855
    vertex 2.2799931107298614 0.9030651401289296 4.5609291873720865
    vertex 1.3860014108316445 3.1604148863119974 4.560855743356237
  endloop
endfacet
facet normal 0.5659823628396148 0.2241235623321998 -0.7933678804703472
  outer loop
    vertex 2.2799931107298614 0.9030651401289296 4.5609291873720865
    vertex 1.674837892442201 3.2748122784359914 4.799226252215855
    vertex 2.5688295923405082 1.017462532252935 4.799299696231704
  endloop
endfacet
facet normal 0.565981970909765 0.22412340710339268 -0.7933682039213978
  outer loop
    vertex 1.6747808725613065 3.2752570715337535 23.798887193709174
    vertex 2.279884347978006 0.9036402297514257 23.560590286461196
    vertex 1.3859442692728001 3.160859631226216 23.56051684668619
  endloop
endfacet
facet normal 0.565981970909765 0.22412340710339268 -0.7933682039213978
  outer loop
    vertex 2.279884347978006 0.9036402297514257 23.560590286461196
    vertex 1.6747808725613065 3.2752570715337535 23.798887193709174
    vertex 2.5687209512665126 1.0180376700589688 23.79896063348418
  endloop
endfacet
facet normal -0.9217894973425381 -0.365066045126399 -0.13050251064543114
  outer loop
    vertex 3.7192272616732858 4.084434373185299 3.8883642097415256
    vertex 4.660734955243815 1.8458900384689567 3.500207872863551
    vertex 4.613218961571599 1.8270846270022423 3.8884376537573746
  endloop
endfacet
facet normal -0.9217894973425381 -0.365066045126399 -0.13050251064543114
  outer loop
    vertex 4.660734955243815 1.8458900384689567 3.500207872863551
    vertex 3.7192272616732858 4.084434373185299 3.8883642097415256
    vertex 3.766743255345502 4.103239784652002 3.5001344288477045
  endloop
endfacet
facet normal 0.7376069813235017 0.2920990904925229 -0.6087807999898424
  outer loop
    vertex 1.1643106712697013 3.073074646612548 23.249862497287133
    vertex 2.279884347978006 0.9036402297514257 23.560590286461196
    vertex 2.0582507499749076 0.8158552451377578 23.249935937062133
  endloop
endfacet
facet normal 0.7376069813235017 0.2920990904925229 -0.6087807999898424
  outer loop
    vertex 2.279884347978006 0.9036402297514257 23.560590286461196
    vertex 1.1643106712697013 3.073074646612548 23.249862497287133
    vertex 1.3859442692728001 3.160859631226216 23.56051684668619
  endloop
endfacet
facet normal 0.5660003186535908 0.22418229777436946 0.7933384754621684
  outer loop
    vertex 2.279859818276126 0.9035614968770798 21.43926995564968
    vertex 1.674750829934661 3.2751606438496994 21.200810997969068
    vertex 1.38591973957092 3.160780898351859 21.43919651587467
  endloop
endfacet
facet normal 0.5660003186535908 0.22418229777436946 0.7933384754621684
  outer loop
    vertex 1.674750829934661 3.2751606438496994 21.200810997969068
    vertex 2.279859818276126 0.9035614968770798 21.43926995564968
    vertex 2.5686909086398613 1.0179412423749032 21.200884437744076
  endloop
endfacet
facet normal -0.8589741451658217 -0.3401971101976403 -0.38266087355492784
  outer loop
    vertex 3.5798515569046967 4.029715726053133 23.249799059626216
    vertex 4.613109898266159 1.8276595975510332 22.88809741030112
    vertex 4.473791635609993 1.772496324578348 23.249872499401224
  endloop
endfacet
facet normal -0.8589741451658217 -0.3401971101976403 -0.38266087355492784
  outer loop
    vertex 4.613109898266159 1.8276595975510332 22.88809741030112
    vertex 3.5798515569046967 4.029715726053133 23.249799059626216
    vertex 3.7191698195609533 4.084878999025818 22.88802397052611
  endloop
endfacet
facet normal -0.3558071345029749 -0.14094248279419766 -0.9238703911158692
  outer loop
    vertex 3.0694510540928 3.827129255706042 4.799190423480366
    vertex 3.6270902787082386 1.436576705932277 4.9491231395304265
    vertex 2.7330985788100213 3.6939264521153334 4.949049695514578
  endloop
endfacet
facet normal -0.3558071345029749 -0.14094248279419766 -0.9238703911158692
  outer loop
    vertex 3.6270902787082386 1.436576705932277 4.9491231395304265
    vertex 3.0694510540928 3.827129255706042 4.799190423480366
    vertex 3.963442753991107 1.5697795095229856 4.799263867496215
  endloop
endfacet
facet normal -0.9217866076491612 -0.3650564072325027 0.13054987360066161
  outer loop
    vertex 4.660734955243815 1.8458900384689567 3.500207872863551
    vertex 3.719218666758496 4.08440570686471 3.1119070896229912
    vertex 4.613210366656803 1.8270559606816648 3.1119805336388406
  endloop
endfacet
facet normal -0.9217866076491612 -0.3650564072325027 0.13054987360066161
  outer loop
    vertex 3.719218666758496 4.08440570686471 3.1119070896229912
    vertex 4.660734955243815 1.8458900384689567 3.500207872863551
    vertex 3.766743255345502 4.103239784652002 3.5001344288477045
  endloop
endfacet
facet normal -0.5659999267310665 -0.22418214256946034 -0.7933387989335915
  outer loop
    vertex 3.358282258301994 3.941509046296207 4.560805073872589
    vertex 3.963442753991107 1.5697795095229856 4.799263867496215
    vertex 3.0694510540928 3.827129255706042 4.799190423480366
  endloop
endfacet
facet normal -0.5659999267310665 -0.22418214256946034 -0.7933387989335915
  outer loop
    vertex 3.963442753991107 1.5697795095229856 4.799263867496215
    vertex 3.358282258301994 3.941509046296207 4.560805073872589
    vertex 4.252273958200301 1.6841593001131503 4.560878517888436
  endloop
endfacet
facet normal -0.5659819709098035 -0.22412340710341827 0.7933682039213632
  outer loop
    vertex 3.9633040891997964 1.5702582271077863 21.20084781199347
    vertex 3.358200613783012 3.9418750688901256 21.439144719241444
    vertex 3.0693640104945903 3.8274776285825713 21.200774372218458
  endloop
endfacet
facet normal -0.5659819709098035 -0.22412340710341827 0.7933682039213632
  outer loop
    vertex 3.358200613783012 3.9418750688901256 21.439144719241444
    vertex 3.9633040891997964 1.5702582271077863 21.20084781199347
    vertex 4.252140692488303 1.6846556674153295 21.43921815901645
  endloop
endfacet
facet normal -0.7376210600424467 -0.29214427889369465 -0.6087420571075572
  outer loop
    vertex 3.3582251434849764 3.9419538017644604 23.560465050052954
    vertex 4.473791635609993 1.772496324578348 23.249872499401224
    vertex 4.2521652221901824 1.6847344002896754 23.560538489827962
  endloop
endfacet
facet normal -0.7376210600424467 -0.29214427889369465 -0.6087420571075572
  outer loop
    vertex 4.473791635609993 1.772496324578348 23.249872499401224
    vertex 3.3582251434849764 3.9419538017644604 23.560465050052954
    vertex 3.5798515569046967 4.029715726053133 23.249799059626216
  endloop
endfacet
facet normal 0.9217865431616796 0.3650563816760293 -0.13055040039634558
  outer loop
    vertex 0.9774592609680134 2.9990503653252905 22.49986740871442
    vertex 1.9189241206941914 0.7606651178478486 22.888168165817955
    vertex 1.8713993396732196 0.7418309638504944 22.499940848489427
  endloop
endfacet
facet normal 0.9217865431616796 0.3650563816760293 -0.13055040039634558
  outer loop
    vertex 1.9189241206941914 0.7606651178478486 22.888168165817955
    vertex 0.9774592609680134 2.9990503653252905 22.49986740871442
    vertex 1.024984041988985 3.0178845193226334 22.888094726042947
  endloop
endfacet
facet normal -0.8589739561211125 -0.3401970353450631 -0.3826613644569764
  outer loop
    vertex 3.579908822186553 4.029271030178644 4.2501392143166
    vertex 4.613218961571599 1.8270846270022423 3.8884376537573746
    vertex 4.47390052208486 1.7719212839955936 4.250212658332449
  endloop
endfacet
facet normal -0.8589739561211125 -0.3401970353450631 -0.3826613644569764
  outer loop
    vertex 4.613218961571599 1.8270846270022423 3.8884376537573746
    vertex 3.579908822186553 4.029271030178644 4.2501392143166
    vertex 3.7192272616732858 4.084434373185299 3.8883642097415256
  endloop
endfacet
facet normal 0.1213666740574451 0.0480978257349262 0.9914417429117086
  outer loop
    vertex 2.9051533084780132 1.150569416465513 2.0513642636676592
    vertex 2.3721134895945832 3.5508674283031625 2.0001702869261413
    vertex 2.0111616085797963 3.4079191626485694 2.051290819651813
  endloop
endfacet
facet normal 0.1213666740574451 0.0480978257349262 0.9914417429117086
  outer loop
    vertex 2.3721134895945832 3.5508674283031625 2.0001702869261413
    vertex 2.9051533084780132 1.150569416465513 2.0513642636676592
    vertex 3.266105189492896 1.293517682120106 2.0002437309419903
  endloop
endfacet
facet normal -0.5252596897163878 0.8509419821935671 -3.604895371676581e-05
  outer loop
    vertex 5.927817701756802 4.958794761657287 7.892888151377341e-05
    vertex 11.140656813152633 8.17761779966042 25.999658740040772
    vertex 11.140519529534496 8.177110171089707 9.713986594661606e-07
  endloop
endfacet
facet normal -0.5252596897163878 0.8509419821935671 -3.604895371676581e-05
  outer loop
    vertex 11.140656813152633 8.17761779966042 25.999658740040772
    vertex 5.927817701756802 4.958794761657287 7.892888151377341e-05
    vertex 5.925346135454529 4.9590491313727 25.999737450738397
  endloop
endfacet
facet normal -0.8589654839689033 -0.3401687784699538 0.3827054997048346
  outer loop
    vertex 4.613210366656803 1.8270559606816648 3.1119805336388406
    vertex 3.5798922180863233 4.029215651099856 2.7501392436595506
    vertex 4.47388391798463 1.7718659049168104 2.750212687675397
  endloop
endfacet
facet normal -0.8589654839689033 -0.3401687784699538 0.3827054997048346
  outer loop
    vertex 3.5798922180863233 4.029215651099856 2.7501392436595506
    vertex 4.613210366656803 1.8270559606816648 3.1119805336388406
    vertex 3.719218666758496 4.08440570686471 3.1119070896229912
  endloop
endfacet
facet normal 0.9999743810247583 -0.007158022873522987 -1.6412130497130938e-06
  outer loop
    vertex 12.141643970993298 7.469590894223791 9.795547080893027e-06
    vertex 12.138006328274768 6.955451662319778 25.99968857167655
    vertex 12.138050986107206 6.95494205450404 1.987677616219763e-05
  endloop
endfacet
facet normal 0.9999743810247583 -0.007158022873522987 -1.6412130497130938e-06
  outer loop
    vertex 12.138006328274768 6.955451662319778 25.99968857167655
    vertex 12.141643970993298 7.469590894223791 9.795547080893027e-06
    vertex 12.141781254611438 7.470098522794504 25.99966756418919
  endloop
endfacet
facet normal 0.8589654839689037 0.34016877846995314 -0.3827054997048345
  outer loop
    vertex 1.0250415206312316 3.0174399078991816 3.8884334255433908
    vertex 2.0583596692017117 0.8152802174809852 4.25027471552268
    vertex 1.9190332205295388 0.7600901617161306 3.88850686955924
  endloop
endfacet
facet normal 0.8589654839689037 0.34016877846995314 -0.3827054997048345
  outer loop
    vertex 2.0583596692017117 0.8152802174809852 4.25027471552268
    vertex 1.0250415206312316 3.0174399078991816 3.8884334255433908
    vertex 1.1643679693034044 3.072629963664036 4.2502012715068345
  endloop
endfacet
facet normal 0.5659999267311677 0.22418214256947902 0.793338798933514
  outer loop
    vertex 2.2799696289860463 0.9029868222846397 2.439608885309645
    vertex 1.6748091332969277 3.274716359057861 2.201150091686022
    vertex 1.3859779290878236 3.160336568467696 2.439535441293796
  endloop
endfacet
facet normal 0.5659999267311677 0.22418214256947902 0.793338798933514
  outer loop
    vertex 1.6748091332969277 3.274716359057861 2.201150091686022
    vertex 2.2799696289860463 0.9029868222846397 2.439608885309645
    vertex 2.568800833195145 1.0173666128748045 2.201223535701871
  endloop
endfacet
facet normal 0.36818936112767686 -0.9297508236588107 1.6067245458737832e-05
  outer loop
    vertex 9.333781319590665 3.6964202470137195 7.892889691643034e-05
    vertex 3.963413994845834 1.569683590144855 2.2011877069663766
    vertex 1.4099832412739487e-15 0.0 0.00032618585165828935
  endloop
endfacet
facet normal 0.36818936112767686 -0.9297508236588107 1.6067245458737832e-05
  outer loop
    vertex 3.963413994845834 1.569683590144855 2.2011877069663766
    vertex 9.333781319590665 3.6964202470137195 7.892889691643034e-05
    vertex 4.252250476456481 1.6840809822688547 2.4395582158259943
  endloop
endfacet
facet normal 0.36818936112767686 -0.9297508236588107 1.6067245458737832e-05
  outer loop
    vertex 4.252250476456481 1.6840809822688547 2.4395582158259943
    vertex 9.333781319590665 3.6964202470137195 7.892889691643034e-05
    vertex 4.47388391798463 1.7718659049168104 2.750212687675397
  endloop
endfacet
facet normal 0.36818936112767686 -0.9297508236588107 1.6067245458737832e-05
  outer loop
    vertex 4.47388391798463 1.7718659049168104 2.750212687675397
    vertex 9.333781319590665 3.6964202470137195 7.892889691643034e-05
    vertex 4.613210366656803 1.8270559606816648 3.1119805336388406
  endloop
endfacet
facet normal 0.36818936112767686 -0.9297508236588107 1.6067245458737832e-05
  outer loop
    vertex 4.613210366656803 1.8270559606816648 3.1119805336388406
    vertex 9.333781319590665 3.6964202470137195 7.892889691643034e-05
    vertex 9.333915379732364 3.696760453612152 25.999758557619202
  endloop
endfacet
facet normal 0.36818936112767686 -0.9297508236588107 1.6067245458737832e-05
  outer loop
    vertex 1.4099832412739487e-15 0.0 0.00032618585165828935
    vertex 3.963413994845834 1.569683590144855 2.2011877069663766
    vertex 3.627058202049718 1.4364697217674038 2.0513457173494447
  endloop
endfacet
facet normal 0.36818936112767686 -0.9297508236588107 1.6067245458737832e-05
  outer loop
    vertex 1.4099832412739487e-15 0.0 0.00032618585165828935
    vertex 3.627058202049718 1.4364697217674038 2.0513457173494447
    vertex 3.266105189492896 1.293517682120106 2.0002437309419903
  endloop
endfacet
facet normal 0.36818936112767686 -0.9297508236588107 1.6067245458737832e-05
  outer loop
    vertex 4.613210366656803 1.8270559606816648 3.1119805336388406
    vertex 9.333915379732364 3.696760453612152 25.999758557619202
    vertex 4.660734955243815 1.8458900384689567 3.500207872863551
  endloop
endfacet
facet normal 0.36818936112767686 -0.9297508236588107 1.6067245458737832e-05
  outer loop
    vertex 4.660734955243815 1.8458900384689567 3.500207872863551
    vertex 9.333915379732364 3.696760453612152 25.999758557619202
    vertex 4.613218961571599 1.8270846270022423 3.8884376537573746
  endloop
endfacet
facet normal 0.36818936112767686 -0.9297508236588107 1.6067245458737832e-05
  outer loop
    vertex 4.613218961571599 1.8270846270022423 3.8884376537573746
    vertex 9.333915379732364 3.696760453612152 25.999758557619202
    vertex 4.47390052208486 1.7719212839955936 4.250212658332449
  endloop
endfacet
facet normal 0.36818936112767686 -0.9297508236588107 1.6067245458737832e-05
  outer loop
    vertex 4.47390052208486 1.7719212839955936 4.250212658332449
    vertex 9.333915379732364 3.696760453612152 25.999758557619202
    vertex 4.252273958200301 1.6841593001131503 4.560878517888436
  endloop
endfacet
facet normal 0.36818936112767686 -0.9297508236588107 1.6067245458737832e-05
  outer loop
    vertex 4.252273958200301 1.6841593001131503 4.560878517888436
    vertex 9.333915379732364 3.696760453612152 25.999758557619202
    vertex 3.963442753991107 1.5697795095229856 4.799263867496215
  endloop
endfacet
facet normal 0.36818936112767686 -0.9297508236588107 1.6067245458737832e-05
  outer loop
    vertex 3.963442753991107 1.5697795095229856 4.799263867496215
    vertex 9.333915379732364 3.696760453612152 25.999758557619202
    vertex 3.6270902787082386 1.436576705932277 4.9491231395304265
  endloop
endfacet
facet normal 0.36818936112767686 -0.9297508236588107 1.6067245458737832e-05
  outer loop
    vertex 3.6270902787082386 1.436576705932277 4.9491231395304265
    vertex 9.333915379732364 3.696760453612152 25.999758557619202
    vertex 3.2661383976934517 1.2936284402776839 5.0002436722560955
  endloop
endfacet
facet normal 0.36818936112767686 -0.9297508236588107 1.6067245458737832e-05
  outer loop
    vertex 3.2661383976934517 1.2936284402776839 5.0002436722560955
    vertex 9.333915379732364 3.696760453612152 25.999758557619202
    vertex 4.252140692488303 1.6846556674153295 21.43921815901645
  endloop
endfacet
facet normal 0.36818936112767686 -0.9297508236588107 1.6067245458737832e-05
  outer loop
    vertex 3.2661383976934517 1.2936284402776839 5.0002436722560955
    vertex 4.252140692488303 1.6846556674153295 21.43921815901645
    vertex 3.9633040891997964 1.5702582271077863 21.20084781199347
  endloop
endfacet
facet normal 0.36818936112767686 -0.9297508236588107 1.6067245458737832e-05
  outer loop
    vertex 3.2661383976934517 1.2936284402776839 5.0002436722560955
    vertex 3.9633040891997964 1.5702582271077863 21.20084781199347
    vertex 3.626948217815089 1.4370443276126144 21.051006012570554
  endloop
endfacet
facet normal 0.36818936112767686 -0.9297508236588107 1.6067245458737832e-05
  outer loop
    vertex 3.2661383976934517 1.2936284402776839 5.0002436722560955
    vertex 3.626948217815089 1.4370443276126144 21.051006012570554
    vertex 3.2659951751145684 1.294092276034027 20.999904231753113
  endloop
endfacet
facet normal 0.36818936112767686 -0.9297508236588107 1.6067245458737832e-05
  outer loop
    vertex 4.252140692488303 1.6846556674153295 21.43921815901645
    vertex 9.333915379732364 3.696760453612152 25.999758557619202
    vertex 4.473774290491401 1.7724406520289975 21.749872508415514
  endloop
endfacet
facet normal 0.36818936112767686 -0.9297508236588107 1.6067245458737832e-05
  outer loop
    vertex 4.473774290491401 1.7724406520289975 21.749872508415514
    vertex 9.333915379732364 3.696760453612152 25.999758557619202
    vertex 4.613100919772117 1.8276307793189122 22.1116402796597
  endloop
endfacet
facet normal 0.36818936112767686 -0.9297508236588107 1.6067245458737832e-05
  outer loop
    vertex 4.613100919772117 1.8276307793189122 22.1116402796597
    vertex 9.333915379732364 3.696760453612152 25.999758557619202
    vertex 4.660625700793089 1.846464933316255 22.49986759698822
  endloop
endfacet
facet normal 0.36818936112767686 -0.9297508236588107 1.6067245458737832e-05
  outer loop
    vertex 4.660625700793089 1.846464933316255 22.49986759698822
    vertex 9.333915379732364 3.696760453612152 25.999758557619202
    vertex 4.613109898266159 1.8276595975510332 22.88809741030112
  endloop
endfacet
facet normal 0.36818936112767686 -0.9297508236588107 1.6067245458737832e-05
  outer loop
    vertex 4.613109898266159 1.8276595975510332 22.88809741030112
    vertex 9.333915379732364 3.696760453612152 25.999758557619202
    vertex 4.473791635609993 1.772496324578348 23.249872499401224
  endloop
endfacet
facet normal 0.36818936112767686 -0.9297508236588107 1.6067245458737832e-05
  outer loop
    vertex 4.473791635609993 1.772496324578348 23.249872499401224
    vertex 9.333915379732364 3.696760453612152 25.999758557619202
    vertex 4.2521652221901824 1.6847344002896754 23.560538489827962
  endloop
endfacet
facet normal 0.36818936112767686 -0.9297508236588107 1.6067245458737832e-05
  outer loop
    vertex 4.2521652221901824 1.6847344002896754 23.560538489827962
    vertex 9.333915379732364 3.696760453612152 25.999758557619202
    vertex 3.9633341318264472 1.5703546547918463 23.79892400773358
  endloop
endfacet
facet normal 0.36818936112767686 -0.9297508236588107 1.6067245458737832e-05
  outer loop
    vertex 3.9633341318264472 1.5703546547918463 23.79892400773358
    vertex 9.333915379732364 3.696760453612152 25.999758557619202
    vertex 3.626981726011011 1.4371518787190813 23.948783474023497
  endloop
endfacet
facet normal 0.36818936112767686 -0.9297508236588107 1.6067245458737832e-05
  outer loop
    vertex 3.626981726011011 1.4371518787190813 23.948783474023497
    vertex 9.333915379732364 3.696760453612152 25.999758557619202
    vertex 3.2660298653516557 1.2942036211327281 23.99990421372454
  endloop
endfacet
facet normal 0.36818936112767686 -0.9297508236588107 1.6067245458737832e-05
  outer loop
    vertex 1.4099832412739487e-15 0.0 0.00032618585165828935
    vertex 1.8715086319425327 0.7412560839288443 3.5002795303345287
    vertex 0.0004976957847697139 0.0008085882549202949 26.000072174509405
  endloop
endfacet
facet normal 0.36818936112767686 -0.9297508236588107 1.6067245458737832e-05
  outer loop
    vertex 1.8715086319425327 0.7412560839288443 3.5002795303345287
    vertex 1.4099832412739487e-15 0.0 0.00032618585165828935
    vertex 1.919024625614749 0.7600614953955476 3.112049749440706
  endloop
endfacet
facet normal 0.36818936112767686 -0.9297508236588107 1.6067245458737832e-05
  outer loop
    vertex 1.919024625614749 0.7600614953955476 3.112049749440706
    vertex 1.4099832412739487e-15 0.0 0.00032618585165828935
    vertex 2.0583430651013916 0.815224838402202 2.7502747448656315
  endloop
endfacet
facet normal 0.36818936112767686 -0.9297508236588107 1.6067245458737832e-05
  outer loop
    vertex 2.0583430651013916 0.815224838402202 2.7502747448656315
    vertex 1.4099832412739487e-15 0.0 0.00032618585165828935
    vertex 2.2799696289860463 0.9029868222846397 2.439608885309645
  endloop
endfacet
facet normal 0.36818936112767686 -0.9297508236588107 1.6067245458737832e-05
  outer loop
    vertex 2.2799696289860463 0.9029868222846397 2.439608885309645
    vertex 1.4099832412739487e-15 0.0 0.00032618585165828935
    vertex 2.568800833195145 1.0173666128748045 2.201223535701871
  endloop
endfacet
facet normal 0.36818936112767686 -0.9297508236588107 1.6067245458737832e-05
  outer loop
    vertex 2.568800833195145 1.0173666128748045 2.201223535701871
    vertex 1.4099832412739487e-15 0.0 0.00032618585165828935
    vertex 2.9051533084780132 1.150569416465513 2.0513642636676592
  endloop
endfacet
facet normal 0.36818936112767686 -0.9297508236588107 1.6067245458737832e-05
  outer loop
    vertex 2.9051533084780132 1.150569416465513 2.0513642636676592
    vertex 1.4099832412739487e-15 0.0 0.00032618585165828935
    vertex 3.266105189492896 1.293517682120106 2.0002437309419903
  endloop
endfacet
facet normal 0.36818936112767686 -0.9297508236588107 1.6067245458737832e-05
  outer loop
    vertex 0.0004976957847697139 0.0008085882549202949 26.000072174509405
    vertex 1.8715086319425327 0.7412560839288443 3.5002795303345287
    vertex 1.9190332205295388 0.7600901617161306 3.88850686955924
  endloop
endfacet
facet normal 0.36818936112767686 -0.9297508236588107 1.6067245458737832e-05
  outer loop
    vertex 0.0004976957847697139 0.0008085882549202949 26.000072174509405
    vertex 1.9190332205295388 0.7600901617161306 3.88850686955924
    vertex 2.0583596692017117 0.8152802174809852 4.25027471552268
  endloop
endfacet
facet normal 0.36818936112767686 -0.9297508236588107 1.6067245458737832e-05
  outer loop
    vertex 0.0004976957847697139 0.0008085882549202949 26.000072174509405
    vertex 2.0583596692017117 0.8152802174809852 4.25027471552268
    vertex 2.2799931107298614 0.9030651401289296 4.5609291873720865
  endloop
endfacet
facet normal 0.36818936112767686 -0.9297508236588107 1.6067245458737832e-05
  outer loop
    vertex 0.0004976957847697139 0.0008085882549202949 26.000072174509405
    vertex 2.2799931107298614 0.9030651401289296 4.5609291873720865
    vertex 2.5688295923405082 1.017462532252935 4.799299696231704
  endloop
endfacet
facet normal 0.36818936112767686 -0.9297508236588107 1.6067245458737832e-05
  outer loop
    vertex 0.0004976957847697139 0.0008085882549202949 26.000072174509405
    vertex 2.5688295923405082 1.017462532252935 4.799299696231704
    vertex 2.9051853851366243 1.150676400630386 4.949141685848642
  endloop
endfacet
facet normal 0.36818936112767686 -0.9297508236588107 1.6067245458737832e-05
  outer loop
    vertex 0.0004976957847697139 0.0008085882549202949 26.000072174509405
    vertex 2.9051853851366243 1.150676400630386 4.949141685848642
    vertex 3.2661383976934517 1.2936284402776839 5.0002436722560955
  endloop
endfacet
facet normal 0.36818936112767686 -0.9297508236588107 1.6067245458737832e-05
  outer loop
    vertex 0.0004976957847697139 0.0008085882549202949 26.000072174509405
    vertex 3.2661383976934517 1.2936284402776839 5.0002436722560955
    vertex 2.058233404856316 0.8157995725884015 21.749935946076427
  endloop
endfacet
facet normal 0.36818936112767686 -0.9297508236588107 1.6067245458737832e-05
  outer loop
    vertex 2.058233404856316 0.8157995725884015 21.749935946076427
    vertex 3.2661383976934517 1.2936284402776839 5.0002436722560955
    vertex 2.279859818276126 0.9035614968770798 21.43926995564968
  endloop
endfacet
facet normal 0.36818936112767686 -0.9297508236588107 1.6067245458737832e-05
  outer loop
    vertex 2.279859818276126 0.9035614968770798 21.43926995564968
    vertex 3.2661383976934517 1.2936284402776839 5.0002436722560955
    vertex 2.5686909086398613 1.0179412423749032 21.200884437744076
  endloop
endfacet
facet normal 0.36818936112767686 -0.9297508236588107 1.6067245458737832e-05
  outer loop
    vertex 2.5686909086398613 1.0179412423749032 21.200884437744076
    vertex 3.2661383976934517 1.2936284402776839 5.0002436722560955
    vertex 2.9050433144552135 1.1511440184476793 21.05102497145415
  endloop
endfacet
facet normal 0.36818936112767686 -0.9297508236588107 1.6067245458737832e-05
  outer loop
    vertex 2.9050433144552135 1.1511440184476793 21.05102497145415
    vertex 3.2661383976934517 1.2936284402776839 5.0002436722560955
    vertex 3.2659951751145684 1.294092276034027 20.999904231753113
  endloop
endfacet
facet normal 0.36818936112767686 -0.9297508236588107 1.6067245458737832e-05
  outer loop
    vertex 0.0004976957847697139 0.0008085882549202949 26.000072174509405
    vertex 2.058233404856316 0.8157995725884015 21.749935946076427
    vertex 1.9189151422001496 0.7606362996157274 22.11171103517653
  endloop
endfacet
facet normal 0.36818936112767686 -0.9297508236588107 1.6067245458737832e-05
  outer loop
    vertex 0.0004976957847697139 0.0008085882549202949 26.000072174509405
    vertex 1.9189151422001496 0.7606362996157274 22.11171103517653
    vertex 1.8713993396732196 0.7418309638504944 22.499940848489427
  endloop
endfacet
facet normal 0.36818936112767686 -0.9297508236588107 1.6067245458737832e-05
  outer loop
    vertex 0.0004976957847697139 0.0008085882549202949 26.000072174509405
    vertex 1.8713993396732196 0.7418309638504944 22.499940848489427
    vertex 1.9189241206941914 0.7606651178478486 22.888168165817955
  endloop
endfacet
facet normal 0.36818936112767686 -0.9297508236588107 1.6067245458737832e-05
  outer loop
    vertex 0.0004976957847697139 0.0008085882549202949 26.000072174509405
    vertex 1.9189241206941914 0.7606651178478486 22.888168165817955
    vertex 2.0582507499749076 0.8158552451377578 23.249935937062133
  endloop
endfacet
facet normal 0.36818936112767686 -0.9297508236588107 1.6067245458737832e-05
  outer loop
    vertex 0.0004976957847697139 0.0008085882549202949 26.000072174509405
    vertex 2.0582507499749076 0.8158552451377578 23.249935937062133
    vertex 2.279884347978006 0.9036402297514257 23.560590286461196
  endloop
endfacet
facet normal 0.36818936112767686 -0.9297508236588107 1.6067245458737832e-05
  outer loop
    vertex 0.0004976957847697139 0.0008085882549202949 26.000072174509405
    vertex 2.279884347978006 0.9036402297514257 23.560590286461196
    vertex 2.5687209512665126 1.0180376700589688 23.79896063348418
  endloop
endfacet
facet normal 0.36818936112767686 -0.9297508236588107 1.6067245458737832e-05
  outer loop
    vertex 0.0004976957847697139 0.0008085882549202949 26.000072174509405
    vertex 2.5687209512665126 1.0180376700589688 23.79896063348418
    vertex 2.90507682265122 1.1512515695541465 23.94880243290709
  endloop
endfacet
facet normal 0.36818936112767686 -0.9297508236588107 1.6067245458737832e-05
  outer loop
    vertex 0.0004976957847697139 0.0008085882549202949 26.000072174509405
    vertex 2.90507682265122 1.1512515695541465 23.94880243290709
    vertex 3.2660298653516557 1.2942036211327281 23.99990421372454
  endloop
endfacet
facet normal 0.36818936112767686 -0.9297508236588107 1.6067245458737832e-05
  outer loop
    vertex 0.0004976957847697139 0.0008085882549202949 26.000072174509405
    vertex 3.2660298653516557 1.2942036211327281 23.99990421372454
    vertex 9.333915379732364 3.696760453612152 25.999758557619202
  endloop
endfacet
facet normal -0.5659823628395634 -0.2241235623321915 0.7933678804703862
  outer loop
    vertex 3.963413994845834 1.569683590144855 2.2011877069663766
    vertex 3.3582587765581735 3.9414307284519166 2.439484771810148
    vertex 3.0694222949475267 3.8270333363279114 2.201114262950527
  endloop
endfacet
facet normal -0.5659823628395634 -0.2241235623321915 0.7933678804703862
  outer loop
    vertex 3.3582587765581735 3.9414307284519166 2.439484771810148
    vertex 3.963413994845834 1.569683590144855 2.2011877069663766
    vertex 4.252250476456481 1.6840809822688547 2.4395582158259943
  endloop
endfacet
facet normal 0.3557866809180381 0.14087426466301708 -0.9238886725341859
  outer loop
    vertex 2.0111936852383168 3.4080261468134423 4.949068241832795
    vertex 2.5688295923405082 1.017462532252935 4.799299696231704
    vertex 1.674837892442201 3.2748122784359914 4.799226252215855
  endloop
endfacet
facet normal 0.3557866809180381 0.14087426466301708 -0.9238886725341859
  outer loop
    vertex 2.5688295923405082 1.017462532252935 4.799299696231704
    vertex 2.0111936852383168 3.4080261468134423 4.949068241832795
    vertex 2.9051853851366243 1.150676400630386 4.949141685848642
  endloop
endfacet
facet normal 0.7376207593117412 0.2921441598071663 0.6087424786582052
  outer loop
    vertex 2.2799696289860463 0.9029868222846397 2.439608885309645
    vertex 1.1643513652031745 3.0725745845852583 2.750201300849785
    vertex 2.0583430651013916 0.815224838402202 2.7502747448656315
  endloop
endfacet
facet normal 0.7376207593117412 0.2921441598071663 0.6087424786582052
  outer loop
    vertex 1.1643513652031745 3.0725745845852583 2.750201300849785
    vertex 2.2799696289860463 0.9029868222846397 2.439608885309645
    vertex 1.3859779290878236 3.160336568467696 2.439535441293796
  endloop
endfacet
facet normal -0.1213447246571635 -0.0480246186627574 0.9914479783630477
  outer loop
    vertex 3.266105189492896 1.293517682120106 2.0002437309419903
    vertex 2.7330665021514107 3.69381946795046 2.0512722733335953
    vertex 2.3721134895945832 3.5508674283031625 2.0001702869261413
  endloop
endfacet
facet normal -0.1213447246571635 -0.0480246186627574 0.9914479783630477
  outer loop
    vertex 2.7330665021514107 3.69381946795046 2.0512722733335953
    vertex 3.266105189492896 1.293517682120106 2.0002437309419903
    vertex 3.627058202049718 1.4364697217674038 2.0513457173494447
  endloop
endfacet
facet normal 0.8589739561211935 0.3401970353450603 0.3826613644567971
  outer loop
    vertex 2.0583430651013916 0.815224838402202 2.7502747448656315
    vertex 1.0250329257165263 3.017411241578604 3.111976305424857
    vertex 1.919024625614749 0.7600614953955476 3.112049749440706
  endloop
endfacet
facet normal 0.8589739561211935 0.3401970353450603 0.3826613644567971
  outer loop
    vertex 1.0250329257165263 3.017411241578604 3.111976305424857
    vertex 2.0583430651013916 0.815224838402202 2.7502747448656315
    vertex 1.1643513652031745 3.0725745845852583 2.750201300849785
  endloop
endfacet
facet normal -0.737606981323498 -0.29209909049254856 0.6087807999898346
  outer loop
    vertex 4.473774290491401 1.7724406520289975 21.749872508415514
    vertex 3.358200613783012 3.9418750688901256 21.439144719241444
    vertex 4.252140692488303 1.6846556674153295 21.43921815901645
  endloop
endfacet
facet normal -0.737606981323498 -0.29209909049254856 0.6087807999898346
  outer loop
    vertex 3.358200613783012 3.9418750688901256 21.439144719241444
    vertex 4.473774290491401 1.7724406520289975 21.749872508415514
    vertex 3.579834211786105 4.029660053503793 21.749799068640506
  endloop
endfacet
facet normal 0.9217895618180669 0.3650660706439154 0.13050198384648515
  outer loop
    vertex 1.9189151422001496 0.7606362996157274 22.11171103517653
    vertex 0.9774592609680134 2.9990503653252905 22.49986740871442
    vertex 1.8713993396732196 0.7418309638504944 22.499940848489427
  endloop
endfacet
facet normal 0.9217895618180669 0.3650660706439154 0.13050198384648515
  outer loop
    vertex 0.9774592609680134 2.9990503653252905 22.49986740871442
    vertex 1.9189151422001496 0.7606362996157274 22.11171103517653
    vertex 1.0249750634949435 3.0178557010905123 22.111637595401522
  endloop
endfacet
facet normal -0.3557866809180243 -0.14087426466301106 0.9238886725341922
  outer loop
    vertex 3.627058202049718 1.4364697217674038 2.0513457173494447
    vertex 3.0694222949475267 3.8270333363279114 2.201114262950527
    vertex 2.7330665021514107 3.69381946795046 2.0512722733335953
  endloop
endfacet
facet normal -0.3557866809180243 -0.14087426466301106 0.9238886725341922
  outer loop
    vertex 3.0694222949475267 3.8270333363279114 2.201114262950527
    vertex 3.627058202049718 1.4364697217674038 2.0513457173494447
    vertex 3.963413994845834 1.569683590144855 2.2011877069663766
  endloop
endfacet
facet normal 0.1213447246571598 0.04802461866275655 -0.9914479783630481
  outer loop
    vertex 2.372146697795139 3.5509781864607404 5.000170228240247
    vertex 2.9051853851366243 1.150676400630386 4.949141685848642
    vertex 2.0111936852383168 3.4080261468134423 4.949068241832795
  endloop
endfacet
facet normal 0.1213447246571598 0.04802461866275655 -0.9914479783630481
  outer loop
    vertex 2.9051853851366243 1.150676400630386 4.949141685848642
    vertex 2.372146697795139 3.5509781864607404 5.000170228240247
    vertex 3.2661383976934517 1.2936284402776839 5.0002436722560955
  endloop
endfacet
facet normal 0.6998515733182044 -0.714288299788264 1.047020995492282e-05
  outer loop
    vertex 11.766783729815959 6.0806295239645705 25.999705081048553
    vertex 9.333781319590665 3.6964202470137195 7.892889691643034e-05
    vertex 11.766828387648403 6.080119916148856 3.6386148162481646e-05
  endloop
endfacet
facet normal 0.6998515733182044 -0.714288299788264 1.047020995492282e-05
  outer loop
    vertex 9.333781319590665 3.6964202470137195 7.892889691643034e-05
    vertex 11.766783729815959 6.0806295239645705 25.999705081048553
    vertex 9.333915379732364 3.696760453612152 25.999758557619202
  endloop
endfacet
facet normal -0.9217865431616602 -0.36505638167604 0.13055040039645302
  outer loop
    vertex 4.660625700793089 1.846464933316255 22.49986759698822
    vertex 3.719160841066821 4.084850180793697 22.11156683988469
    vertex 4.613100919772117 1.8276307793189122 22.1116402796597
  endloop
endfacet
facet normal -0.9217865431616602 -0.36505638167604 0.13055040039645302
  outer loop
    vertex 3.719160841066821 4.084850180793697 22.11156683988469
    vertex 4.660625700793089 1.846464933316255 22.49986759698822
    vertex 3.7666856220878833 4.103684334791051 22.499794157213213
  endloop
endfacet
facet normal 0.7376072820637144 0.2920992096101365 -0.6087803784549183
  outer loop
    vertex 1.1643679693034044 3.072629963664036 4.2502012715068345
    vertex 2.2799931107298614 0.9030651401289296 4.5609291873720865
    vertex 2.0583596692017117 0.8152802174809852 4.25027471552268
  endloop
endfacet
facet normal 0.7376072820637144 0.2920992096101365 -0.6087803784549183
  outer loop
    vertex 2.2799931107298614 0.9030651401289296 4.5609291873720865
    vertex 1.1643679693034044 3.072629963664036 4.2502012715068345
    vertex 1.3860014108316445 3.1604148863119974 4.560855743356237
  endloop
endfacet
facet normal 0.9217894973425328 0.3650660451263774 0.13050251064552953
  outer loop
    vertex 1.919024625614749 0.7600614953955476 3.112049749440706
    vertex 0.9775169320442254 2.9986058301118894 3.5002060863186797
    vertex 1.8715086319425327 0.7412560839288443 3.5002795303345287
  endloop
endfacet
facet normal 0.9217894973425328 0.3650660451263774 0.13050251064552953
  outer loop
    vertex 0.9775169320442254 2.9986058301118894 3.5002060863186797
    vertex 1.919024625614749 0.7600614953955476 3.112049749440706
    vertex 1.0250329257165263 3.017411241578604 3.111976305424857
  endloop
endfacet
facet normal -0.7376072820637584 -0.29209920961016983 0.6087803784548492
  outer loop
    vertex 4.47388391798463 1.7718659049168104 2.750212687675397
    vertex 3.3582587765581735 3.9414307284519166 2.439484771810148
    vertex 4.252250476456481 1.6840809822688547 2.4395582158259943
  endloop
endfacet
facet normal -0.7376072820637584 -0.29209920961016983 0.6087803784548492
  outer loop
    vertex 3.3582587765581735 3.9414307284519166 2.439484771810148
    vertex 4.47388391798463 1.7718659049168104 2.750212687675397
    vertex 3.5798922180863233 4.029215651099856 2.7501392436595506
  endloop
endfacet
facet normal 0.5261222019025132 0.8504089770749116 -1.9381787925971606e-05
  outer loop
    vertex 11.578658819329226 8.174559919102874 25.999657768642113
    vertex 12.021020947405427 7.9002913460355595 2.5168049932133837e-06
    vertex 11.578521535711088 8.17405229053214 2.5046333740767123e-30
  endloop
endfacet
facet normal 0.5261222019025132 0.8504089770749116 -1.9381787925971606e-05
  outer loop
    vertex 12.021020947405427 7.9002913460355595 2.5168049932133837e-06
    vertex 11.578658819329226 8.174559919102874 25.999657768642113
    vertex 12.021158231023515 7.900798974606294 25.999660285447106
  endloop
endfacet
facet normal -0.9999756188051689 0.0069829509760427535 1.381613501761801e-05
  outer loop
    vertex 0.0004976957847697139 0.0008085882549202949 26.000072174509405
    vertex 0.018419422926970953 2.618687118808385 0.00023071809241616002
    vertex 1.4099832412739487e-15 0.0 0.00032618585165828935
  endloop
endfacet
facet normal -0.9999756188051689 0.0069829509760427535 1.381613501761801e-05
  outer loop
    vertex 0.018419422926970953 2.618687118808385 0.00023071809241616002
    vertex 0.0004976957847697139 0.0008085882549202949 26.000072174509405
    vertex 0.018648674473513337 2.6190956660153737 25.99989260009602
  endloop
endfacet
facet normal 0.12134423487068689 0.04802442468744751 -0.9914480477045116
  outer loop
    vertex 2.3720897866464496 3.551423022607524 23.99983077394953
    vertex 2.90507682265122 1.1512515695541465 23.94880243290709
    vertex 2.0111367439460133 3.4084709710289314 23.948728993132086
  endloop
endfacet
facet normal 0.12134423487068689 0.04802442468744751 -0.9914480477045116
  outer loop
    vertex 2.90507682265122 1.1512515695541465 23.94880243290709
    vertex 2.3720897866464496 3.551423022607524 23.99983077394953
    vertex 3.2660298653516557 1.2942036211327281 23.99990421372454
  endloop
endfacet
facet normal 0.9205492677604298 -0.39062647828891806 9.237657761621264e-06
  outer loop
    vertex 12.138050986107206 6.95494205450404 1.987677616219763e-05
    vertex 11.766783729815959 6.0806295239645705 25.999705081048553
    vertex 11.766828387648403 6.080119916148856 3.6386148162481646e-05
  endloop
endfacet
facet normal 0.9205492677604298 -0.39062647828891806 9.237657761621264e-06
  outer loop
    vertex 11.766783729815959 6.0806295239645705 25.999705081048553
    vertex 12.138050986107206 6.95494205450404 1.987677616219763e-05
    vertex 12.138006328274768 6.955451662319778 25.99968857167655
  endloop
endfacet
facet normal -0.8589652949131017 -0.34016870358114715 0.38270599059692006
  outer loop
    vertex 4.613100919772117 1.8276307793189122 22.1116402796597
    vertex 3.579834211786105 4.029660053503793 21.749799068640506
    vertex 4.473774290491401 1.7724406520289975 21.749872508415514
  endloop
endfacet
facet normal -0.8589652949131017 -0.34016870358114715 0.38270599059692006
  outer loop
    vertex 3.579834211786105 4.029660053503793 21.749799068640506
    vertex 4.613100919772117 1.8276307793189122 22.1116402796597
    vertex 3.719160841066821 4.084850180793697 22.11156683988469
  endloop
endfacet
facet normal 0.8589741451658655 0.34019711019763993 0.3826608735548299
  outer loop
    vertex 2.058233404856316 0.8157995725884015 21.749935946076427
    vertex 1.0249750634949435 3.0178557010905123 22.111637595401522
    vertex 1.9189151422001496 0.7606362996157274 22.11171103517653
  endloop
endfacet
facet normal 0.8589741451658655 0.34019711019763993 0.3826608735548299
  outer loop
    vertex 1.0249750634949435 3.0178557010905123 22.111637595401522
    vertex 2.058233404856316 0.8157995725884015 21.749935946076427
    vertex 1.1642933261511097 3.0730189740631864 21.749862506301422
  endloop
endfacet
facet normal 0.9629484042080432 0.2696856887676095 -1.0350028608621198e-05
  outer loop
    vertex 12.021020947405427 7.9002913460355595 2.5168049932133837e-06
    vertex 12.141781254611438 7.470098522794504 25.99966756418919
    vertex 12.141643970993298 7.469590894223791 9.795547080893027e-06
  endloop
endfacet
facet normal 0.9629484042080432 0.2696856887676095 -1.0350028608621198e-05
  outer loop
    vertex 12.141781254611438 7.470098522794504 25.99966756418919
    vertex 12.021020947405427 7.9002913460355595 2.5168049932133837e-06
    vertex 12.021158231023515 7.900798974606294 25.999660285447106
  endloop
endfacet
facet normal 0.0069812603057920345 0.9999756305140226 -1.9560819502929193e-05
  outer loop
    vertex 11.140519529534496 8.177110171089707 9.713986594661606e-07
    vertex 11.578658819329226 8.174559919102874 25.999657768642113
    vertex 11.578521535711088 8.17405229053214 2.5046333740767123e-30
  endloop
endfacet
facet normal 0.0069812603057920345 0.9999756305140226 -1.9560819502929193e-05
  outer loop
    vertex 11.578658819329226 8.174559919102874 25.999657768642113
    vertex 11.140519529534496 8.177110171089707 9.713986594661606e-07
    vertex 11.140656813152633 8.17761779966042 25.999658740040772
  endloop
endfacet
facet normal 0.35578622450810765 0.14087408390166833 -0.9238888758585267
  outer loop
    vertex 2.0111367439460133 3.4084709710289314 23.948728993132086
    vertex 2.5687209512665126 1.0180376700589688 23.79896063348418
    vertex 1.6747808725613065 3.2752570715337535 23.798887193709174
  endloop
endfacet
facet normal 0.35578622450810765 0.14087408390166833 -0.9238888758585267
  outer loop
    vertex 2.5687209512665126 1.0180376700589688 23.79896063348418
    vertex 2.0111367439460133 3.4084709710289314 23.948728993132086
    vertex 2.90507682265122 1.1512515695541465 23.94880243290709
  endloop
endfacet
facet normal -0.12134423487064293 -0.04802442468742908 0.9914480477045179
  outer loop
    vertex 3.2659951751145684 1.294092276034027 20.999904231753113
    vertex 2.733008139109883 3.694263729087399 21.050932572795546
    vertex 2.3720550964093565 3.5513116775088176 20.999830791978106
  endloop
endfacet
facet normal -0.12134423487064293 -0.04802442468742908 0.9914480477045179
  outer loop
    vertex 2.733008139109883 3.694263729087399 21.050932572795546
    vertex 3.2659951751145684 1.294092276034027 20.999904231753113
    vertex 3.626948217815089 1.4370443276126144 21.051006012570554
  endloop
endfacet
facet normal 0.7376210600424102 0.292144278893665 0.6087420571076158
  outer loop
    vertex 2.279859818276126 0.9035614968770798 21.43926995564968
    vertex 1.1642933261511097 3.0730189740631864 21.749862506301422
    vertex 2.058233404856316 0.8157995725884015 21.749935946076427
  endloop
endfacet
facet normal 0.7376210600424102 0.292144278893665 0.6087420571076158
  outer loop
    vertex 1.1642933261511097 3.0730189740631864 21.749862506301422
    vertex 2.279859818276126 0.9035614968770798 21.43926995564968
    vertex 1.38591973957092 3.160780898351859 21.43919651587467
  endloop
endfacet
facet normal 0.8589652949131114 0.3401687035811175 -0.382705990596925
  outer loop
    vertex 1.024984041988985 3.0178845193226334 22.888094726042947
    vertex 2.0582507499749076 0.8158552451377578 23.249935937062133
    vertex 1.9189241206941914 0.7606651178478486 22.888168165817955
  endloop
endfacet
facet normal 0.8589652949131114 0.3401687035811175 -0.382705990596925
  outer loop
    vertex 2.0582507499749076 0.8158552451377578 23.249935937062133
    vertex 1.024984041988985 3.0178845193226334 22.888094726042947
    vertex 1.1643106712697013 3.073074646612548 23.249862497287133
  endloop
endfacet
facet normal -0.5660003186535639 -0.2241822977743702 -0.7933384754621874
  outer loop
    vertex 3.3582251434849764 3.9419538017644604 23.560465050052954
    vertex 3.9633341318264472 1.5703546547918463 23.79892400773358
    vertex 3.069394053121151 3.827574056266648 23.79885056795857
  endloop
endfacet
facet normal -0.5660003186535639 -0.2241822977743702 -0.7933384754621874
  outer loop
    vertex 3.9633341318264472 1.5703546547918463 23.79892400773358
    vertex 3.3582251434849764 3.9419538017644604 23.560465050052954
    vertex 4.2521652221901824 1.6847344002896754 23.560538489827962
  endloop
endfacet
facet normal 0.3558075909082912 0.1409426635405185 0.9238701877678175
  outer loop
    vertex 2.5686909086398613 1.0179412423749032 21.200884437744076
    vertex 2.0111032357500016 3.408363419922464 21.05095153167915
    vertex 1.674750829934661 3.2751606438496994 21.200810997969068
  endloop
endfacet
facet normal 0.3558075909082912 0.1409426635405185 0.9238701877678175
  outer loop
    vertex 2.0111032357500016 3.408363419922464 21.05095153167915
    vertex 2.5686909086398613 1.0179412423749032 21.200884437744076
    vertex 2.9050433144552135 1.1511440184476793 21.05102497145415
  endloop
endfacet
facet normal -0.12136716384236224 -0.048098019705117644 -0.9914416735447968
  outer loop
    vertex 2.733041647305805 3.694371280193866 23.94871003424849
    vertex 3.2660298653516557 1.2942036211327281 23.99990421372454
    vertex 2.3720897866464496 3.551423022607524 23.99983077394953
  endloop
endfacet
facet normal -0.12136716384236224 -0.048098019705117644 -0.9914416735447968
  outer loop
    vertex 3.2660298653516557 1.2942036211327281 23.99990421372454
    vertex 2.733041647305805 3.694371280193866 23.94871003424849
    vertex 3.626981726011011 1.4371518787190813 23.948783474023497
  endloop
endfacet
facet normal -0.9217895618180669 -0.3650660706439153 -0.13050198384648515
  outer loop
    vertex 3.7191698195609533 4.084878999025818 22.88802397052611
    vertex 4.660625700793089 1.846464933316255 22.49986759698822
    vertex 4.613109898266159 1.8276595975510332 22.88809741030112
  endloop
endfacet
facet normal -0.9217895618180669 -0.3650660706439153 -0.13050198384648515
  outer loop
    vertex 4.660625700793089 1.846464933316255 22.49986759698822
    vertex 3.7191698195609533 4.084878999025818 22.88802397052611
    vertex 3.7666856220878833 4.103684334791051 22.499794157213213
  endloop
endfacet
facet normal -0.35580759090824704 -0.14094266354050908 -0.9238701877678359
  outer loop
    vertex 3.069394053121151 3.827574056266648 23.79885056795857
    vertex 3.626981726011011 1.4371518787190813 23.948783474023497
    vertex 2.733041647305805 3.694371280193866 23.94871003424849
  endloop
endfacet
facet normal -0.35580759090824704 -0.14094266354050908 -0.9238701877678359
  outer loop
    vertex 3.626981726011011 1.4371518787190813 23.948783474023497
    vertex 3.069394053121151 3.827574056266648 23.79885056795857
    vertex 3.9633341318264472 1.5703546547918463 23.79892400773358
  endloop
endfacet
facet normal 8.186742536018625e-06 3.3367151501397827e-05 0.9999999994098052
  outer loop
    vertex 9.333915379732364 3.696760453612152 25.999758557619202
    vertex 0.018648674473513337 2.6190956660153737 25.99989260009602
    vertex 0.0004976957847697139 0.0008085882549202949 26.000072174509405
  endloop
endfacet
facet normal 8.186742536018625e-06 3.3367151501397827e-05 0.9999999994098052
  outer loop
    vertex 0.018648674473513337 2.6190956660153737 25.99989260009602
    vertex 9.333915379732364 3.696760453612152 25.999758557619202
    vertex 5.925346135454529 4.9590491313727 25.999737450738397
  endloop
endfacet
facet normal 8.186742536018625e-06 3.3367151501397827e-05 0.9999999994098052
  outer loop
    vertex 5.925346135454529 4.9590491313727 25.999737450738397
    vertex 9.333915379732364 3.696760453612152 25.999758557619202
    vertex 11.140656813152633 8.17761779966042 25.999658740040772
  endloop
endfacet
facet normal 8.186742536018625e-06 3.3367151501397827e-05 0.9999999994098052
  outer loop
    vertex 11.140656813152633 8.17761779966042 25.999658740040772
    vertex 9.333915379732364 3.696760453612152 25.999758557619202
    vertex 11.766783729815959 6.0806295239645705 25.999705081048553
  endloop
endfacet
facet normal 8.186742536018625e-06 3.3367151501397827e-05 0.9999999994098052
  outer loop
    vertex 11.140656813152633 8.17761779966042 25.999658740040772
    vertex 11.766783729815959 6.0806295239645705 25.999705081048553
    vertex 11.578658819329226 8.174559919102874 25.999657768642113
  endloop
endfacet
facet normal 8.186742536018625e-06 3.3367151501397827e-05 0.9999999994098052
  outer loop
    vertex 11.578658819329226 8.174559919102874 25.999657768642113
    vertex 11.766783729815959 6.0806295239645705 25.999705081048553
    vertex 12.021158231023515 7.900798974606294 25.999660285447106
  endloop
endfacet
facet normal 8.186742536018625e-06 3.3367151501397827e-05 0.9999999994098052
  outer loop
    vertex 12.021158231023515 7.900798974606294 25.999660285447106
    vertex 11.766783729815959 6.0806295239645705 25.999705081048553
    vertex 12.138006328274768 6.955451662319778 25.99968857167655
  endloop
endfacet
facet normal 8.186742536018625e-06 3.3367151501397827e-05 0.9999999994098052
  outer loop
    vertex 12.021158231023515 7.900798974606294 25.999660285447106
    vertex 12.138006328274768 6.955451662319778 25.99968857167655
    vertex 12.141781254611438 7.470098522794504 25.99966756418919
  endloop
endfacet
facet normal -1.1309313014959995e-05 -2.0657899767311366e-05 -0.9999999997226754
  outer loop
    vertex 0.018419422926970953 2.618687118808385 0.00023071809241616002
    vertex 9.333781319590665 3.6964202470137195 7.892889691643034e-05
    vertex 1.4099832412739487e-15 0.0 0.00032618585165828935
  endloop
endfacet
facet normal -1.1309313014959995e-05 -2.0657899767311366e-05 -0.9999999997226754
  outer loop
    vertex 9.333781319590665 3.6964202470137195 7.892889691643034e-05
    vertex 0.018419422926970953 2.618687118808385 0.00023071809241616002
    vertex 5.927817701756802 4.958794761657287 7.892888151377341e-05
  endloop
endfacet
facet normal -1.1309313014959995e-05 -2.0657899767311366e-05 -0.9999999997226754
  outer loop
    vertex 9.333781319590665 3.6964202470137195 7.892889691643034e-05
    vertex 5.927817701756802 4.958794761657287 7.892888151377341e-05
    vertex 11.140519529534496 8.177110171089707 9.713986594661606e-07
  endloop
endfacet
facet normal -1.1309313014959995e-05 -2.0657899767311366e-05 -0.9999999997226754
  outer loop
    vertex 9.333781319590665 3.6964202470137195 7.892889691643034e-05
    vertex 11.140519529534496 8.177110171089707 9.713986594661606e-07
    vertex 11.766828387648403 6.080119916148856 3.6386148162481646e-05
  endloop
endfacet
facet normal -1.1309313014959995e-05 -2.0657899767311366e-05 -0.9999999997226754
  outer loop
    vertex 11.766828387648403 6.080119916148856 3.6386148162481646e-05
    vertex 11.140519529534496 8.177110171089707 9.713986594661606e-07
    vertex 11.578521535711088 8.17405229053214 2.5046333740767123e-30
  endloop
endfacet
facet normal -1.1309313014959995e-05 -2.0657899767311366e-05 -0.9999999997226754
  outer loop
    vertex 11.766828387648403 6.080119916148856 3.6386148162481646e-05
    vertex 11.578521535711088 8.17405229053214 2.5046333740767123e-30
    vertex 12.021020947405427 7.9002913460355595 2.5168049932133837e-06
  endloop
endfacet
facet normal -1.1309313014959995e-05 -2.0657899767311366e-05 -0.9999999997226754
  outer loop
    vertex 11.766828387648403 6.080119916148856 3.6386148162481646e-05
    vertex 12.021020947405427 7.9002913460355595 2.5168049932133837e-06
    vertex 12.138050986107206 6.95494205450404 1.987677616219763e-05
  endloop
endfacet
facet normal -1.1309313014959995e-05 -2.0657899767311366e-05 -0.9999999997226754
  outer loop
    vertex 12.138050986107206 6.95494205450404 1.987677616219763e-05
    vertex 12.021020947405427 7.9002913460355595 2.5168049932133837e-06
    vertex 12.141643970993298 7.469590894223791 9.795547080893027e-06
  endloop
endfacet
facet normal -0.3682427453928008 0.9297296809807162 -2.7732085979465062e-05
  outer loop
    vertex 0.018419422926970953 2.618687118808385 0.00023071809241616002
    vertex 2.0111616085797963 3.4079191626485694 2.051290819651813
    vertex 2.3721134895945832 3.5508674283031625 2.0001702869261413
  endloop
endfacet
facet normal -0.3682427453928008 0.9297296809807162 -2.7732085979465062e-05
  outer loop
    vertex 2.0111616085797963 3.4079191626485694 2.051290819651813
    vertex 0.018419422926970953 2.618687118808385 0.00023071809241616002
    vertex 1.6748091332969277 3.274716359057861 2.201150091686022
  endloop
endfacet
facet normal -0.3682427453928008 0.9297296809807162 -2.7732085979465062e-05
  outer loop
    vertex 1.6748091332969277 3.274716359057861 2.201150091686022
    vertex 0.018419422926970953 2.618687118808385 0.00023071809241616002
    vertex 1.3859779290878236 3.160336568467696 2.439535441293796
  endloop
endfacet
facet normal -0.3682427453928008 0.9297296809807162 -2.7732085979465062e-05
  outer loop
    vertex 1.3859779290878236 3.160336568467696 2.439535441293796
    vertex 0.018419422926970953 2.618687118808385 0.00023071809241616002
    vertex 1.1643513652031745 3.0725745845852583 2.750201300849785
  endloop
endfacet
facet normal -0.3682427453928008 0.9297296809807162 -2.7732085979465062e-05
  outer loop
    vertex 1.1643513652031745 3.0725745845852583 2.750201300849785
    vertex 0.018419422926970953 2.618687118808385 0.00023071809241616002
    vertex 1.0250329257165263 3.017411241578604 3.111976305424857
  endloop
endfacet
facet normal -0.3682427453928008 0.9297296809807162 -2.7732085979465062e-05
  outer loop
    vertex 1.0250329257165263 3.017411241578604 3.111976305424857
    vertex 0.018419422926970953 2.618687118808385 0.00023071809241616002
    vertex 0.9775169320442254 2.9986058301118894 3.5002060863186797
  endloop
endfacet
facet normal -0.3682427453928008 0.9297296809807162 -2.7732085979465062e-05
  outer loop
    vertex 0.9775169320442254 2.9986058301118894 3.5002060863186797
    vertex 0.018419422926970953 2.618687118808385 0.00023071809241616002
    vertex 0.018648674473513337 2.6190956660153737 25.99989260009602
  endloop
endfacet
facet normal -0.3682427453928008 0.9297296809807162 -2.7732085979465062e-05
  outer loop
    vertex 0.9775169320442254 2.9986058301118894 3.5002060863186797
    vertex 0.018648674473513337 2.6190956660153737 25.99989260009602
    vertex 1.0250415206312316 3.0174399078991816 3.8884334255433908
  endloop
endfacet
facet normal -0.3682427453928008 0.9297296809807162 -2.7732085979465062e-05
  outer loop
    vertex 1.0250415206312316 3.0174399078991816 3.8884334255433908
    vertex 0.018648674473513337 2.6190956660153737 25.99989260009602
    vertex 1.1643679693034044 3.072629963664036 4.2502012715068345
  endloop
endfacet
facet normal -0.3682427453928008 0.9297296809807162 -2.7732085979465062e-05
  outer loop
    vertex 1.1643679693034044 3.072629963664036 4.2502012715068345
    vertex 0.018648674473513337 2.6190956660153737 25.99989260009602
    vertex 1.3860014108316445 3.1604148863119974 4.560855743356237
  endloop
endfacet
facet normal -0.3682427453928008 0.9297296809807162 -2.7732085979465062e-05
  outer loop
    vertex 1.3860014108316445 3.1604148863119974 4.560855743356237
    vertex 0.018648674473513337 2.6190956660153737 25.99989260009602
    vertex 1.674837892442201 3.2748122784359914 4.799226252215855
  endloop
endfacet
facet normal -0.3682427453928008 0.9297296809807162 -2.7732085979465062e-05
  outer loop
    vertex 1.674837892442201 3.2748122784359914 4.799226252215855
    vertex 0.018648674473513337 2.6190956660153737 25.99989260009602
    vertex 2.0111936852383168 3.4080261468134423 4.949068241832795
  endloop
endfacet
facet normal -0.3682427453928008 0.9297296809807162 -2.7732085979465062e-05
  outer loop
    vertex 2.0111936852383168 3.4080261468134423 4.949068241832795
    vertex 0.018648674473513337 2.6190956660153737 25.99989260009602
    vertex 2.372146697795139 3.5509781864607404 5.000170228240247
  endloop
endfacet
facet normal -0.3682427453928008 0.9297296809807162 -2.7732085979465062e-05
  outer loop
    vertex 2.372146697795139 3.5509781864607404 5.000170228240247
    vertex 0.018648674473513337 2.6190956660153737 25.99989260009602
    vertex 1.0249750634949435 3.0178557010905123 22.111637595401522
  endloop
endfacet
facet normal -0.3682427453928008 0.9297296809807162 -2.7732085979465062e-05
  outer loop
    vertex 2.372146697795139 3.5509781864607404 5.000170228240247
    vertex 1.0249750634949435 3.0178557010905123 22.111637595401522
    vertex 1.1642933261511097 3.0730189740631864 21.749862506301422
  endloop
endfacet
facet normal -0.3682427453928008 0.9297296809807162 -2.7732085979465062e-05
  outer loop
    vertex 2.372146697795139 3.5509781864607404 5.000170228240247
    vertex 1.1642933261511097 3.0730189740631864 21.749862506301422
    vertex 1.38591973957092 3.160780898351859 21.43919651587467
  endloop
endfacet
facet normal -0.3682427453928008 0.9297296809807162 -2.7732085979465062e-05
  outer loop
    vertex 2.372146697795139 3.5509781864607404 5.000170228240247
    vertex 1.38591973957092 3.160780898351859 21.43919651587467
    vertex 1.674750829934661 3.2751606438496994 21.200810997969068
  endloop
endfacet
facet normal -0.3682427453928008 0.9297296809807162 -2.7732085979465062e-05
  outer loop
    vertex 2.372146697795139 3.5509781864607404 5.000170228240247
    vertex 1.674750829934661 3.2751606438496994 21.200810997969068
    vertex 2.0111032357500016 3.408363419922464 21.05095153167915
  endloop
endfacet
facet normal -0.3682427453928008 0.9297296809807162 -2.7732085979465062e-05
  outer loop
    vertex 2.372146697795139 3.5509781864607404 5.000170228240247
    vertex 2.0111032357500016 3.408363419922464 21.05095153167915
    vertex 2.3720550964093565 3.5513116775088176 20.999830791978106
  endloop
endfacet
facet normal -0.3682427453928008 0.9297296809807162 -2.7732085979465062e-05
  outer loop
    vertex 1.0249750634949435 3.0178557010905123 22.111637595401522
    vertex 0.018648674473513337 2.6190956660153737 25.99989260009602
    vertex 0.9774592609680134 2.9990503653252905 22.49986740871442
  endloop
endfacet
facet normal -0.3682427453928008 0.9297296809807162 -2.7732085979465062e-05
  outer loop
    vertex 0.9774592609680134 2.9990503653252905 22.49986740871442
    vertex 0.018648674473513337 2.6190956660153737 25.99989260009602
    vertex 1.024984041988985 3.0178845193226334 22.888094726042947
  endloop
endfacet
facet normal -0.3682427453928008 0.9297296809807162 -2.7732085979465062e-05
  outer loop
    vertex 1.024984041988985 3.0178845193226334 22.888094726042947
    vertex 0.018648674473513337 2.6190956660153737 25.99989260009602
    vertex 1.1643106712697013 3.073074646612548 23.249862497287133
  endloop
endfacet
facet normal -0.3682427453928008 0.9297296809807162 -2.7732085979465062e-05
  outer loop
    vertex 1.1643106712697013 3.073074646612548 23.249862497287133
    vertex 0.018648674473513337 2.6190956660153737 25.99989260009602
    vertex 1.3859442692728001 3.160859631226216 23.56051684668619
  endloop
endfacet
facet normal -0.3682427453928008 0.9297296809807162 -2.7732085979465062e-05
  outer loop
    vertex 1.3859442692728001 3.160859631226216 23.56051684668619
    vertex 0.018648674473513337 2.6190956660153737 25.99989260009602
    vertex 1.6747808725613065 3.2752570715337535 23.798887193709174
  endloop
endfacet
facet normal -0.3682427453928008 0.9297296809807162 -2.7732085979465062e-05
  outer loop
    vertex 1.6747808725613065 3.2752570715337535 23.798887193709174
    vertex 0.018648674473513337 2.6190956660153737 25.99989260009602
    vertex 2.0111367439460133 3.4084709710289314 23.948728993132086
  endloop
endfacet
facet normal -0.3682427453928008 0.9297296809807162 -2.7732085979465062e-05
  outer loop
    vertex 2.0111367439460133 3.4084709710289314 23.948728993132086
    vertex 0.018648674473513337 2.6190956660153737 25.99989260009602
    vertex 2.3720897866464496 3.551423022607524 23.99983077394953
  endloop
endfacet
facet normal -0.3682427453928008 0.9297296809807162 -2.7732085979465062e-05
  outer loop
    vertex 2.3720897866464496 3.551423022607524 23.99983077394953
    vertex 0.018648674473513337 2.6190956660153737 25.99989260009602
    vertex 5.925346135454529 4.9590491313727 25.999737450738397
  endloop
endfacet
facet normal -0.3682427453928008 0.9297296809807162 -2.7732085979465062e-05
  outer loop
    vertex 5.927817701756802 4.958794761657287 7.892888151377341e-05
    vertex 3.766743255345502 4.103239784652002 3.5001344288477045
    vertex 5.925346135454529 4.9590491313727 25.999737450738397
  endloop
endfacet
facet normal -0.3682427453928008 0.9297296809807162 -2.7732085979465062e-05
  outer loop
    vertex 3.766743255345502 4.103239784652002 3.5001344288477045
    vertex 5.927817701756802 4.958794761657287 7.892888151377341e-05
    vertex 3.719218666758496 4.08440570686471 3.1119070896229912
  endloop
endfacet
facet normal -0.3682427453928008 0.9297296809807162 -2.7732085979465062e-05
  outer loop
    vertex 3.719218666758496 4.08440570686471 3.1119070896229912
    vertex 5.927817701756802 4.958794761657287 7.892888151377341e-05
    vertex 3.5798922180863233 4.029215651099856 2.7501392436595506
  endloop
endfacet
facet normal -0.3682427453928008 0.9297296809807162 -2.7732085979465062e-05
  outer loop
    vertex 3.5798922180863233 4.029215651099856 2.7501392436595506
    vertex 5.927817701756802 4.958794761657287 7.892888151377341e-05
    vertex 3.3582587765581735 3.9414307284519166 2.439484771810148
  endloop
endfacet
facet normal -0.3682427453928008 0.9297296809807162 -2.7732085979465062e-05
  outer loop
    vertex 3.3582587765581735 3.9414307284519166 2.439484771810148
    vertex 5.927817701756802 4.958794761657287 7.892888151377341e-05
    vertex 3.0694222949475267 3.8270333363279114 2.201114262950527
  endloop
endfacet
facet normal -0.3682427453928008 0.9297296809807162 -2.7732085979465062e-05
  outer loop
    vertex 3.0694222949475267 3.8270333363279114 2.201114262950527
    vertex 5.927817701756802 4.958794761657287 7.892888151377341e-05
    vertex 0.018419422926970953 2.618687118808385 0.00023071809241616002
  endloop
endfacet
facet normal -0.3682427453928008 0.9297296809807162 -2.7732085979465062e-05
  outer loop
    vertex 3.0694222949475267 3.8270333363279114 2.201114262950527
    vertex 0.018419422926970953 2.618687118808385 0.00023071809241616002
    vertex 2.7330665021514107 3.69381946795046 2.0512722733335953
  endloop
endfacet
facet normal -0.3682427453928008 0.9297296809807162 -2.7732085979465062e-05
  outer loop
    vertex 2.7330665021514107 3.69381946795046 2.0512722733335953
    vertex 0.018419422926970953 2.618687118808385 0.00023071809241616002
    vertex 2.3721134895945832 3.5508674283031625 2.0001702869261413
  endloop
endfacet
facet normal -0.3682427453928008 0.9297296809807162 -2.7732085979465062e-05
  outer loop
    vertex 5.925346135454529 4.9590491313727 25.999737450738397
    vertex 3.766743255345502 4.103239784652002 3.5001344288477045
    vertex 3.7192272616732858 4.084434373185299 3.8883642097415256
  endloop
endfacet
facet normal -0.3682427453928008 0.9297296809807162 -2.7732085979465062e-05
  outer loop
    vertex 5.925346135454529 4.9590491313727 25.999737450738397
    vertex 3.7192272616732858 4.084434373185299 3.8883642097415256
    vertex 3.579908822186553 4.029271030178644 4.2501392143166
  endloop
endfacet
facet normal -0.3682427453928008 0.9297296809807162 -2.7732085979465062e-05
  outer loop
    vertex 5.925346135454529 4.9590491313727 25.999737450738397
    vertex 3.579908822186553 4.029271030178644 4.2501392143166
    vertex 3.358282258301994 3.941509046296207 4.560805073872589
  endloop
endfacet
facet normal -0.3682427453928008 0.9297296809807162 -2.7732085979465062e-05
  outer loop
    vertex 5.925346135454529 4.9590491313727 25.999737450738397
    vertex 3.358282258301994 3.941509046296207 4.560805073872589
    vertex 3.0694510540928 3.827129255706042 4.799190423480366
  endloop
endfacet
facet normal -0.3682427453928008 0.9297296809807162 -2.7732085979465062e-05
  outer loop
    vertex 5.925346135454529 4.9590491313727 25.999737450738397
    vertex 3.0694510540928 3.827129255706042 4.799190423480366
    vertex 2.7330985788100213 3.6939264521153334 4.949049695514578
  endloop
endfacet
facet normal -0.3682427453928008 0.9297296809807162 -2.7732085979465062e-05
  outer loop
    vertex 5.925346135454529 4.9590491313727 25.999737450738397
    vertex 2.7330985788100213 3.6939264521153334 4.949049695514578
    vertex 2.372146697795139 3.5509781864607404 5.000170228240247
  endloop
endfacet
facet normal -0.3682427453928008 0.9297296809807162 -2.7732085979465062e-05
  outer loop
    vertex 5.925346135454529 4.9590491313727 25.999737450738397
    vertex 2.372146697795139 3.5509781864607404 5.000170228240247
    vertex 3.579834211786105 4.029660053503793 21.749799068640506
  endloop
endfacet
facet normal -0.3682427453928008 0.9297296809807162 -2.7732085979465062e-05
  outer loop
    vertex 3.579834211786105 4.029660053503793 21.749799068640506
    vertex 2.372146697795139 3.5509781864607404 5.000170228240247
    vertex 3.358200613783012 3.9418750688901256 21.439144719241444
  endloop
endfacet
facet normal -0.3682427453928008 0.9297296809807162 -2.7732085979465062e-05
  outer loop
    vertex 3.358200613783012 3.9418750688901256 21.439144719241444
    vertex 2.372146697795139 3.5509781864607404 5.000170228240247
    vertex 3.0693640104945903 3.8274776285825713 21.200774372218458
  endloop
endfacet
facet normal -0.3682427453928008 0.9297296809807162 -2.7732085979465062e-05
  outer loop
    vertex 3.0693640104945903 3.8274776285825713 21.200774372218458
    vertex 2.372146697795139 3.5509781864607404 5.000170228240247
    vertex 2.733008139109883 3.694263729087399 21.050932572795546
  endloop
endfacet
facet normal -0.3682427453928008 0.9297296809807162 -2.7732085979465062e-05
  outer loop
    vertex 2.733008139109883 3.694263729087399 21.050932572795546
    vertex 2.372146697795139 3.5509781864607404 5.000170228240247
    vertex 2.3720550964093565 3.5513116775088176 20.999830791978106
  endloop
endfacet
facet normal -0.3682427453928008 0.9297296809807162 -2.7732085979465062e-05
  outer loop
    vertex 5.925346135454529 4.9590491313727 25.999737450738397
    vertex 3.579834211786105 4.029660053503793 21.749799068640506
    vertex 3.719160841066821 4.084850180793697 22.11156683988469
  endloop
endfacet
facet normal -0.3682427453928008 0.9297296809807162 -2.7732085979465062e-05
  outer loop
    vertex 5.925346135454529 4.9590491313727 25.999737450738397
    vertex 3.719160841066821 4.084850180793697 22.11156683988469
    vertex 3.7666856220878833 4.103684334791051 22.499794157213213
  endloop
endfacet
facet normal -0.3682427453928008 0.9297296809807162 -2.7732085979465062e-05
  outer loop
    vertex 5.925346135454529 4.9590491313727 25.999737450738397
    vertex 3.7666856220878833 4.103684334791051 22.499794157213213
    vertex 3.7191698195609533 4.084878999025818 22.88802397052611
  endloop
endfacet
facet normal -0.3682427453928008 0.9297296809807162 -2.7732085979465062e-05
  outer loop
    vertex 5.925346135454529 4.9590491313727 25.999737450738397
    vertex 3.7191698195609533 4.084878999025818 22.88802397052611
    vertex 3.5798515569046967 4.029715726053133 23.249799059626216
  endloop
endfacet
facet normal -0.3682427453928008 0.9297296809807162 -2.7732085979465062e-05
  outer loop
    vertex 5.925346135454529 4.9590491313727 25.999737450738397
    vertex 3.5798515569046967 4.029715726053133 23.249799059626216
    vertex 3.3582251434849764 3.9419538017644604 23.560465050052954
  endloop
endfacet
facet normal -0.3682427453928008 0.9297296809807162 -2.7732085979465062e-05
  outer loop
    vertex 5.925346135454529 4.9590491313727 25.999737450738397
    vertex 3.3582251434849764 3.9419538017644604 23.560465050052954
    vertex 3.069394053121151 3.827574056266648 23.79885056795857
  endloop
endfacet
facet normal -0.3682427453928008 0.9297296809807162 -2.7732085979465062e-05
  outer loop
    vertex 5.925346135454529 4.9590491313727 25.999737450738397
    vertex 3.069394053121151 3.827574056266648 23.79885056795857
    vertex 2.733041647305805 3.694371280193866 23.94871003424849
  endloop
endfacet
facet normal -0.3682427453928008 0.9297296809807162 -2.7732085979465062e-05
  outer loop
    vertex 5.925346135454529 4.9590491313727 25.999737450738397
    vertex 2.733041647305805 3.694371280193866 23.94871003424849
    vertex 2.3720897866464496 3.551423022607524 23.99983077394953
  endloop
endfacet
endsolid Shroud_v2.5_Wire_Path
