solid Shroud_v2.5_Heat_Shield
facet normal -4.1648735742446335e-14 1.0 -4.510372191347425e-12
  outer loop
    vertex 26.99999999999968 24.99682927415543 0.8124999998799965
    vertex 20.999999999999645 24.99682927415146 -1.1901210295039986e-10
    vertex 20.99999999999757 24.996829274154887 0.8124999998790293
  endloop
endfacet
facet normal -4.1648735742446335e-14 1.0 -4.510372191347425e-12
  outer loop
    vertex 20.999999999999645 24.99682927415146 -1.1901210295039986e-10
    vertex 26.99999999999968 24.99682927415543 0.8124999998799965
    vertex 26.99999999999968 24.996829274151526 -1.19254620067899e-10
  endloop
endfacet
facet normal 0.0 1.0 -4.550481773663509e-12
  outer loop
    vertex 20.99999999999994 3.996829274155152 0.81249999997205
    vertex 10.99999999999998 3.9968292741513363 -2.7447967509974802e-11
    vertex 10.99999999999998 3.996829274155032 0.8124999999707726
  endloop
endfacet
facet normal 0.0 1.0 -4.550481773663509e-12
  outer loop
    vertex 10.99999999999998 3.9968292741513363 -2.7447967509974802e-11
    vertex 20.99999999999994 3.996829274155152 0.81249999997205
    vertex 20.99999999999994 3.996829274151456 -2.6167702726898056e-11
  endloop
endfacet
facet normal -1.0 -1.0377476656320344e-13 -1.2772278960978843e-12
  outer loop
    vertex 20.99999999999757 24.996829274154887 0.8124999998790293
    vertex 20.99999999999994 3.996829274151456 -2.6167702726898056e-11
    vertex 20.99999999999994 3.996829274155152 0.81249999997205
  endloop
endfacet
facet normal -1.0 -1.0377476656320344e-13 -1.2772278960978843e-12
  outer loop
    vertex 20.99999999999994 3.996829274151456 -2.6167702726898056e-11
    vertex 20.99999999999757 24.996829274154887 0.8124999998790293
    vertex 20.999999999999645 24.99682927415146 -1.1901210295039986e-10
  endloop
endfacet
facet normal 1.0 1.6919798895504686e-14 -8.124740805249099e-26
  outer loop
    vertex 26.999999999999837 14.993665061683533 -7.051220440867922e-11
    vertex 26.99999999999968 24.99682927415543 0.8124999998799965
    vertex 26.999999999999837 14.993665061687436 0.8124999999287249
  endloop
endfacet
facet normal 1.0 1.6919798895504686e-14 -8.124740805249099e-26
  outer loop
    vertex 26.99999999999968 24.99682927415543 0.8124999998799965
    vertex 26.999999999999837 14.993665061683533 -7.051220440867922e-11
    vertex 26.99999999999968 24.996829274151526 -1.19254620067899e-10
  endloop
endfacet
facet normal 5.809130954062929e-14 1.0 -4.22423334368388e-12
  outer loop
    vertex 11.00000000000474 24.996829274154177 0.8124999998813939
    vertex 5.865530283699627e-13 24.996829274151562 -1.1625417573046802e-10
    vertex 5.865530283699627e-13 24.996829274155576 0.8124999998837401
  endloop
endfacet
facet normal 5.809130954062929e-14 1.0 -4.22423334368388e-12
  outer loop
    vertex 5.865530283699627e-13 24.996829274151562 -1.1625417573046802e-10
    vertex 11.00000000000474 24.996829274154177 0.8124999998813939
    vertex 11.00000000000059 24.996829274151334 -1.1469191429913649e-10
  endloop
endfacet
facet normal -1.691979889550469e-14 1.0 -4.871327901107755e-12
  outer loop
    vertex 31.99999999999985 14.993665061687576 0.812499999928928
    vertex 26.999999999999837 14.993665061683533 -7.051220440867922e-11
    vertex 26.999999999999837 14.993665061687436 0.8124999999287249
  endloop
endfacet
facet normal -1.691979889550469e-14 1.0 -4.871327901107755e-12
  outer loop
    vertex 26.999999999999837 14.993665061683533 -7.051220440867922e-11
    vertex 31.99999999999985 14.993665061687576 0.812499999928928
    vertex 31.99999999999985 14.993665061683561 -7.105363797332841e-11
  endloop
endfacet
facet normal -1.0 0.0 0.0
  outer loop
    vertex 5.865530283699627e-13 24.996829274155576 0.8124999998837401
    vertex 0.0 1.279021849166806e-15 1.4099832412739487e-15
    vertex 0.0 4.015632271148206e-12 0.8125000000000098
  endloop
endfacet
facet normal -1.0 0.0 0.0
  outer loop
    vertex 0.0 1.279021849166806e-15 1.4099832412739487e-15
    vertex 5.865530283699627e-13 24.996829274155576 0.8124999998837401
    vertex 5.865530283699627e-13 24.996829274151562 -1.1625417573046802e-10
  endloop
endfacet
facet normal 1.0 0.0 0.0
  outer loop
    vertex 31.999999999999964 1.279021849166806e-15 1.4099832412739487e-15
    vertex 31.99999999999985 14.993665061687576 0.812499999928928
    vertex 31.999999999999964 4.015632271148206e-12 0.8125000000000098
  endloop
endfacet
facet normal 1.0 0.0 0.0
  outer loop
    vertex 31.99999999999985 14.993665061687576 0.812499999928928
    vertex 31.999999999999964 1.279021849166806e-15 1.4099832412739487e-15
    vertex 31.99999999999985 14.993665061683561 -7.105363797332841e-11
  endloop
endfacet
facet normal -1.0574874309554463e-14 -4.841828805092678e-12 -1.0
  outer loop
    vertex 0.0 1.279021849166806e-15 1.4099832412739487e-15
    vertex 10.99999999999998 3.9968292741513363 -2.7447967509974802e-11
    vertex 31.999999999999964 1.279021849166806e-15 1.4099832412739487e-15
  endloop
endfacet
facet normal -1.0574874309554463e-14 -4.841828805092678e-12 -1.0
  outer loop
    vertex 10.99999999999998 3.9968292741513363 -2.7447967509974802e-11
    vertex 0.0 1.279021849166806e-15 1.4099832412739487e-15
    vertex 5.865530283699627e-13 24.996829274151562 -1.1625417573046802e-10
  endloop
endfacet
facet normal -1.0574874309554463e-14 -4.841828805092678e-12 -1.0
  outer loop
    vertex 10.99999999999998 3.9968292741513363 -2.7447967509974802e-11
    vertex 5.865530283699627e-13 24.996829274151562 -1.1625417573046802e-10
    vertex 11.00000000000059 24.996829274151334 -1.1469191429913649e-10
  endloop
endfacet
facet normal -1.0574874309554463e-14 -4.841828805092678e-12 -1.0
  outer loop
    vertex 20.999999999999645 24.99682927415146 -1.1901210295039986e-10
    vertex 26.999999999999837 14.993665061683533 -7.051220440867922e-11
    vertex 20.99999999999994 3.996829274151456 -2.6167702726898056e-11
  endloop
endfacet
facet normal -1.0574874309554463e-14 -4.841828805092678e-12 -1.0
  outer loop
    vertex 26.999999999999837 14.993665061683533 -7.051220440867922e-11
    vertex 20.999999999999645 24.99682927415146 -1.1901210295039986e-10
    vertex 26.99999999999968 24.996829274151526 -1.19254620067899e-10
  endloop
endfacet
facet normal -1.0574874309554463e-14 -4.841828805092678e-12 -1.0
  outer loop
    vertex 31.999999999999964 1.279021849166806e-15 1.4099832412739487e-15
    vertex 20.99999999999994 3.996829274151456 -2.6167702726898056e-11
    vertex 31.99999999999985 14.993665061683561 -7.105363797332841e-11
  endloop
endfacet
facet normal -1.0574874309554463e-14 -4.841828805092678e-12 -1.0
  outer loop
    vertex 20.99999999999994 3.996829274151456 -2.6167702726898056e-11
    vertex 31.999999999999964 1.279021849166806e-15 1.4099832412739487e-15
    vertex 10.99999999999998 3.9968292741513363 -2.7447967509974802e-11
  endloop
endfacet
facet normal -1.0574874309554463e-14 -4.841828805092678e-12 -1.0
  outer loop
    vertex 31.99999999999985 14.993665061683561 -7.105363797332841e-11
    vertex 20.99999999999994 3.996829274151456 -2.6167702726898056e-11
    vertex 26.999999999999837 14.993665061683533 -7.051220440867922e-11
  endloop
endfacet
facet normal 5.215006508752305e-16 4.901103433434696e-12 1.0
  outer loop
    vertex 31.999999999999964 4.015632271148206e-12 0.8125000000000098
    vertex 20.99999999999994 3.996829274155152 0.81249999997205
    vertex 0.0 4.015632271148206e-12 0.8125000000000098
  endloop
endfacet
facet normal 5.215006508752305e-16 4.901103433434696e-12 1.0
  outer loop
    vertex 20.99999999999994 3.996829274155152 0.81249999997205
    vertex 31.999999999999964 4.015632271148206e-12 0.8125000000000098
    vertex 31.99999999999985 14.993665061687576 0.812499999928928
  endloop
endfacet
facet normal 5.215006508752305e-16 4.901103433434696e-12 1.0
  outer loop
    vertex 0.0 4.015632271148206e-12 0.8125000000000098
    vertex 20.99999999999994 3.996829274155152 0.81249999997205
    vertex 10.99999999999998 3.996829274155032 0.8124999999707726
  endloop
endfacet
facet normal 5.215006508752305e-16 4.901103433434696e-12 1.0
  outer loop
    vertex 20.99999999999994 3.996829274155152 0.81249999997205
    vertex 31.99999999999985 14.993665061687576 0.812499999928928
    vertex 26.999999999999837 14.993665061687436 0.8124999999287249
  endloop
endfacet
facet normal 5.215006508752305e-16 4.901103433434696e-12 1.0
  outer loop
    vertex 26.999999999999837 14.993665061687436 0.8124999999287249
    vertex 20.99999999999757 24.996829274154887 0.8124999998790293
    vertex 20.99999999999994 3.996829274155152 0.81249999997205
  endloop
endfacet
facet normal 5.215006508752305e-16 4.901103433434696e-12 1.0
  outer loop
    vertex 20.99999999999757 24.996829274154887 0.8124999998790293
    vertex 26.999999999999837 14.993665061687436 0.8124999999287249
    vertex 26.99999999999968 24.99682927415543 0.8124999998799965
  endloop
endfacet
facet normal 5.215006508752305e-16 4.901103433434696e-12 1.0
  outer loop
    vertex 10.99999999999998 3.996829274155032 0.8124999999707726
    vertex 5.865530283699627e-13 24.996829274155576 0.8124999998837401
    vertex 0.0 4.015632271148206e-12 0.8125000000000098
  endloop
endfacet
facet normal 5.215006508752305e-16 4.901103433434696e-12 1.0
  outer loop
    vertex 5.865530283699627e-13 24.996829274155576 0.8124999998837401
    vertex 10.99999999999998 3.996829274155032 0.8124999999707726
    vertex 11.00000000000474 24.996829274154177 0.8124999998813939
  endloop
endfacet
facet normal 1.0 -2.098055063121694e-13 -2.554455792195834e-12
  outer loop
    vertex 10.99999999999998 3.9968292741513363 -2.7447967509974802e-11
    vertex 11.00000000000474 24.996829274154177 0.8124999998813939
    vertex 10.99999999999998 3.996829274155032 0.8124999999707726
  endloop
endfacet
facet normal 1.0 -2.098055063121694e-13 -2.554455792195834e-12
  outer loop
    vertex 11.00000000000474 24.996829274154177 0.8124999998813939
    vertex 10.99999999999998 3.9968292741513363 -2.7447967509974802e-11
    vertex 11.00000000000059 24.996829274151334 -1.1469191429913649e-10
  endloop
endfacet
facet normal 0.0 -1.0 4.9392033072556415e-12
  outer loop
    vertex 31.999999999999964 1.279021849166806e-15 1.4099832412739487e-15
    vertex 0.0 4.015632271148206e-12 0.8125000000000098
    vertex 0.0 1.279021849166806e-15 1.4099832412739487e-15
  endloop
endfacet
facet normal 0.0 -1.0 4.9392033072556415e-12
  outer loop
    vertex 0.0 4.015632271148206e-12 0.8125000000000098
    vertex 31.999999999999964 1.279021849166806e-15 1.4099832412739487e-15
    vertex 31.999999999999964 4.015632271148206e-12 0.8125000000000098
  endloop
endfacet
endsolid Shroud_v2.5_Heat_Shield
