solid roller-x4
facet normal 3.5716232086194917e-12 4.396350520141748e-27 -1.0
  outer loop
    vertex 0.4259271716295334 15.735238063781484 1.511502034645673e-12
    vertex 0.4259271716295419 9.26476193621845 1.511502034645673e-12
    vertex 2.4289217304129803e-10 12.499999999999988 0.0
  endloop
endfacet
facet normal 3.5716232086194917e-12 4.396350520141748e-27 -1.0
  outer loop
    vertex 0.4259271716295419 9.26476193621845 1.511502034645673e-12
    vertex 0.4259271716295334 15.735238063781484 1.511502034645673e-12
    vertex 1.6746824529374078 18.749999999999982 5.978328943001543e-12
  endloop
endfacet
facet normal 3.5716232086194917e-12 4.396350520141748e-27 -1.0
  outer loop
    vertex 0.4259271716295419 9.26476193621845 1.511502034645673e-12
    vertex 1.6746824529374078 18.749999999999982 5.978328943001543e-12
    vertex 1.6746824529374191 6.2499999999999805 5.978328943001543e-12
  endloop
endfacet
facet normal 3.5716232086194917e-12 4.396350520141748e-27 -1.0
  outer loop
    vertex 1.6746824529374191 6.2499999999999805 5.978328943001543e-12
    vertex 1.6746824529374078 18.749999999999982 5.978328943001543e-12
    vertex 3.661165235411037 21.338834764831827 1.3073364613092053e-11
  endloop
endfacet
facet normal 3.5716232086194917e-12 4.396350520141748e-27 -1.0
  outer loop
    vertex 1.6746824529374191 6.2499999999999805 5.978328943001543e-12
    vertex 3.661165235411037 21.338834764831827 1.3073364613092053e-11
    vertex 3.661165235411051 3.661165235168156 1.3073364613092053e-11
  endloop
endfacet
facet normal 3.5716232086194917e-12 4.396350520141748e-27 -1.0
  outer loop
    vertex 3.661165235411051 3.661165235168156 1.3073364613092053e-11
    vertex 3.661165235411037 21.338834764831827 1.3073364613092053e-11
    vertex 6.250000000242892 23.32531754730548 2.2322854675849157e-11
  endloop
endfacet
facet normal 3.5716232086194917e-12 4.396350520141748e-27 -1.0
  outer loop
    vertex 3.661165235411051 3.661165235168156 1.3073364613092053e-11
    vertex 6.250000000242892 23.32531754730548 2.2322854675849157e-11
    vertex 6.250000000242918 1.6746824526945128 2.2322854675849157e-11
  endloop
endfacet
facet normal 3.5716232086194917e-12 4.396350520141748e-27 -1.0
  outer loop
    vertex 6.250000000242918 1.6746824526945128 2.2322854675849157e-11
    vertex 6.250000000242892 23.32531754730548 2.2322854675849157e-11
    vertex 9.264761936461364 24.574072828613343 3.310640650511232e-11
  endloop
endfacet
facet normal 3.5716232086194917e-12 4.396350520141748e-27 -1.0
  outer loop
    vertex 6.250000000242918 1.6746824526945128 2.2322854675849157e-11
    vertex 9.264761936461364 24.574072828613343 3.310640650511232e-11
    vertex 8.5200000002429 12.499999999999988 3.042320839696799e-11
  endloop
endfacet
facet normal 3.5716232086194917e-12 4.396350520141748e-27 -1.0
  outer loop
    vertex 8.5200000002429 12.499999999999988 3.042320839696799e-11
    vertex 9.264761936461364 24.574072828613343 3.310640650511232e-11
    vertex 8.655615211612403 13.53009979950803 3.089696276603603e-11
  endloop
endfacet
facet normal 3.5716232086194917e-12 4.396350520141748e-27 -1.0
  outer loop
    vertex 8.655615211612403 13.53009979950803 3.089696276603603e-11
    vertex 9.264761936461364 24.574072828613343 3.310640650511232e-11
    vertex 9.053218893180825 14.489999999999968 3.231822587324017e-11
  endloop
endfacet
facet normal 3.5716232086194917e-12 4.396350520141748e-27 -1.0
  outer loop
    vertex 9.053218893180825 14.489999999999968 3.231822587324017e-11
    vertex 9.264761936461364 24.574072828613343 3.310640650511232e-11
    vertex 9.685715011120422 15.314284989122436 3.457419905927849e-11
  endloop
endfacet
facet normal 3.5716232086194917e-12 4.396350520141748e-27 -1.0
  outer loop
    vertex 9.685715011120422 15.314284989122436 3.457419905927849e-11
    vertex 9.264761936461364 24.574072828613343 3.310640650511232e-11
    vertex 12.500000000242881 24.999999999999993 4.464570935169831e-11
  endloop
endfacet
facet normal 3.5716232086194917e-12 4.396350520141748e-27 -1.0
  outer loop
    vertex 9.685715011120422 15.314284989122436 3.457419905927849e-11
    vertex 12.500000000242881 24.999999999999993 4.464570935169831e-11
    vertex 10.510000000242881 15.946781107062044 3.75069642011283e-11
  endloop
endfacet
facet normal 3.5716232086194917e-12 4.396350520141748e-27 -1.0
  outer loop
    vertex 10.510000000242881 15.946781107062044 3.75069642011283e-11
    vertex 12.500000000242881 24.999999999999993 4.464570935169831e-11
    vertex 11.469900200734852 16.344384788630478 4.0947323309836736e-11
  endloop
endfacet
facet normal 3.5716232086194917e-12 4.396350520141748e-27 -1.0
  outer loop
    vertex 11.469900200734852 16.344384788630478 4.0947323309836736e-11
    vertex 12.500000000242881 24.999999999999993 4.464570935169831e-11
    vertex 12.500000000242881 16.479999999999983 4.46245596030792e-11
  endloop
endfacet
facet normal 3.5716232086194917e-12 4.396350520141748e-27 -1.0
  outer loop
    vertex 12.500000000242881 16.479999999999983 4.46245596030792e-11
    vertex 12.500000000242881 24.999999999999993 4.464570935169831e-11
    vertex 15.73523806402439 24.574072828613357 5.6207571930144694e-11
  endloop
endfacet
facet normal 3.5716232086194917e-12 4.396350520141748e-27 -1.0
  outer loop
    vertex 12.500000000242881 16.479999999999983 4.46245596030792e-11
    vertex 15.73523806402439 24.574072828613357 5.6207571930144694e-11
    vertex 13.530099799750909 16.344384788630478 4.8313075762251856e-11
  endloop
endfacet
facet normal 3.5716232086194917e-12 4.396350520141748e-27 -1.0
  outer loop
    vertex 13.530099799750909 16.344384788630478 4.8313075762251856e-11
    vertex 15.73523806402439 24.574072828613357 5.6207571930144694e-11
    vertex 14.490000000242896 15.946781107062057 5.1730875139099906e-11
  endloop
endfacet
facet normal 3.5716232086194917e-12 4.396350520141748e-27 -1.0
  outer loop
    vertex 14.490000000242896 15.946781107062057 5.1730875139099906e-11
    vertex 15.73523806402439 24.574072828613357 5.6207571930144694e-11
    vertex 15.314284989365351 15.314284989122447 5.46749201468799e-11
  endloop
endfacet
facet normal 3.5716232086194917e-12 4.396350520141748e-27 -1.0
  outer loop
    vertex 15.314284989365351 15.314284989122447 5.46749201468799e-11
    vertex 15.73523806402439 24.574072828613357 5.6207571930144694e-11
    vertex 15.946781107304949 14.489999999999991 5.694217319884841e-11
  endloop
endfacet
facet normal 3.5716232086194917e-12 4.396350520141748e-27 -1.0
  outer loop
    vertex 15.946781107304949 14.489999999999991 5.694217319884841e-11
    vertex 15.73523806402439 24.574072828613357 5.6207571930144694e-11
    vertex 18.75000000024287 23.32531754730549 6.695728416161727e-11
  endloop
endfacet
facet normal 3.5716232086194917e-12 4.396350520141748e-27 -1.0
  outer loop
    vertex 15.946781107304949 14.489999999999991 5.694217319884841e-11
    vertex 18.75000000024287 23.32531754730549 6.695728416161727e-11
    vertex 16.344384788873395 13.53009979950803 5.836343630605256e-11
  endloop
endfacet
facet normal 3.5716232086194917e-12 4.396350520141748e-27 -1.0
  outer loop
    vertex 16.344384788873395 13.53009979950803 5.836343630605256e-11
    vertex 18.75000000024287 23.32531754730549 6.695728416161727e-11
    vertex 16.480000000242875 12.499999999999988 5.88371906751206e-11
  endloop
endfacet
facet normal 3.5716232086194917e-12 4.396350520141748e-27 -1.0
  outer loop
    vertex 8.5200000002429 12.499999999999988 3.042320839696799e-11
    vertex 9.264761936461397 0.42592717138663844 3.310640650511232e-11
    vertex 6.250000000242918 1.6746824526945128 2.2322854675849157e-11
  endloop
endfacet
facet normal 3.5716232086194917e-12 4.396350520141748e-27 -1.0
  outer loop
    vertex 9.264761936461397 0.42592717138663844 3.310640650511232e-11
    vertex 8.5200000002429 12.499999999999988 3.042320839696799e-11
    vertex 8.655615211612403 11.469900200491951 3.089696276603603e-11
  endloop
endfacet
facet normal 3.5716232086194917e-12 4.396350520141748e-27 -1.0
  outer loop
    vertex 9.264761936461397 0.42592717138663844 3.310640650511232e-11
    vertex 8.655615211612403 11.469900200491951 3.089696276603603e-11
    vertex 9.053218893180825 10.509999999999987 3.231822587324017e-11
  endloop
endfacet
facet normal 3.5716232086194917e-12 4.396350520141748e-27 -1.0
  outer loop
    vertex 9.264761936461397 0.42592717138663844 3.310640650511232e-11
    vertex 9.053218893180825 10.509999999999987 3.231822587324017e-11
    vertex 9.685715011120436 9.685715010877532 3.457419905927849e-11
  endloop
endfacet
facet normal 3.5716232086194917e-12 4.396350520141748e-27 -1.0
  outer loop
    vertex 9.264761936461397 0.42592717138663844 3.310640650511232e-11
    vertex 9.685715011120436 9.685715010877532 3.457419905927849e-11
    vertex 12.500000000242904 0.0 4.464570935169831e-11
  endloop
endfacet
facet normal 3.5716232086194917e-12 4.396350520141748e-27 -1.0
  outer loop
    vertex 12.500000000242904 0.0 4.464570935169831e-11
    vertex 9.685715011120436 9.685715010877532 3.457419905927849e-11
    vertex 10.5100000002429 9.053218892937913 3.75069642011283e-11
  endloop
endfacet
facet normal 3.5716232086194917e-12 4.396350520141748e-27 -1.0
  outer loop
    vertex 12.500000000242904 0.0 4.464570935169831e-11
    vertex 10.5100000002429 9.053218892937913 3.75069642011283e-11
    vertex 11.469900200734862 8.655615211369515 4.0947323309836736e-11
  endloop
endfacet
facet normal 3.5716232086194917e-12 4.396350520141748e-27 -1.0
  outer loop
    vertex 12.500000000242904 0.0 4.464570935169831e-11
    vertex 11.469900200734862 8.655615211369515 4.0947323309836736e-11
    vertex 12.500000000242894 8.519999999999985 4.46245596030792e-11
  endloop
endfacet
facet normal 3.5716232086194917e-12 4.396350520141748e-27 -1.0
  outer loop
    vertex 12.500000000242904 0.0 4.464570935169831e-11
    vertex 12.500000000242894 8.519999999999985 4.46245596030792e-11
    vertex 13.530099799750921 8.655615211369515 4.8313075762251856e-11
  endloop
endfacet
facet normal 3.5716232086194917e-12 4.396350520141748e-27 -1.0
  outer loop
    vertex 12.500000000242904 0.0 4.464570935169831e-11
    vertex 13.530099799750921 8.655615211369515 4.8313075762251856e-11
    vertex 15.735238064024433 0.42592717138666103 5.6207571930144694e-11
  endloop
endfacet
facet normal 3.5716232086194917e-12 4.396350520141748e-27 -1.0
  outer loop
    vertex 15.735238064024433 0.42592717138666103 5.6207571930144694e-11
    vertex 13.530099799750921 8.655615211369515 4.8313075762251856e-11
    vertex 14.490000000242896 9.053218892937934 5.1730875139099906e-11
  endloop
endfacet
facet normal 3.5716232086194917e-12 4.396350520141748e-27 -1.0
  outer loop
    vertex 15.735238064024433 0.42592717138666103 5.6207571930144694e-11
    vertex 14.490000000242896 9.053218892937934 5.1730875139099906e-11
    vertex 15.314284989365351 9.685715010877555 5.46749201468799e-11
  endloop
endfacet
facet normal 3.5716232086194917e-12 4.396350520141748e-27 -1.0
  outer loop
    vertex 15.735238064024433 0.42592717138666103 5.6207571930144694e-11
    vertex 15.314284989365351 9.685715010877555 5.46749201468799e-11
    vertex 15.946781107304949 10.51000000000001 5.694217319884841e-11
  endloop
endfacet
facet normal 3.5716232086194917e-12 4.396350520141748e-27 -1.0
  outer loop
    vertex 15.735238064024433 0.42592717138666103 5.6207571930144694e-11
    vertex 15.946781107304949 10.51000000000001 5.694217319884841e-11
    vertex 18.750000000242913 1.6746824526945128 6.695728416161727e-11
  endloop
endfacet
facet normal 3.5716232086194917e-12 4.396350520141748e-27 -1.0
  outer loop
    vertex 18.750000000242913 1.6746824526945128 6.695728416161727e-11
    vertex 15.946781107304949 10.51000000000001 5.694217319884841e-11
    vertex 16.344384788873395 11.469900200491951 5.836343630605256e-11
  endloop
endfacet
facet normal 3.5716232086194917e-12 4.396350520141748e-27 -1.0
  outer loop
    vertex 18.750000000242913 1.6746824526945128 6.695728416161727e-11
    vertex 16.344384788873395 11.469900200491951 5.836343630605256e-11
    vertex 16.480000000242875 12.499999999999988 5.88371906751206e-11
  endloop
endfacet
facet normal 3.5716232086194917e-12 4.396350520141748e-27 -1.0
  outer loop
    vertex 18.750000000242913 1.6746824526945128 6.695728416161727e-11
    vertex 16.480000000242875 12.499999999999988 5.88371906751206e-11
    vertex 18.75000000024287 23.32531754730549 6.695728416161727e-11
  endloop
endfacet
facet normal 3.5716232086194917e-12 4.396350520141748e-27 -1.0
  outer loop
    vertex 18.750000000242913 1.6746824526945128 6.695728416161727e-11
    vertex 18.75000000024287 23.32531754730549 6.695728416161727e-11
    vertex 21.338834765074736 21.338834764831848 7.620677422437437e-11
  endloop
endfacet
facet normal 3.5716232086194917e-12 4.396350520141748e-27 -1.0
  outer loop
    vertex 18.750000000242913 1.6746824526945128 6.695728416161727e-11
    vertex 21.338834765074736 21.338834764831848 7.620677422437437e-11
    vertex 21.338834765074736 3.661165235168156 7.620677422437437e-11
  endloop
endfacet
facet normal 3.5716232086194917e-12 4.396350520141748e-27 -1.0
  outer loop
    vertex 21.338834765074736 3.661165235168156 7.620677422437437e-11
    vertex 21.338834765074736 21.338834764831848 7.620677422437437e-11
    vertex 23.32531754754838 18.750000000000004 8.330180989446488e-11
  endloop
endfacet
facet normal 3.5716232086194917e-12 4.396350520141748e-27 -1.0
  outer loop
    vertex 21.338834765074736 3.661165235168156 7.620677422437437e-11
    vertex 23.32531754754838 18.750000000000004 8.330180989446488e-11
    vertex 23.32531754754838 6.250000000000025 8.330180989446488e-11
  endloop
endfacet
facet normal 3.5716232086194917e-12 4.396350520141748e-27 -1.0
  outer loop
    vertex 23.32531754754838 6.250000000000025 8.330180989446488e-11
    vertex 23.32531754754838 18.750000000000004 8.330180989446488e-11
    vertex 24.574072828856227 15.735238063781518 8.776863680282075e-11
  endloop
endfacet
facet normal 3.5716232086194917e-12 4.396350520141748e-27 -1.0
  outer loop
    vertex 23.32531754754838 6.250000000000025 8.330180989446488e-11
    vertex 24.574072828856227 15.735238063781518 8.776863680282075e-11
    vertex 24.574072828856274 9.264761936218497 8.776863680282075e-11
  endloop
endfacet
facet normal 3.5716232086194917e-12 4.396350520141748e-27 -1.0
  outer loop
    vertex 24.574072828856274 9.264761936218497 8.776863680282075e-11
    vertex 24.574072828856227 15.735238063781518 8.776863680282075e-11
    vertex 25.000000000242895 12.50000000000001 8.93026985693268e-11
  endloop
endfacet
facet normal -0.38268343236507896 -0.9238795325112913 -1.3668643939871732e-12
  outer loop
    vertex 14.490000000242896 15.946781107062057 5.1730875139099906e-11
    vertex 13.53009979950803 16.344384788630478 68.0000000000483
    vertex 13.530099799750909 16.344384788630478 4.8313075762251856e-11
  endloop
endfacet
facet normal -0.38268343236507896 -0.9238795325112913 -1.3668643939871732e-12
  outer loop
    vertex 13.53009979950803 16.344384788630478 68.0000000000483
    vertex 14.490000000242896 15.946781107062057 5.1730875139099906e-11
    vertex 14.490000000000014 15.946781107062057 68.00000000005171
  endloop
endfacet
facet normal -0.9238795325112771 0.3826834323651131 -3.2999113872736185e-12
  outer loop
    vertex 16.34438478863051 11.469900200491951 68.00000000005835
    vertex 15.946781107304949 10.51000000000001 5.694217319884841e-11
    vertex 15.946781107062067 10.51000000000001 68.00000000005693
  endloop
endfacet
facet normal -0.9238795325112771 0.3826834323651131 -3.2999113872736185e-12
  outer loop
    vertex 15.946781107304949 10.51000000000001 5.694217319884841e-11
    vertex 16.34438478863051 11.469900200491951 68.00000000005835
    vertex 16.344384788873395 11.469900200491951 5.836343630605256e-11
  endloop
endfacet
facet normal 0.38268343236508884 0.9238795325112873 1.3669355782004746e-12
  outer loop
    vertex 15.735238063781495 24.574072828613357 68.00000000005619
    vertex 18.75000000024287 23.32531754730549 6.695728416161727e-11
    vertex 15.73523806402439 24.574072828613357 5.6207571930144694e-11
  endloop
endfacet
facet normal 0.38268343236508884 0.9238795325112873 1.3669355782004746e-12
  outer loop
    vertex 18.75000000024287 23.32531754730549 6.695728416161727e-11
    vertex 15.735238063781495 24.574072828613357 68.00000000005619
    vertex 18.74999999999998 23.32531754730549 68.00000000006696
  endloop
endfacet
facet normal -0.7933533402912385 -0.6087614290087165 -2.8336819159897575e-12
  outer loop
    vertex 15.31428498912247 15.314284989122447 68.00000000005465
    vertex 15.946781107304949 14.489999999999991 5.694217319884841e-11
    vertex 15.946781107062067 14.489999999999991 68.00000000005693
  endloop
endfacet
facet normal -0.7933533402912385 -0.6087614290087165 -2.8336819159897575e-12
  outer loop
    vertex 15.946781107304949 14.489999999999991 5.694217319884841e-11
    vertex 15.31428498912247 15.314284989122447 68.00000000005465
    vertex 15.314284989365351 15.314284989122447 5.46749201468799e-11
  endloop
endfacet
facet normal 0.130526192220051 -0.9914448613738105 4.662078795192857e-13
  outer loop
    vertex 12.500000000242881 16.479999999999983 4.46245596030792e-11
    vertex 11.469900200491974 16.344384788630478 68.00000000004093
    vertex 11.469900200734852 16.344384788630478 4.0947323309836736e-11
  endloop
endfacet
facet normal 0.130526192220051 -0.9914448613738105 4.662078795192857e-13
  outer loop
    vertex 11.469900200491974 16.344384788630478 68.00000000004093
    vertex 12.500000000242881 16.479999999999983 4.46245596030792e-11
    vertex 12.5 16.479999999999983 68.0000000000446
  endloop
endfacet
facet normal 0.9238795325112873 0.38268343236508845 3.2999086319363305e-12
  outer loop
    vertex 23.32531754754838 18.750000000000004 8.330180989446488e-11
    vertex 24.57407282861336 15.735238063781518 68.00000000008777
    vertex 24.574072828856227 15.735238063781518 8.776863680282075e-11
  endloop
endfacet
facet normal 0.9238795325112873 0.38268343236508845 3.2999086319363305e-12
  outer loop
    vertex 24.57407282861336 15.735238063781518 68.00000000008777
    vertex 23.32531754754838 18.750000000000004 8.330180989446488e-11
    vertex 23.325317547305488 18.750000000000004 68.00000000008332
  endloop
endfacet
facet normal 0.9238795325112881 0.38268343236508695 3.2998541042222395e-12
  outer loop
    vertex 8.655615211612403 11.469900200491951 3.089696276603603e-11
    vertex 9.053218892937947 10.509999999999987 68.00000000003232
    vertex 9.053218893180825 10.509999999999987 3.231822587324017e-11
  endloop
endfacet
facet normal 0.9238795325112881 0.38268343236508695 3.2998541042222395e-12
  outer loop
    vertex 9.053218892937947 10.509999999999987 68.00000000003232
    vertex 8.655615211612403 11.469900200491951 3.089696276603603e-11
    vertex 8.655615211369525 11.469900200491951 68.0000000000309
  endloop
endfacet
facet normal -0.3826834323650831 0.9238795325112895 -1.3668603185687993e-12
  outer loop
    vertex 13.53009979950804 8.655615211369515 68.0000000000483
    vertex 14.490000000242896 9.053218892937934 5.1730875139099906e-11
    vertex 13.530099799750921 8.655615211369515 4.8313075762251856e-11
  endloop
endfacet
facet normal -0.3826834323650831 0.9238795325112895 -1.3668603185687993e-12
  outer loop
    vertex 14.490000000242896 9.053218892937934 5.1730875139099906e-11
    vertex 13.53009979950804 8.655615211369515 68.0000000000483
    vertex 14.490000000000014 9.053218892937934 68.00000000005171
  endloop
endfacet
facet normal -0.7933533402912384 0.6087614290087168 -2.8336819159897575e-12
  outer loop
    vertex 15.946781107062067 10.51000000000001 68.00000000005693
    vertex 15.314284989365351 9.685715010877555 5.46749201468799e-11
    vertex 15.31428498912247 9.685715010877555 68.00000000005465
  endloop
endfacet
facet normal -0.7933533402912384 0.6087614290087168 -2.8336819159897575e-12
  outer loop
    vertex 15.314284989365351 9.685715010877555 5.46749201468799e-11
    vertex 15.946781107062067 10.51000000000001 68.00000000005693
    vertex 15.946781107304949 10.51000000000001 5.694217319884841e-11
  endloop
endfacet
facet normal -0.9238795325112803 -0.3826834323651055 -3.2999113872736302e-12
  outer loop
    vertex 15.946781107062067 14.489999999999991 68.00000000005693
    vertex 16.344384788873395 13.53009979950803 5.836343630605256e-11
    vertex 16.34438478863051 13.53009979950803 68.00000000005835
  endloop
endfacet
facet normal -0.9238795325112803 -0.3826834323651055 -3.2999113872736302e-12
  outer loop
    vertex 16.344384788873395 13.53009979950803 5.836343630605256e-11
    vertex 15.946781107062067 14.489999999999991 68.00000000005693
    vertex 15.946781107304949 14.489999999999991 5.694217319884841e-11
  endloop
endfacet
facet normal -0.7933533402912331 -0.6087614290087234 -2.83374786893642e-12
  outer loop
    vertex 1.674682452694527 6.2499999999999805 68.00000000000598
    vertex 3.661165235411051 3.661165235168156 1.3073364613092053e-11
    vertex 3.6611652351681703 3.661165235168156 68.00000000001307
  endloop
endfacet
facet normal -0.7933533402912331 -0.6087614290087234 -2.83374786893642e-12
  outer loop
    vertex 3.661165235411051 3.661165235168156 1.3073364613092053e-11
    vertex 1.674682452694527 6.2499999999999805 68.00000000000598
    vertex 1.6746824529374191 6.2499999999999805 5.978328943001543e-12
  endloop
endfacet
facet normal -0.9914448613738136 -0.13052619222002804 -3.541241320835375e-12
  outer loop
    vertex 16.34438478863051 13.53009979950803 68.00000000005835
    vertex 16.480000000242875 12.499999999999988 5.88371906751206e-11
    vertex 16.479999999999993 12.499999999999988 68.00000000005882
  endloop
endfacet
facet normal -0.9914448613738136 -0.13052619222002804 -3.541241320835375e-12
  outer loop
    vertex 16.480000000242875 12.499999999999988 5.88371906751206e-11
    vertex 16.34438478863051 13.53009979950803 68.00000000005835
    vertex 16.344384788873395 13.53009979950803 5.836343630605256e-11
  endloop
endfacet
facet normal -0.6087614290087235 -0.7933533402912331 -2.174360344675795e-12
  outer loop
    vertex 15.314284989365351 15.314284989122447 5.46749201468799e-11
    vertex 14.490000000000014 15.946781107062057 68.00000000005171
    vertex 14.490000000242896 15.946781107062057 5.1730875139099906e-11
  endloop
endfacet
facet normal -0.6087614290087235 -0.7933533402912331 -2.174360344675795e-12
  outer loop
    vertex 14.490000000000014 15.946781107062057 68.00000000005171
    vertex 15.314284989365351 15.314284989122447 5.46749201468799e-11
    vertex 15.31428498912247 15.314284989122447 68.00000000005465
  endloop
endfacet
facet normal -0.6087614290087303 0.7933533402912277 -2.174360728715866e-12
  outer loop
    vertex 14.490000000000014 9.053218892937934 68.00000000005171
    vertex 15.314284989365351 9.685715010877555 5.46749201468799e-11
    vertex 14.490000000242896 9.053218892937934 5.1730875139099906e-11
  endloop
endfacet
facet normal -0.6087614290087303 0.7933533402912277 -2.174360728715866e-12
  outer loop
    vertex 15.314284989365351 9.685715010877555 5.46749201468799e-11
    vertex 14.490000000000014 9.053218892937934 68.00000000005171
    vertex 15.31428498912247 9.685715010877555 68.00000000005465
  endloop
endfacet
facet normal -0.1305261922200722 0.9914448613738077 -4.662118977572982e-13
  outer loop
    vertex 12.50000000000001 8.519999999999985 68.0000000000446
    vertex 13.530099799750921 8.655615211369515 4.8313075762251856e-11
    vertex 12.500000000242894 8.519999999999985 4.46245596030792e-11
  endloop
endfacet
facet normal -0.1305261922200722 0.9914448613738077 -4.662118977572982e-13
  outer loop
    vertex 13.530099799750921 8.655615211369515 4.8313075762251856e-11
    vertex 12.50000000000001 8.519999999999985 68.0000000000446
    vertex 13.53009979950804 8.655615211369515 68.0000000000483
  endloop
endfacet
facet normal -0.9914448613738136 0.13052619222002806 -3.541241260844052e-12
  outer loop
    vertex 16.479999999999993 12.499999999999988 68.00000000005882
    vertex 16.344384788873395 11.469900200491951 5.836343630605256e-11
    vertex 16.34438478863051 11.469900200491951 68.00000000005835
  endloop
endfacet
facet normal -0.9914448613738136 0.13052619222002806 -3.541241260844052e-12
  outer loop
    vertex 16.344384788873395 11.469900200491951 5.836343630605256e-11
    vertex 16.479999999999993 12.499999999999988 68.00000000005882
    vertex 16.480000000242875 12.499999999999988 5.88371906751206e-11
  endloop
endfacet
facet normal 0.7933533402912331 0.6087614290087235 2.8336823627685092e-12
  outer loop
    vertex 9.053218893180825 10.509999999999987 3.231822587324017e-11
    vertex 9.685715010877551 9.685715010877532 68.00000000003458
    vertex 9.685715011120436 9.685715010877532 3.457419905927849e-11
  endloop
endfacet
facet normal 0.7933533402912331 0.6087614290087235 2.8336823627685092e-12
  outer loop
    vertex 9.685715010877551 9.685715010877532 68.00000000003458
    vertex 9.053218893180825 10.509999999999987 3.231822587324017e-11
    vertex 9.053218892937947 10.509999999999987 68.00000000003232
  endloop
endfacet
facet normal -0.6087614290087229 0.7933533402912336 -2.174412356461112e-12
  outer loop
    vertex 3.661165235168156 21.338834764831827 68.00000000001307
    vertex 6.250000000242892 23.32531754730548 2.2322854675849157e-11
    vertex 3.661165235411037 21.338834764831827 1.3073364613092053e-11
  endloop
endfacet
facet normal -0.6087614290087229 0.7933533402912336 -2.174412356461112e-12
  outer loop
    vertex 6.250000000242892 23.32531754730548 2.2322854675849157e-11
    vertex 3.661165235168156 21.338834764831827 68.00000000001307
    vertex 6.25 23.32531754730548 68.00000000002233
  endloop
endfacet
facet normal -0.13052619222005296 0.9914448613738103 -4.662225585540028e-13
  outer loop
    vertex 9.264761936218482 24.574072828613343 68.00000000003311
    vertex 12.500000000242881 24.999999999999993 4.464570935169831e-11
    vertex 9.264761936461364 24.574072828613343 3.310640650511232e-11
  endloop
endfacet
facet normal -0.13052619222005296 0.9914448613738103 -4.662225585540028e-13
  outer loop
    vertex 12.500000000242881 24.999999999999993 4.464570935169831e-11
    vertex 9.264761936218482 24.574072828613343 68.00000000003311
    vertex 12.499999999999988 24.999999999999993 68.00000000004465
  endloop
endfacet
facet normal -3.5713584593734457e-12 -2.749909958016981e-17 1.0
  outer loop
    vertex 9.264761936218505 0.42592717138663844 68.00000000003311
    vertex 8.520000000000016 12.499999999999988 68.00000000003043
    vertex 6.250000000000036 1.6746824526945128 68.00000000002233
  endloop
endfacet
facet normal -3.5713584593734457e-12 -2.749909958016981e-17 1.0
  outer loop
    vertex 8.520000000000016 12.499999999999988 68.00000000003043
    vertex 9.264761936218505 0.42592717138663844 68.00000000003311
    vertex 8.655615211369525 11.469900200491951 68.0000000000309
  endloop
endfacet
facet normal -3.5713584593734457e-12 -2.749909958016981e-17 1.0
  outer loop
    vertex 8.655615211369525 11.469900200491951 68.0000000000309
    vertex 9.264761936218505 0.42592717138663844 68.00000000003311
    vertex 9.053218892937947 10.509999999999987 68.00000000003232
  endloop
endfacet
facet normal -3.5713584593734457e-12 -2.749909958016981e-17 1.0
  outer loop
    vertex 9.053218892937947 10.509999999999987 68.00000000003232
    vertex 9.264761936218505 0.42592717138663844 68.00000000003311
    vertex 9.685715010877551 9.685715010877532 68.00000000003458
  endloop
endfacet
facet normal -3.5713584593734457e-12 -2.749909958016981e-17 1.0
  outer loop
    vertex 9.685715010877551 9.685715010877532 68.00000000003458
    vertex 9.264761936218505 0.42592717138663844 68.00000000003311
    vertex 12.50000000000001 0.0 68.00000000004465
  endloop
endfacet
facet normal -3.5713584593734457e-12 -2.749909958016981e-17 1.0
  outer loop
    vertex 9.685715010877551 9.685715010877532 68.00000000003458
    vertex 12.50000000000001 0.0 68.00000000004465
    vertex 10.510000000000021 9.053218892937913 68.00000000003749
  endloop
endfacet
facet normal -3.5713584593734457e-12 -2.749909958016981e-17 1.0
  outer loop
    vertex 10.510000000000021 9.053218892937913 68.00000000003749
    vertex 12.50000000000001 0.0 68.00000000004465
    vertex 11.469900200491981 8.655615211369515 68.00000000004093
  endloop
endfacet
facet normal -3.5713584593734457e-12 -2.749909958016981e-17 1.0
  outer loop
    vertex 11.469900200491981 8.655615211369515 68.00000000004093
    vertex 12.50000000000001 0.0 68.00000000004465
    vertex 12.50000000000001 8.519999999999985 68.0000000000446
  endloop
endfacet
facet normal -3.5713584593734457e-12 -2.749909958016981e-17 1.0
  outer loop
    vertex 12.50000000000001 8.519999999999985 68.0000000000446
    vertex 12.50000000000001 0.0 68.00000000004465
    vertex 15.73523806378154 0.42592717138666103 68.00000000005619
  endloop
endfacet
facet normal -3.5713584593734457e-12 -2.749909958016981e-17 1.0
  outer loop
    vertex 12.50000000000001 8.519999999999985 68.0000000000446
    vertex 15.73523806378154 0.42592717138666103 68.00000000005619
    vertex 13.53009979950804 8.655615211369515 68.0000000000483
  endloop
endfacet
facet normal -3.5713584593734457e-12 -2.749909958016981e-17 1.0
  outer loop
    vertex 13.53009979950804 8.655615211369515 68.0000000000483
    vertex 15.73523806378154 0.42592717138666103 68.00000000005619
    vertex 14.490000000000014 9.053218892937934 68.00000000005171
  endloop
endfacet
facet normal -3.5713584593734457e-12 -2.749909958016981e-17 1.0
  outer loop
    vertex 14.490000000000014 9.053218892937934 68.00000000005171
    vertex 15.73523806378154 0.42592717138666103 68.00000000005619
    vertex 15.31428498912247 9.685715010877555 68.00000000005465
  endloop
endfacet
facet normal -3.5713584593734457e-12 -2.749909958016981e-17 1.0
  outer loop
    vertex 15.31428498912247 9.685715010877555 68.00000000005465
    vertex 15.73523806378154 0.42592717138666103 68.00000000005619
    vertex 15.946781107062067 10.51000000000001 68.00000000005693
  endloop
endfacet
facet normal -3.5713584593734457e-12 -2.749909958016981e-17 1.0
  outer loop
    vertex 15.946781107062067 10.51000000000001 68.00000000005693
    vertex 15.73523806378154 0.42592717138666103 68.00000000005619
    vertex 18.75000000000002 1.6746824526945128 68.00000000006696
  endloop
endfacet
facet normal -3.5713584593734457e-12 -2.749909958016981e-17 1.0
  outer loop
    vertex 15.946781107062067 10.51000000000001 68.00000000005693
    vertex 18.75000000000002 1.6746824526945128 68.00000000006696
    vertex 16.34438478863051 11.469900200491951 68.00000000005835
  endloop
endfacet
facet normal -3.5713584593734457e-12 -2.749909958016981e-17 1.0
  outer loop
    vertex 16.34438478863051 11.469900200491951 68.00000000005835
    vertex 18.75000000000002 1.6746824526945128 68.00000000006696
    vertex 16.479999999999993 12.499999999999988 68.00000000005882
  endloop
endfacet
facet normal -3.5713584593734457e-12 -2.749909958016981e-17 1.0
  outer loop
    vertex 16.479999999999993 12.499999999999988 68.00000000005882
    vertex 18.75000000000002 1.6746824526945128 68.00000000006696
    vertex 18.74999999999998 23.32531754730549 68.00000000006696
  endloop
endfacet
facet normal -3.5713584593734457e-12 -2.749909958016981e-17 1.0
  outer loop
    vertex 18.74999999999998 23.32531754730549 68.00000000006696
    vertex 18.75000000000002 1.6746824526945128 68.00000000006696
    vertex 21.338834764831844 21.338834764831848 68.00000000007621
  endloop
endfacet
facet normal -3.5713584593734457e-12 -2.749909958016981e-17 1.0
  outer loop
    vertex 21.338834764831844 21.338834764831848 68.00000000007621
    vertex 18.75000000000002 1.6746824526945128 68.00000000006696
    vertex 21.338834764831866 3.661165235168156 68.00000000007621
  endloop
endfacet
facet normal -3.5713584593734457e-12 -2.749909958016981e-17 1.0
  outer loop
    vertex 21.338834764831844 21.338834764831848 68.00000000007621
    vertex 21.338834764831866 3.661165235168156 68.00000000007621
    vertex 23.325317547305488 18.750000000000004 68.00000000008332
  endloop
endfacet
facet normal -3.5713584593734457e-12 -2.749909958016981e-17 1.0
  outer loop
    vertex 23.325317547305488 18.750000000000004 68.00000000008332
    vertex 21.338834764831866 3.661165235168156 68.00000000007621
    vertex 23.32531754730551 6.250000000000025 68.00000000008332
  endloop
endfacet
facet normal -3.5713584593734457e-12 -2.749909958016981e-17 1.0
  outer loop
    vertex 23.325317547305488 18.750000000000004 68.00000000008332
    vertex 23.32531754730551 6.250000000000025 68.00000000008332
    vertex 24.57407282861336 15.735238063781518 68.00000000008777
  endloop
endfacet
facet normal -3.5713584593734457e-12 -2.749909958016981e-17 1.0
  outer loop
    vertex 24.57407282861336 15.735238063781518 68.00000000008777
    vertex 23.32531754730551 6.250000000000025 68.00000000008332
    vertex 24.57407282861336 9.264761936218497 68.00000000008777
  endloop
endfacet
facet normal -3.5713584593734457e-12 -2.749909958016981e-17 1.0
  outer loop
    vertex 24.57407282861336 15.735238063781518 68.00000000008777
    vertex 24.57407282861336 9.264761936218497 68.00000000008777
    vertex 25.0 12.50000000000001 68.0000000000893
  endloop
endfacet
facet normal -3.5713584593734457e-12 -2.749909958016981e-17 1.0
  outer loop
    vertex 0.4259271713866497 9.26476193621845 68.00000000000152
    vertex 0.42592717138664127 15.735238063781484 68.00000000000152
    vertex 0.0 12.499999999999988 68.00000000000001
  endloop
endfacet
facet normal -3.5713584593734457e-12 -2.749909958016981e-17 1.0
  outer loop
    vertex 0.42592717138664127 15.735238063781484 68.00000000000152
    vertex 0.4259271713866497 9.26476193621845 68.00000000000152
    vertex 1.6746824526945157 18.749999999999982 68.00000000000598
  endloop
endfacet
facet normal -3.5713584593734457e-12 -2.749909958016981e-17 1.0
  outer loop
    vertex 1.6746824526945157 18.749999999999982 68.00000000000598
    vertex 0.4259271713866497 9.26476193621845 68.00000000000152
    vertex 1.674682452694527 6.2499999999999805 68.00000000000598
  endloop
endfacet
facet normal -3.5713584593734457e-12 -2.749909958016981e-17 1.0
  outer loop
    vertex 1.6746824526945157 18.749999999999982 68.00000000000598
    vertex 1.674682452694527 6.2499999999999805 68.00000000000598
    vertex 3.661165235168156 21.338834764831827 68.00000000001307
  endloop
endfacet
facet normal -3.5713584593734457e-12 -2.749909958016981e-17 1.0
  outer loop
    vertex 3.661165235168156 21.338834764831827 68.00000000001307
    vertex 1.674682452694527 6.2499999999999805 68.00000000000598
    vertex 3.6611652351681703 3.661165235168156 68.00000000001307
  endloop
endfacet
facet normal -3.5713584593734457e-12 -2.749909958016981e-17 1.0
  outer loop
    vertex 3.661165235168156 21.338834764831827 68.00000000001307
    vertex 3.6611652351681703 3.661165235168156 68.00000000001307
    vertex 6.25 23.32531754730548 68.00000000002233
  endloop
endfacet
facet normal -3.5713584593734457e-12 -2.749909958016981e-17 1.0
  outer loop
    vertex 6.25 23.32531754730548 68.00000000002233
    vertex 3.6611652351681703 3.661165235168156 68.00000000001307
    vertex 6.250000000000036 1.6746824526945128 68.00000000002233
  endloop
endfacet
facet normal -3.5713584593734457e-12 -2.749909958016981e-17 1.0
  outer loop
    vertex 6.25 23.32531754730548 68.00000000002233
    vertex 6.250000000000036 1.6746824526945128 68.00000000002233
    vertex 9.264761936218482 24.574072828613343 68.00000000003311
  endloop
endfacet
facet normal -3.5713584593734457e-12 -2.749909958016981e-17 1.0
  outer loop
    vertex 9.264761936218482 24.574072828613343 68.00000000003311
    vertex 6.250000000000036 1.6746824526945128 68.00000000002233
    vertex 8.520000000000016 12.499999999999988 68.00000000003043
  endloop
endfacet
facet normal -3.5713584593734457e-12 -2.749909958016981e-17 1.0
  outer loop
    vertex 9.264761936218482 24.574072828613343 68.00000000003311
    vertex 8.520000000000016 12.499999999999988 68.00000000003043
    vertex 8.655615211369525 13.53009979950803 68.0000000000309
  endloop
endfacet
facet normal -3.5713584593734457e-12 -2.749909958016981e-17 1.0
  outer loop
    vertex 9.264761936218482 24.574072828613343 68.00000000003311
    vertex 8.655615211369525 13.53009979950803 68.0000000000309
    vertex 9.053218892937947 14.489999999999968 68.00000000003232
  endloop
endfacet
facet normal -3.5713584593734457e-12 -2.749909958016981e-17 1.0
  outer loop
    vertex 9.264761936218482 24.574072828613343 68.00000000003311
    vertex 9.053218892937947 14.489999999999968 68.00000000003232
    vertex 9.685715010877544 15.314284989122436 68.00000000003458
  endloop
endfacet
facet normal -3.5713584593734457e-12 -2.749909958016981e-17 1.0
  outer loop
    vertex 9.264761936218482 24.574072828613343 68.00000000003311
    vertex 9.685715010877544 15.314284989122436 68.00000000003458
    vertex 12.499999999999988 24.999999999999993 68.00000000004465
  endloop
endfacet
facet normal -3.5713584593734457e-12 -2.749909958016981e-17 1.0
  outer loop
    vertex 12.499999999999988 24.999999999999993 68.00000000004465
    vertex 9.685715010877544 15.314284989122436 68.00000000003458
    vertex 10.509999999999996 15.946781107062044 68.00000000003749
  endloop
endfacet
facet normal -3.5713584593734457e-12 -2.749909958016981e-17 1.0
  outer loop
    vertex 12.499999999999988 24.999999999999993 68.00000000004465
    vertex 10.509999999999996 15.946781107062044 68.00000000003749
    vertex 11.469900200491974 16.344384788630478 68.00000000004093
  endloop
endfacet
facet normal -3.5713584593734457e-12 -2.749909958016981e-17 1.0
  outer loop
    vertex 12.499999999999988 24.999999999999993 68.00000000004465
    vertex 11.469900200491974 16.344384788630478 68.00000000004093
    vertex 12.5 16.479999999999983 68.0000000000446
  endloop
endfacet
facet normal -3.5713584593734457e-12 -2.749909958016981e-17 1.0
  outer loop
    vertex 12.499999999999988 24.999999999999993 68.00000000004465
    vertex 12.5 16.479999999999983 68.0000000000446
    vertex 15.735238063781495 24.574072828613357 68.00000000005619
  endloop
endfacet
facet normal -3.5713584593734457e-12 -2.749909958016981e-17 1.0
  outer loop
    vertex 15.735238063781495 24.574072828613357 68.00000000005619
    vertex 12.5 16.479999999999983 68.0000000000446
    vertex 13.53009979950803 16.344384788630478 68.0000000000483
  endloop
endfacet
facet normal -3.5713584593734457e-12 -2.749909958016981e-17 1.0
  outer loop
    vertex 15.735238063781495 24.574072828613357 68.00000000005619
    vertex 13.53009979950803 16.344384788630478 68.0000000000483
    vertex 14.490000000000014 15.946781107062057 68.00000000005171
  endloop
endfacet
facet normal -3.5713584593734457e-12 -2.749909958016981e-17 1.0
  outer loop
    vertex 15.735238063781495 24.574072828613357 68.00000000005619
    vertex 14.490000000000014 15.946781107062057 68.00000000005171
    vertex 15.31428498912247 15.314284989122447 68.00000000005465
  endloop
endfacet
facet normal -3.5713584593734457e-12 -2.749909958016981e-17 1.0
  outer loop
    vertex 15.735238063781495 24.574072828613357 68.00000000005619
    vertex 15.31428498912247 15.314284989122447 68.00000000005465
    vertex 15.946781107062067 14.489999999999991 68.00000000005693
  endloop
endfacet
facet normal -3.5713584593734457e-12 -2.749909958016981e-17 1.0
  outer loop
    vertex 15.735238063781495 24.574072828613357 68.00000000005619
    vertex 15.946781107062067 14.489999999999991 68.00000000005693
    vertex 18.74999999999998 23.32531754730549 68.00000000006696
  endloop
endfacet
facet normal -3.5713584593734457e-12 -2.749909958016981e-17 1.0
  outer loop
    vertex 18.74999999999998 23.32531754730549 68.00000000006696
    vertex 15.946781107062067 14.489999999999991 68.00000000005693
    vertex 16.34438478863051 13.53009979950803 68.00000000005835
  endloop
endfacet
facet normal -3.5713584593734457e-12 -2.749909958016981e-17 1.0
  outer loop
    vertex 18.74999999999998 23.32531754730549 68.00000000006696
    vertex 16.34438478863051 13.53009979950803 68.00000000005835
    vertex 16.479999999999993 12.499999999999988 68.00000000005882
  endloop
endfacet
facet normal 0.9914448613738112 -0.1305261922200463 3.5415665033917913e-12
  outer loop
    vertex 25.000000000242895 12.50000000000001 8.93026985693268e-11
    vertex 24.57407282861336 9.264761936218497 68.00000000008777
    vertex 24.574072828856274 9.264761936218497 8.776863680282075e-11
  endloop
endfacet
facet normal 0.9914448613738112 -0.1305261922200463 3.5415665033917913e-12
  outer loop
    vertex 24.57407282861336 9.264761936218497 68.00000000008777
    vertex 25.000000000242895 12.50000000000001 8.93026985693268e-11
    vertex 25.0 12.50000000000001 68.0000000000893
  endloop
endfacet
facet normal 0.7933533402912374 -0.6087614290087179 2.8335624042108676e-12
  outer loop
    vertex 23.32531754754838 6.250000000000025 8.330180989446488e-11
    vertex 21.338834764831866 3.661165235168156 68.00000000007621
    vertex 21.338834765074736 3.661165235168156 7.620677422437437e-11
  endloop
endfacet
facet normal 0.7933533402912374 -0.6087614290087179 2.8335624042108676e-12
  outer loop
    vertex 21.338834764831866 3.661165235168156 68.00000000007621
    vertex 23.32531754754838 6.250000000000025 8.330180989446488e-11
    vertex 23.32531754730551 6.250000000000025 68.00000000008332
  endloop
endfacet
facet normal 0.9238795325112856 -0.382683432365093 3.300058899236167e-12
  outer loop
    vertex 24.574072828856274 9.264761936218497 8.776863680282075e-11
    vertex 23.32531754730551 6.250000000000025 68.00000000008332
    vertex 23.32531754754838 6.250000000000025 8.330180989446488e-11
  endloop
endfacet
facet normal 0.9238795325112856 -0.382683432365093 3.300058899236167e-12
  outer loop
    vertex 23.32531754730551 6.250000000000025 68.00000000008332
    vertex 24.574072828856274 9.264761936218497 8.776863680282075e-11
    vertex 24.57407282861336 9.264761936218497 68.00000000008777
  endloop
endfacet
facet normal 0.7933533402912347 0.6087614290087213 2.8338320003237004e-12
  outer loop
    vertex 21.338834765074736 21.338834764831848 7.620677422437437e-11
    vertex 23.325317547305488 18.750000000000004 68.00000000008332
    vertex 23.32531754754838 18.750000000000004 8.330180989446488e-11
  endloop
endfacet
facet normal 0.7933533402912347 0.6087614290087213 2.8338320003237004e-12
  outer loop
    vertex 23.325317547305488 18.750000000000004 68.00000000008332
    vertex 21.338834765074736 21.338834764831848 7.620677422437437e-11
    vertex 21.338834764831844 21.338834764831848 68.00000000007621
  endloop
endfacet
facet normal 0.9914448613738107 0.1305261922200494 3.5412208133811604e-12
  outer loop
    vertex 8.5200000002429 12.499999999999988 3.042320839696799e-11
    vertex 8.655615211369525 11.469900200491951 68.0000000000309
    vertex 8.655615211612403 11.469900200491951 3.089696276603603e-11
  endloop
endfacet
facet normal 0.9914448613738107 0.1305261922200494 3.5412208133811604e-12
  outer loop
    vertex 8.655615211369525 11.469900200491951 68.0000000000309
    vertex 8.5200000002429 12.499999999999988 3.042320839696799e-11
    vertex 8.520000000000016 12.499999999999988 68.00000000003043
  endloop
endfacet
facet normal 0.13052619222005526 -0.99144486137381 4.662351187403001e-13
  outer loop
    vertex 15.735238064024433 0.42592717138666103 5.6207571930144694e-11
    vertex 12.50000000000001 0.0 68.00000000004465
    vertex 12.500000000242904 0.0 4.464570935169831e-11
  endloop
endfacet
facet normal 0.13052619222005526 -0.99144486137381 4.662351187403001e-13
  outer loop
    vertex 12.50000000000001 0.0 68.00000000004465
    vertex 15.735238064024433 0.42592717138666103 5.6207571930144694e-11
    vertex 15.73523806378154 0.42592717138666103 68.00000000005619
  endloop
endfacet
facet normal -0.13052619222005088 -0.9914448613738105 -4.662119577485446e-13
  outer loop
    vertex 13.530099799750909 16.344384788630478 4.8313075762251856e-11
    vertex 12.5 16.479999999999983 68.0000000000446
    vertex 12.500000000242881 16.479999999999983 4.46245596030792e-11
  endloop
endfacet
facet normal -0.13052619222005088 -0.9914448613738105 -4.662119577485446e-13
  outer loop
    vertex 12.5 16.479999999999983 68.0000000000446
    vertex 13.530099799750909 16.344384788630478 4.8313075762251856e-11
    vertex 13.53009979950803 16.344384788630478 68.0000000000483
  endloop
endfacet
facet normal -0.7933533402912355 0.6087614290087201 -2.8337474582793524e-12
  outer loop
    vertex 3.661165235168156 21.338834764831827 68.00000000001307
    vertex 1.6746824529374078 18.749999999999982 5.978328943001543e-12
    vertex 1.6746824526945157 18.749999999999982 68.00000000000598
  endloop
endfacet
facet normal -0.7933533402912355 0.6087614290087201 -2.8337474582793524e-12
  outer loop
    vertex 1.6746824529374078 18.749999999999982 5.978328943001543e-12
    vertex 3.661165235168156 21.338834764831827 68.00000000001307
    vertex 3.661165235411037 21.338834764831827 1.3073364613092053e-11
  endloop
endfacet
facet normal 0.6087614290087231 -0.7933533402912333 2.1743603979098506e-12
  outer loop
    vertex 10.510000000242881 15.946781107062044 3.75069642011283e-11
    vertex 9.685715010877544 15.314284989122436 68.00000000003458
    vertex 9.685715011120422 15.314284989122436 3.457419905927849e-11
  endloop
endfacet
facet normal 0.6087614290087231 -0.7933533402912333 2.1743603979098506e-12
  outer loop
    vertex 9.685715010877544 15.314284989122436 68.00000000003458
    vertex 10.510000000242881 15.946781107062044 3.75069642011283e-11
    vertex 10.509999999999996 15.946781107062044 68.00000000003749
  endloop
endfacet
facet normal -0.6087614290087182 -0.7933533402912373 -2.174361670762809e-12
  outer loop
    vertex 6.250000000242918 1.6746824526945128 2.2322854675849157e-11
    vertex 3.6611652351681703 3.661165235168156 68.00000000001307
    vertex 3.661165235411051 3.661165235168156 1.3073364613092053e-11
  endloop
endfacet
facet normal -0.6087614290087182 -0.7933533402912373 -2.174361670762809e-12
  outer loop
    vertex 3.6611652351681703 3.661165235168156 68.00000000001307
    vertex 6.250000000242918 1.6746824526945128 2.2322854675849157e-11
    vertex 6.250000000000036 1.6746824526945128 68.00000000002233
  endloop
endfacet
facet normal 0.9914448613738103 0.1305261922200536 3.5412387363456554e-12
  outer loop
    vertex 24.574072828856227 15.735238063781518 8.776863680282075e-11
    vertex 25.0 12.50000000000001 68.0000000000893
    vertex 25.000000000242895 12.50000000000001 8.93026985693268e-11
  endloop
endfacet
facet normal 0.9914448613738103 0.1305261922200536 3.5412387363456554e-12
  outer loop
    vertex 25.0 12.50000000000001 68.0000000000893
    vertex 24.574072828856227 15.735238063781518 8.776863680282075e-11
    vertex 24.57407282861336 15.735238063781518 68.00000000008777
  endloop
endfacet
facet normal 0.13052619222007206 0.9914448613738077 4.66211860115134e-13
  outer loop
    vertex 11.469900200491981 8.655615211369515 68.00000000004093
    vertex 12.500000000242894 8.519999999999985 4.46245596030792e-11
    vertex 11.469900200734862 8.655615211369515 4.0947323309836736e-11
  endloop
endfacet
facet normal 0.13052619222007206 0.9914448613738077 4.66211860115134e-13
  outer loop
    vertex 12.500000000242894 8.519999999999985 4.46245596030792e-11
    vertex 11.469900200491981 8.655615211369515 68.00000000004093
    vertex 12.50000000000001 8.519999999999985 68.0000000000446
  endloop
endfacet
facet normal -0.13052619222004974 -0.9914448613738107 -4.662334389832405e-13
  outer loop
    vertex 12.500000000242904 0.0 4.464570935169831e-11
    vertex 9.264761936218505 0.42592717138663844 68.00000000003311
    vertex 9.264761936461397 0.42592717138663844 3.310640650511232e-11
  endloop
endfacet
facet normal -0.13052619222004974 -0.9914448613738107 -4.662334389832405e-13
  outer loop
    vertex 9.264761936218505 0.42592717138663844 68.00000000003311
    vertex 12.500000000242904 0.0 4.464570935169831e-11
    vertex 12.50000000000001 0.0 68.00000000004465
  endloop
endfacet
facet normal 0.6087614290087253 0.7933533402912318 2.1743600138698115e-12
  outer loop
    vertex 9.685715010877551 9.685715010877532 68.00000000003458
    vertex 10.5100000002429 9.053218892937913 3.75069642011283e-11
    vertex 9.685715011120436 9.685715010877532 3.457419905927849e-11
  endloop
endfacet
facet normal 0.6087614290087253 0.7933533402912318 2.1743600138698115e-12
  outer loop
    vertex 10.5100000002429 9.053218892937913 3.75069642011283e-11
    vertex 9.685715010877551 9.685715010877532 68.00000000003458
    vertex 10.510000000000021 9.053218892937913 68.00000000003749
  endloop
endfacet
facet normal 0.9238795325112849 -0.3826834323650946 3.299854104222228e-12
  outer loop
    vertex 9.053218893180825 14.489999999999968 3.231822587324017e-11
    vertex 8.655615211369525 13.53009979950803 68.0000000000309
    vertex 8.655615211612403 13.53009979950803 3.089696276603603e-11
  endloop
endfacet
facet normal 0.9238795325112849 -0.3826834323650946 3.299854104222228e-12
  outer loop
    vertex 8.655615211369525 13.53009979950803 68.0000000000309
    vertex 9.053218893180825 14.489999999999968 3.231822587324017e-11
    vertex 9.053218892937947 14.489999999999968 68.00000000003232
  endloop
endfacet
facet normal 0.38268343236508623 -0.9238795325112884 1.3669296503191727e-12
  outer loop
    vertex 18.750000000242913 1.6746824526945128 6.695728416161727e-11
    vertex 15.73523806378154 0.42592717138666103 68.00000000005619
    vertex 15.735238064024433 0.42592717138666103 5.6207571930144694e-11
  endloop
endfacet
facet normal 0.38268343236508623 -0.9238795325112884 1.3669296503191727e-12
  outer loop
    vertex 15.73523806378154 0.42592717138666103 68.00000000005619
    vertex 18.750000000242913 1.6746824526945128 6.695728416161727e-11
    vertex 18.75000000000002 1.6746824526945128 68.00000000006696
  endloop
endfacet
facet normal -0.9238795325112852 -0.38268343236509383 -3.3000445880647527e-12
  outer loop
    vertex 0.4259271713866497 9.26476193621845 68.00000000000152
    vertex 1.6746824529374191 6.2499999999999805 5.978328943001543e-12
    vertex 1.674682452694527 6.2499999999999805 68.00000000000598
  endloop
endfacet
facet normal -0.9238795325112852 -0.38268343236509383 -3.3000445880647527e-12
  outer loop
    vertex 1.6746824529374191 6.2499999999999805 5.978328943001543e-12
    vertex 0.4259271713866497 9.26476193621845 68.00000000000152
    vertex 0.4259271716295419 9.26476193621845 1.511502034645673e-12
  endloop
endfacet
facet normal 0.608761429008718 0.7933533402912374 2.174474882765134e-12
  outer loop
    vertex 18.74999999999998 23.32531754730549 68.00000000006696
    vertex 21.338834765074736 21.338834764831848 7.620677422437437e-11
    vertex 18.75000000024287 23.32531754730549 6.695728416161727e-11
  endloop
endfacet
facet normal 0.608761429008718 0.7933533402912374 2.174474882765134e-12
  outer loop
    vertex 21.338834765074736 21.338834764831848 7.620677422437437e-11
    vertex 18.74999999999998 23.32531754730549 68.00000000006696
    vertex 21.338834764831844 21.338834764831848 68.00000000007621
  endloop
endfacet
facet normal 0.9914448613738107 -0.13052619222004938 3.5412207533898376e-12
  outer loop
    vertex 8.655615211612403 13.53009979950803 3.089696276603603e-11
    vertex 8.520000000000016 12.499999999999988 68.00000000003043
    vertex 8.5200000002429 12.499999999999988 3.042320839696799e-11
  endloop
endfacet
facet normal 0.9914448613738107 -0.13052619222004938 3.5412207533898376e-12
  outer loop
    vertex 8.520000000000016 12.499999999999988 68.00000000003043
    vertex 8.655615211612403 13.53009979950803 3.089696276603603e-11
    vertex 8.655615211369525 13.53009979950803 68.0000000000309
  endloop
endfacet
facet normal -0.38268343236509267 -0.9238795325112857 -1.3668916058100435e-12
  outer loop
    vertex 9.264761936461397 0.42592717138663844 3.310640650511232e-11
    vertex 6.250000000000036 1.6746824526945128 68.00000000002233
    vertex 6.250000000242918 1.6746824526945128 2.2322854675849157e-11
  endloop
endfacet
facet normal -0.38268343236509267 -0.9238795325112857 -1.3668916058100435e-12
  outer loop
    vertex 6.250000000000036 1.6746824526945128 68.00000000002233
    vertex 9.264761936461397 0.42592717138663844 3.310640650511232e-11
    vertex 9.264761936218505 0.42592717138663844 68.00000000003311
  endloop
endfacet
facet normal 0.1305261922200497 0.9914448613738107 4.66236382421478e-13
  outer loop
    vertex 12.499999999999988 24.999999999999993 68.00000000004465
    vertex 15.73523806402439 24.574072828613357 5.6207571930144694e-11
    vertex 12.500000000242881 24.999999999999993 4.464570935169831e-11
  endloop
endfacet
facet normal 0.1305261922200497 0.9914448613738107 4.66236382421478e-13
  outer loop
    vertex 15.73523806402439 24.574072828613357 5.6207571930144694e-11
    vertex 12.499999999999988 24.999999999999993 68.00000000004465
    vertex 15.735238063781495 24.574072828613357 68.00000000005619
  endloop
endfacet
facet normal 0.38268343236506885 0.9238795325112954 1.3668527366358902e-12
  outer loop
    vertex 10.510000000000021 9.053218892937913 68.00000000003749
    vertex 11.469900200734862 8.655615211369515 4.0947323309836736e-11
    vertex 10.5100000002429 9.053218892937913 3.75069642011283e-11
  endloop
endfacet
facet normal 0.38268343236506885 0.9238795325112954 1.3668527366358902e-12
  outer loop
    vertex 11.469900200734862 8.655615211369515 4.0947323309836736e-11
    vertex 10.510000000000021 9.053218892937913 68.00000000003749
    vertex 11.469900200491981 8.655615211369515 68.00000000004093
  endloop
endfacet
facet normal -0.3826834323650895 0.9238795325112871 -1.3668916058100322e-12
  outer loop
    vertex 6.25 23.32531754730548 68.00000000002233
    vertex 9.264761936461364 24.574072828613343 3.310640650511232e-11
    vertex 6.250000000242892 23.32531754730548 2.2322854675849157e-11
  endloop
endfacet
facet normal -0.3826834323650895 0.9238795325112871 -1.3668916058100322e-12
  outer loop
    vertex 9.264761936461364 24.574072828613343 3.310640650511232e-11
    vertex 6.25 23.32531754730548 68.00000000002233
    vertex 9.264761936218482 24.574072828613343 68.00000000003311
  endloop
endfacet
facet normal -0.9238795325112867 0.38268343236509017 -3.300046223498133e-12
  outer loop
    vertex 1.6746824526945157 18.749999999999982 68.00000000000598
    vertex 0.4259271716295334 15.735238063781484 1.511502034645673e-12
    vertex 0.42592717138664127 15.735238063781484 68.00000000000152
  endloop
endfacet
facet normal -0.9238795325112867 0.38268343236509017 -3.300046223498133e-12
  outer loop
    vertex 0.4259271716295334 15.735238063781484 1.511502034645673e-12
    vertex 1.6746824526945157 18.749999999999982 68.00000000000598
    vertex 1.6746824529374078 18.749999999999982 5.978328943001543e-12
  endloop
endfacet
facet normal 0.38268343236509283 -0.9238795325112855 1.3668601081218293e-12
  outer loop
    vertex 11.469900200734852 16.344384788630478 4.0947323309836736e-11
    vertex 10.509999999999996 15.946781107062044 68.00000000003749
    vertex 10.510000000242881 15.946781107062044 3.75069642011283e-11
  endloop
endfacet
facet normal 0.38268343236509283 -0.9238795325112855 1.3668601081218293e-12
  outer loop
    vertex 10.509999999999996 15.946781107062044 68.00000000003749
    vertex 11.469900200734852 16.344384788630478 4.0947323309836736e-11
    vertex 11.469900200491974 16.344384788630478 68.00000000004093
  endloop
endfacet
facet normal 0.7933533402912423 -0.6087614290087114 2.8336493353245188e-12
  outer loop
    vertex 9.685715011120422 15.314284989122436 3.457419905927849e-11
    vertex 9.053218892937947 14.489999999999968 68.00000000003232
    vertex 9.053218893180825 14.489999999999968 3.231822587324017e-11
  endloop
endfacet
facet normal 0.7933533402912423 -0.6087614290087114 2.8336493353245188e-12
  outer loop
    vertex 9.053218892937947 14.489999999999968 68.00000000003232
    vertex 9.685715011120422 15.314284989122436 3.457419905927849e-11
    vertex 9.685715010877544 15.314284989122436 68.00000000003458
  endloop
endfacet
facet normal 0.6087614290087232 -0.7933533402912332 2.174372279397352e-12
  outer loop
    vertex 21.338834765074736 3.661165235168156 7.620677422437437e-11
    vertex 18.75000000000002 1.6746824526945128 68.00000000006696
    vertex 18.750000000242913 1.6746824526945128 6.695728416161727e-11
  endloop
endfacet
facet normal 0.6087614290087232 -0.7933533402912332 2.174372279397352e-12
  outer loop
    vertex 18.75000000000002 1.6746824526945128 68.00000000006696
    vertex 21.338834765074736 3.661165235168156 7.620677422437437e-11
    vertex 21.338834764831866 3.661165235168156 68.00000000007621
  endloop
endfacet
facet normal -0.9914448613738105 -0.13052619222005138 -3.5413852274292083e-12
  outer loop
    vertex 0.0 12.499999999999988 68.00000000000001
    vertex 0.4259271716295419 9.26476193621845 1.511502034645673e-12
    vertex 0.4259271713866497 9.26476193621845 68.00000000000152
  endloop
endfacet
facet normal -0.9914448613738105 -0.13052619222005138 -3.5413852274292083e-12
  outer loop
    vertex 0.4259271716295419 9.26476193621845 1.511502034645673e-12
    vertex 0.0 12.499999999999988 68.00000000000001
    vertex 2.4289217304129803e-10 12.499999999999988 0.0
  endloop
endfacet
facet normal -0.9914448613738107 0.13052619222005069 -3.541384987463918e-12
  outer loop
    vertex 0.42592717138664127 15.735238063781484 68.00000000000152
    vertex 2.4289217304129803e-10 12.499999999999988 0.0
    vertex 0.0 12.499999999999988 68.00000000000001
  endloop
endfacet
facet normal -0.9914448613738107 0.13052619222005069 -3.541384987463918e-12
  outer loop
    vertex 2.4289217304129803e-10 12.499999999999988 0.0
    vertex 0.42592717138664127 15.735238063781484 68.00000000000152
    vertex 0.4259271716295334 15.735238063781484 1.511502034645673e-12
  endloop
endfacet
endsolid roller-x4
