solid roller-x4
facet normal 0.3826834323650888 0.9238795325112873 1.3669295099526753e-12
  outer loop
    vertex -9.264761936461401 12.07407282861334 67.9999999999669
    vertex -6.250000000000025 10.825317547305477 -2.2345414407709538e-11
    vertex -9.264761936218507 12.07407282861334 -3.309512663918212e-11
  endloop
endfacet
facet normal 0.3826834323650888 0.9238795325112873 1.3669295099526753e-12
  outer loop
    vertex -6.250000000000025 10.825317547305477 -2.2345414407709538e-11
    vertex -9.264761936461401 12.07407282861334 67.9999999999669
    vertex -6.250000000242919 10.825317547305477 67.99999999997766
  endloop
endfacet
facet normal 0.38268343236508584 -0.9238795325112884 1.3669279215796495e-12
  outer loop
    vertex -6.2499999999999805 -10.8253175473055 -2.2345414407709538e-11
    vertex -9.264761936461356 -12.074072828613353 67.9999999999669
    vertex -9.264761936218463 -12.074072828613353 -3.309512663918212e-11
  endloop
endfacet
facet normal 0.38268343236508584 -0.9238795325112884 1.3669279215796495e-12
  outer loop
    vertex -9.264761936461356 -12.074072828613353 67.9999999999669
    vertex -6.2499999999999805 -10.8253175473055 -2.2345414407709538e-11
    vertex -6.250000000242873 -10.8253175473055 67.99999999997766
  endloop
endfacet
facet normal 0.6087614290087182 0.7933533402912373 2.174470716061271e-12
  outer loop
    vertex -6.250000000242919 10.825317547305477 67.99999999997766
    vertex -3.6611652351681587 8.838834764831835 -1.3095924344952436e-11
    vertex -6.250000000000025 10.825317547305477 -2.2345414407709538e-11
  endloop
endfacet
facet normal 0.6087614290087182 0.7933533402912373 2.174470716061271e-12
  outer loop
    vertex -3.6611652351681587 8.838834764831835 -1.3095924344952436e-11
    vertex -6.250000000242919 10.825317547305477 67.99999999997766
    vertex -3.6611652354110524 8.838834764831835 67.99999999998691
  endloop
endfacet
facet normal -0.6087614290087229 0.7933533402912334 -2.174420344049202e-12
  outer loop
    vertex -21.33883476507474 8.838834764831812 67.99999999992377
    vertex -18.750000000000004 10.825317547305467 -6.697984389347766e-11
    vertex -21.33883476483186 8.838834764831812 -7.622933395623476e-11
  endloop
endfacet
facet normal -0.6087614290087229 0.7933533402912334 -2.174420344049202e-12
  outer loop
    vertex -18.750000000000004 10.825317547305467 -6.697984389347766e-11
    vertex -21.33883476507474 8.838834764831812 67.99999999992377
    vertex -18.750000000242895 10.825317547305467 67.99999999993302
  endloop
endfacet
facet normal 0.9914448613738112 -0.1305261922200463 3.541561135785549e-12
  outer loop
    vertex 0.0 0.0 0.0
    vertex -0.4259271716295346 -3.2352380637815177 67.99999999999847
    vertex -0.42592717138661873 -3.2352380637815177 -1.5340617665060561e-12
  endloop
endfacet
facet normal 0.9914448613738112 -0.1305261922200463 3.541561135785549e-12
  outer loop
    vertex -0.4259271716295346 -3.2352380637815177 67.99999999999847
    vertex 0.0 0.0 0.0
    vertex -2.4289335604331586e-10 4.857761220473062e-27 68.0
  endloop
endfacet
facet normal 0.9914448613738103 0.13052619222005357 3.5412374400052507e-12
  outer loop
    vertex -0.4259271713866638 3.2352380637815066 -1.5340617665060561e-12
    vertex -2.4289335604331586e-10 4.857761220473062e-27 68.0
    vertex 0.0 0.0 0.0
  endloop
endfacet
facet normal 0.9914448613738103 0.13052619222005357 3.5412374400052507e-12
  outer loop
    vertex -2.4289335604331586e-10 4.857761220473062e-27 68.0
    vertex -0.4259271713866638 3.2352380637815066 -1.5340617665060561e-12
    vertex -0.4259271716295346 3.2352380637815066 67.99999999999847
  endloop
endfacet
facet normal -0.7933533402912332 -0.6087614290087232 -2.8337602139494102e-12
  outer loop
    vertex -23.32531754754837 -6.250000000000034 67.99999999991668
    vertex -21.338834764831844 -8.838834764831857 -7.622933395623476e-11
    vertex -21.338834765074726 -8.838834764831857 67.99999999992377
  endloop
endfacet
facet normal -0.7933533402912332 -0.6087614290087232 -2.8337602139494102e-12
  outer loop
    vertex -21.338834764831844 -8.838834764831857 -7.622933395623476e-11
    vertex -23.32531754754837 -6.250000000000034 67.99999999991668
    vertex -23.325317547305477 -6.250000000000034 -8.332436962632527e-11
  endloop
endfacet
facet normal -0.9914448613738107 0.13052619222004974 -3.5413985936138303e-12
  outer loop
    vertex -25.000000000242895 -2.255973186037832e-14 67.99999999991071
    vertex -24.574072828613364 3.2352380637814724 -8.779119653468114e-11
    vertex -25.000000000000004 -2.255973186038318e-14 -8.930269856932682e-11
  endloop
endfacet
facet normal -0.9914448613738107 0.13052619222004974 -3.5413985936138303e-12
  outer loop
    vertex -24.574072828613364 3.2352380637814724 -8.779119653468114e-11
    vertex -25.000000000242895 -2.255973186037832e-14 67.99999999991071
    vertex -24.574072828856256 3.2352380637814724 67.99999999991222
  endloop
endfacet
facet normal 0.1305261922200552 -0.99144486137381 4.662340639517449e-13
  outer loop
    vertex -9.264761936218463 -12.074072828613353 -3.309512663918212e-11
    vertex -12.500000000242885 -12.500000000000014 67.99999999995535
    vertex -12.499999999999991 -12.500000000000014 -4.46569892176285e-11
  endloop
endfacet
facet normal 0.1305261922200552 -0.99144486137381 4.662340639517449e-13
  outer loop
    vertex -12.500000000242885 -12.500000000000014 67.99999999995535
    vertex -9.264761936218463 -12.074072828613353 -3.309512663918212e-11
    vertex -9.264761936461356 -12.074072828613353 67.9999999999669
  endloop
endfacet
facet normal 0.9238795325112875 0.3826834323650885 3.2999084571403367e-12
  outer loop
    vertex -1.6746824526945157 6.249999999999991 -6.000888674861926e-12
    vertex -0.4259271716295346 3.2352380637815066 67.99999999999847
    vertex -0.4259271713866638 3.2352380637815066 -1.5340617665060561e-12
  endloop
endfacet
facet normal 0.9238795325112875 0.3826834323650885 3.2999084571403367e-12
  outer loop
    vertex -0.4259271716295346 3.2352380637815066 67.99999999999847
    vertex -1.6746824526945157 6.249999999999991 -6.000888674861926e-12
    vertex -1.674682452937409 6.249999999999991 67.99999999999402
  endloop
endfacet
facet normal 0.7933533402912345 0.6087614290087215 2.8338236738011813e-12
  outer loop
    vertex -3.6611652351681587 8.838834764831835 -1.3095924344952436e-11
    vertex -1.674682452937409 6.249999999999991 67.99999999999402
    vertex -1.6746824526945157 6.249999999999991 -6.000888674861926e-12
  endloop
endfacet
facet normal 0.7933533402912345 0.6087614290087215 2.8338236738011813e-12
  outer loop
    vertex -1.674682452937409 6.249999999999991 67.99999999999402
    vertex -3.6611652351681587 8.838834764831835 -1.3095924344952436e-11
    vertex -3.6611652354110524 8.838834764831835 67.99999999998691
  endloop
endfacet
facet normal -0.6087614290087182 -0.793353340291237 -2.1743714639935576e-12
  outer loop
    vertex -18.74999999999998 -10.8253175473055 -6.697984389347766e-11
    vertex -21.338834765074726 -8.838834764831857 67.99999999992377
    vertex -21.338834764831844 -8.838834764831857 -7.622933395623476e-11
  endloop
endfacet
facet normal -0.6087614290087182 -0.793353340291237 -2.1743714639935576e-12
  outer loop
    vertex -21.338834765074726 -8.838834764831857 67.99999999992377
    vertex -18.74999999999998 -10.8253175473055 -6.697984389347766e-11
    vertex -18.75000000024286 -10.8253175473055 67.99999999993302
  endloop
endfacet
facet normal -0.7933533402912353 0.6087614290087204 -2.8337602139494187e-12
  outer loop
    vertex -21.33883476507474 8.838834764831812 67.99999999992377
    vertex -23.325317547305488 6.249999999999969 -8.332436962632527e-11
    vertex -23.32531754754838 6.249999999999969 67.99999999991668
  endloop
endfacet
facet normal -0.7933533402912353 0.6087614290087204 -2.8337602139494187e-12
  outer loop
    vertex -23.325317547305488 6.249999999999969 -8.332436962632527e-11
    vertex -21.33883476507474 8.838834764831812 67.99999999992377
    vertex -21.33883476483186 8.838834764831812 -7.622933395623476e-11
  endloop
endfacet
facet normal -0.9238795325112867 0.38268343236509017 -3.3000591655474423e-12
  outer loop
    vertex -23.32531754754838 6.249999999999969 67.99999999991668
    vertex -24.574072828613364 3.2352380637814724 -8.779119653468114e-11
    vertex -24.574072828856256 3.2352380637814724 67.99999999991222
  endloop
endfacet
facet normal -0.9238795325112867 0.38268343236509017 -3.3000591655474423e-12
  outer loop
    vertex -24.574072828613364 3.2352380637814724 -8.779119653468114e-11
    vertex -23.32531754754838 6.249999999999969 67.99999999991668
    vertex -23.325317547305488 6.249999999999969 -8.332436962632527e-11
  endloop
endfacet
facet normal -0.13052619222004933 -0.9914448613738107 -4.662341135655567e-13
  outer loop
    vertex -12.499999999999991 -12.500000000000014 -4.46569892176285e-11
    vertex -15.73523806402439 -12.074072828613374 67.99999999994381
    vertex -15.735238063781498 -12.074072828613374 -5.61962920642145e-11
  endloop
endfacet
facet normal -0.13052619222004933 -0.9914448613738107 -4.662341135655567e-13
  outer loop
    vertex -15.73523806402439 -12.074072828613374 67.99999999994381
    vertex -12.499999999999991 -12.500000000000014 -4.46569892176285e-11
    vertex -12.500000000242885 -12.500000000000014 67.99999999995535
  endloop
endfacet
facet normal -0.38268343236509234 -0.9238795325112857 -1.3668975978328379e-12
  outer loop
    vertex -15.735238063781498 -12.074072828613374 -5.61962920642145e-11
    vertex -18.75000000024286 -10.8253175473055 67.99999999993302
    vertex -18.74999999999998 -10.8253175473055 -6.697984389347766e-11
  endloop
endfacet
facet normal -0.38268343236509234 -0.9238795325112857 -1.3668975978328379e-12
  outer loop
    vertex -18.75000000024286 -10.8253175473055 67.99999999993302
    vertex -15.735238063781498 -12.074072828613374 -5.61962920642145e-11
    vertex -15.73523806402439 -12.074072828613374 67.99999999994381
  endloop
endfacet
facet normal 0.9238795325112856 -0.382683432365093 3.3000588930257137e-12
  outer loop
    vertex -0.42592717138661873 -3.2352380637815177 -1.5340617665060561e-12
    vertex -1.6746824529373863 -6.2499999999999885 67.99999999999402
    vertex -1.6746824526945157 -6.2499999999999885 -6.000888674861926e-12
  endloop
endfacet
facet normal 0.9238795325112856 -0.382683432365093 3.3000588930257137e-12
  outer loop
    vertex -1.6746824529373863 -6.2499999999999885 67.99999999999402
    vertex -0.42592717138661873 -3.2352380637815177 -1.5340617665060561e-12
    vertex -0.4259271716295346 -3.2352380637815177 67.99999999999847
  endloop
endfacet
facet normal -0.38268343236508945 0.9238795325112871 -1.366897597832828e-12
  outer loop
    vertex -18.750000000242895 10.825317547305467 67.99999999993302
    vertex -15.735238063781532 12.07407282861333 -5.61962920642145e-11
    vertex -18.750000000000004 10.825317547305467 -6.697984389347766e-11
  endloop
endfacet
facet normal -0.38268343236508945 0.9238795325112871 -1.366897597832828e-12
  outer loop
    vertex -15.735238063781532 12.07407282861333 -5.61962920642145e-11
    vertex -18.750000000242895 10.825317547305467 67.99999999993302
    vertex -15.735238064024413 12.07407282861333 67.99999999994381
  endloop
endfacet
facet normal -0.9238795325112856 -0.382683432365093 -3.300059165547439e-12
  outer loop
    vertex -24.574072828856245 -3.235238063781563 67.99999999991222
    vertex -23.325317547305477 -6.250000000000034 -8.332436962632527e-11
    vertex -23.32531754754837 -6.250000000000034 67.99999999991668
  endloop
endfacet
facet normal -0.9238795325112856 -0.382683432365093 -3.300059165547439e-12
  outer loop
    vertex -23.325317547305477 -6.250000000000034 -8.332436962632527e-11
    vertex -24.574072828856245 -3.235238063781563 67.99999999991222
    vertex -24.574072828613353 -3.235238063781563 -8.779119653468114e-11
  endloop
endfacet
facet normal -0.9914448613738105 -0.13052619222005143 -3.54139859361383e-12
  outer loop
    vertex -25.000000000242895 -2.255973186037832e-14 67.99999999991071
    vertex -24.574072828613353 -3.235238063781563 -8.779119653468114e-11
    vertex -24.574072828856245 -3.235238063781563 67.99999999991222
  endloop
endfacet
facet normal -0.9914448613738105 -0.13052619222005143 -3.54139859361383e-12
  outer loop
    vertex -24.574072828613353 -3.235238063781563 -8.779119653468114e-11
    vertex -25.000000000242895 -2.255973186037832e-14 67.99999999991071
    vertex -25.000000000000004 -2.255973186038318e-14 -8.930269856932682e-11
  endloop
endfacet
facet normal 0.13052619222004933 0.9914448613738107 4.662340639517239e-13
  outer loop
    vertex -12.500000000242908 12.49999999999998 67.99999999995535
    vertex -9.264761936218507 12.07407282861334 -3.309512663918212e-11
    vertex -12.500000000000014 12.49999999999998 -4.46569892176285e-11
  endloop
endfacet
facet normal 0.13052619222004933 0.9914448613738107 4.662340639517239e-13
  outer loop
    vertex -9.264761936218507 12.07407282861334 -3.309512663918212e-11
    vertex -12.500000000242908 12.49999999999998 67.99999999995535
    vertex -9.264761936461401 12.07407282861334 67.9999999999669
  endloop
endfacet
facet normal -0.1305261922200525 0.9914448613738103 -4.662233131655774e-13
  outer loop
    vertex -15.735238064024413 12.07407282861333 67.99999999994381
    vertex -12.500000000000014 12.49999999999998 -4.46569892176285e-11
    vertex -15.735238063781532 12.07407282861333 -5.61962920642145e-11
  endloop
endfacet
facet normal -0.1305261922200525 0.9914448613738103 -4.662233131655774e-13
  outer loop
    vertex -12.500000000000014 12.49999999999998 -4.46569892176285e-11
    vertex -15.735238064024413 12.07407282861333 67.99999999994381
    vertex -12.500000000242908 12.49999999999998 67.99999999995535
  endloop
endfacet
facet normal 0.6087614290087232 -0.7933533402912333 2.174369972037115e-12
  outer loop
    vertex -3.6611652351681587 -8.838834764831857 -1.3095924344952436e-11
    vertex -6.250000000242873 -10.8253175473055 67.99999999997766
    vertex -6.2499999999999805 -10.8253175473055 -2.2345414407709538e-11
  endloop
endfacet
facet normal 0.6087614290087232 -0.7933533402912333 2.174369972037115e-12
  outer loop
    vertex -6.250000000242873 -10.8253175473055 67.99999999997766
    vertex -3.6611652351681587 -8.838834764831857 -1.3095924344952436e-11
    vertex -3.66116523541103 -8.838834764831857 67.99999999998691
  endloop
endfacet
facet normal 0.7933533402912374 -0.6087614290087179 2.8335640733771793e-12
  outer loop
    vertex -1.6746824526945157 -6.2499999999999885 -6.000888674861926e-12
    vertex -3.66116523541103 -8.838834764831857 67.99999999998691
    vertex -3.6611652351681587 -8.838834764831857 -1.3095924344952436e-11
  endloop
endfacet
facet normal 0.7933533402912374 -0.6087614290087179 2.8335640733771793e-12
  outer loop
    vertex -3.66116523541103 -8.838834764831857 67.99999999998691
    vertex -1.6746824526945157 -6.2499999999999885 -6.000888674861926e-12
    vertex -1.6746824529373863 -6.2499999999999885 67.99999999999402
  endloop
endfacet
facet normal 3.571623208619491e-12 4.448149272419124e-27 -1.0
  outer loop
    vertex -24.574072828613364 3.2352380637814724 -8.779119653468114e-11
    vertex -24.574072828613353 -3.235238063781563 -8.779119653468114e-11
    vertex -25.000000000000004 -2.255973186038318e-14 -8.930269856932682e-11
  endloop
endfacet
facet normal 3.571623208619491e-12 4.448149272419124e-27 -1.0
  outer loop
    vertex -24.574072828613353 -3.235238063781563 -8.779119653468114e-11
    vertex -24.574072828613364 3.2352380637814724 -8.779119653468114e-11
    vertex -23.325317547305488 6.249999999999969 -8.332436962632527e-11
  endloop
endfacet
facet normal 3.571623208619491e-12 4.448149272419124e-27 -1.0
  outer loop
    vertex -24.574072828613353 -3.235238063781563 -8.779119653468114e-11
    vertex -23.325317547305488 6.249999999999969 -8.332436962632527e-11
    vertex -23.325317547305477 -6.250000000000034 -8.332436962632527e-11
  endloop
endfacet
facet normal 3.571623208619491e-12 4.448149272419124e-27 -1.0
  outer loop
    vertex -23.325317547305477 -6.250000000000034 -8.332436962632527e-11
    vertex -23.325317547305488 6.249999999999969 -8.332436962632527e-11
    vertex -21.33883476483186 8.838834764831812 -7.622933395623476e-11
  endloop
endfacet
facet normal 3.571623208619491e-12 4.448149272419124e-27 -1.0
  outer loop
    vertex -23.325317547305477 -6.250000000000034 -8.332436962632527e-11
    vertex -21.33883476483186 8.838834764831812 -7.622933395623476e-11
    vertex -21.338834764831844 -8.838834764831857 -7.622933395623476e-11
  endloop
endfacet
facet normal 3.571623208619491e-12 4.448149272419124e-27 -1.0
  outer loop
    vertex -21.338834764831844 -8.838834764831857 -7.622933395623476e-11
    vertex -21.33883476483186 8.838834764831812 -7.622933395623476e-11
    vertex -18.750000000000004 10.825317547305467 -6.697984389347766e-11
  endloop
endfacet
facet normal 3.571623208619491e-12 4.448149272419124e-27 -1.0
  outer loop
    vertex -21.338834764831844 -8.838834764831857 -7.622933395623476e-11
    vertex -18.750000000000004 10.825317547305467 -6.697984389347766e-11
    vertex -18.74999999999998 -10.8253175473055 -6.697984389347766e-11
  endloop
endfacet
facet normal 3.571623208619491e-12 4.448149272419124e-27 -1.0
  outer loop
    vertex -18.74999999999998 -10.8253175473055 -6.697984389347766e-11
    vertex -18.750000000000004 10.825317547305467 -6.697984389347766e-11
    vertex -15.735238063781532 12.07407282861333 -5.61962920642145e-11
  endloop
endfacet
facet normal 3.571623208619491e-12 4.448149272419124e-27 -1.0
  outer loop
    vertex -18.74999999999998 -10.8253175473055 -6.697984389347766e-11
    vertex -15.735238063781532 12.07407282861333 -5.61962920642145e-11
    vertex -16.479999999999997 -2.255973186038318e-14 -5.887949017235882e-11
  endloop
endfacet
facet normal 3.571623208619491e-12 4.448149272419124e-27 -1.0
  outer loop
    vertex -16.479999999999997 -2.255973186038318e-14 -5.887949017235882e-11
    vertex -15.735238063781532 12.07407282861333 -5.61962920642145e-11
    vertex -16.344384788630492 1.0300997995080179 -5.840573580329078e-11
  endloop
endfacet
facet normal 3.571623208619491e-12 4.448149272419124e-27 -1.0
  outer loop
    vertex -16.344384788630492 1.0300997995080179 -5.840573580329078e-11
    vertex -15.735238063781532 12.07407282861333 -5.61962920642145e-11
    vertex -15.94678110706207 1.989999999999958 -5.698447269608664e-11
  endloop
endfacet
facet normal 3.571623208619491e-12 4.448149272419124e-27 -1.0
  outer loop
    vertex -15.94678110706207 1.989999999999958 -5.698447269608664e-11
    vertex -15.735238063781532 12.07407282861333 -5.61962920642145e-11
    vertex -15.314284989122473 2.814284989122425 -5.472849951004832e-11
  endloop
endfacet
facet normal 3.571623208619491e-12 4.448149272419124e-27 -1.0
  outer loop
    vertex -15.314284989122473 2.814284989122425 -5.472849951004832e-11
    vertex -15.735238063781532 12.07407282861333 -5.61962920642145e-11
    vertex -12.500000000000014 12.49999999999998 -4.46569892176285e-11
  endloop
endfacet
facet normal 3.571623208619491e-12 4.448149272419124e-27 -1.0
  outer loop
    vertex -15.314284989122473 2.814284989122425 -5.472849951004832e-11
    vertex -12.500000000000014 12.49999999999998 -4.46569892176285e-11
    vertex -14.490000000000016 3.4467811070620336 -5.179573436819851e-11
  endloop
endfacet
facet normal 3.571623208619491e-12 4.448149272419124e-27 -1.0
  outer loop
    vertex -14.490000000000016 3.4467811070620336 -5.179573436819851e-11
    vertex -12.500000000000014 12.49999999999998 -4.46569892176285e-11
    vertex -13.530099799508044 3.8443847886304656 -4.8355375259490074e-11
  endloop
endfacet
facet normal 3.571623208619491e-12 4.448149272419124e-27 -1.0
  outer loop
    vertex -13.530099799508044 3.8443847886304656 -4.8355375259490074e-11
    vertex -12.500000000000014 12.49999999999998 -4.46569892176285e-11
    vertex -12.500000000000014 3.9799999999999724 -4.467813896624761e-11
  endloop
endfacet
facet normal 3.571623208619491e-12 4.448149272419124e-27 -1.0
  outer loop
    vertex -12.500000000000014 3.9799999999999724 -4.467813896624761e-11
    vertex -12.500000000000014 12.49999999999998 -4.46569892176285e-11
    vertex -9.264761936218507 12.07407282861334 -3.309512663918212e-11
  endloop
endfacet
facet normal 3.571623208619491e-12 4.448149272419124e-27 -1.0
  outer loop
    vertex -12.500000000000014 3.9799999999999724 -4.467813896624761e-11
    vertex -9.264761936218507 12.07407282861334 -3.309512663918212e-11
    vertex -11.469900200491985 3.8443847886304656 -4.098962280707496e-11
  endloop
endfacet
facet normal 3.571623208619491e-12 4.448149272419124e-27 -1.0
  outer loop
    vertex -11.469900200491985 3.8443847886304656 -4.098962280707496e-11
    vertex -9.264761936218507 12.07407282861334 -3.309512663918212e-11
    vertex -10.51 3.446781107062045 -3.757182343022691e-11
  endloop
endfacet
facet normal 3.571623208619491e-12 4.448149272419124e-27 -1.0
  outer loop
    vertex -10.51 3.446781107062045 -3.757182343022691e-11
    vertex -9.264761936218507 12.07407282861334 -3.309512663918212e-11
    vertex -9.685715010877544 2.814284989122436 -3.462777842244691e-11
  endloop
endfacet
facet normal 3.571623208619491e-12 4.448149272419124e-27 -1.0
  outer loop
    vertex -9.685715010877544 2.814284989122436 -3.462777842244691e-11
    vertex -9.264761936218507 12.07407282861334 -3.309512663918212e-11
    vertex -9.053218892937947 1.9899999999999805 -3.23605253704784e-11
  endloop
endfacet
facet normal 3.571623208619491e-12 4.448149272419124e-27 -1.0
  outer loop
    vertex -9.053218892937947 1.9899999999999805 -3.23605253704784e-11
    vertex -9.264761936218507 12.07407282861334 -3.309512663918212e-11
    vertex -6.250000000000025 10.825317547305477 -2.2345414407709538e-11
  endloop
endfacet
facet normal 3.571623208619491e-12 4.448149272419124e-27 -1.0
  outer loop
    vertex -9.053218892937947 1.9899999999999805 -3.23605253704784e-11
    vertex -6.250000000000025 10.825317547305477 -2.2345414407709538e-11
    vertex -8.655615211369502 1.0300997995080179 -3.0939262263274256e-11
  endloop
endfacet
facet normal 3.571623208619491e-12 4.448149272419124e-27 -1.0
  outer loop
    vertex -8.655615211369502 1.0300997995080179 -3.0939262263274256e-11
    vertex -6.250000000000025 10.825317547305477 -2.2345414407709538e-11
    vertex -8.52000000000002 -2.255973186038318e-14 -3.046550789420621e-11
  endloop
endfacet
facet normal 3.571623208619491e-12 4.448149272419124e-27 -1.0
  outer loop
    vertex -16.479999999999997 -2.255973186038318e-14 -5.887949017235882e-11
    vertex -15.735238063781498 -12.074072828613374 -5.61962920642145e-11
    vertex -18.74999999999998 -10.8253175473055 -6.697984389347766e-11
  endloop
endfacet
facet normal 3.571623208619491e-12 4.448149272419124e-27 -1.0
  outer loop
    vertex -15.735238063781498 -12.074072828613374 -5.61962920642145e-11
    vertex -16.479999999999997 -2.255973186038318e-14 -5.887949017235882e-11
    vertex -16.344384788630492 -1.030099799508063 -5.840573580329078e-11
  endloop
endfacet
facet normal 3.571623208619491e-12 4.448149272419124e-27 -1.0
  outer loop
    vertex -15.735238063781498 -12.074072828613374 -5.61962920642145e-11
    vertex -16.344384788630492 -1.030099799508063 -5.840573580329078e-11
    vertex -15.94678110706207 -1.9900000000000257 -5.698447269608664e-11
  endloop
endfacet
facet normal 3.571623208619491e-12 4.448149272419124e-27 -1.0
  outer loop
    vertex -15.735238063781498 -12.074072828613374 -5.61962920642145e-11
    vertex -15.94678110706207 -1.9900000000000257 -5.698447269608664e-11
    vertex -15.314284989122461 -2.8142849891224815 -5.472849951004832e-11
  endloop
endfacet
facet normal 3.571623208619491e-12 4.448149272419124e-27 -1.0
  outer loop
    vertex -15.735238063781498 -12.074072828613374 -5.61962920642145e-11
    vertex -15.314284989122461 -2.8142849891224815 -5.472849951004832e-11
    vertex -12.499999999999991 -12.500000000000014 -4.46569892176285e-11
  endloop
endfacet
facet normal 3.571623208619491e-12 4.448149272419124e-27 -1.0
  outer loop
    vertex -12.499999999999991 -12.500000000000014 -4.46569892176285e-11
    vertex -15.314284989122461 -2.8142849891224815 -5.472849951004832e-11
    vertex -14.489999999999995 -3.4467811070621015 -5.179573436819851e-11
  endloop
endfacet
facet normal 3.571623208619491e-12 4.448149272419124e-27 -1.0
  outer loop
    vertex -12.499999999999991 -12.500000000000014 -4.46569892176285e-11
    vertex -14.489999999999995 -3.4467811070621015 -5.179573436819851e-11
    vertex -13.530099799508031 -3.8443847886304994 -4.8355375259490074e-11
  endloop
endfacet
facet normal 3.571623208619491e-12 4.448149272419124e-27 -1.0
  outer loop
    vertex -12.499999999999991 -12.500000000000014 -4.46569892176285e-11
    vertex -13.530099799508031 -3.8443847886304994 -4.8355375259490074e-11
    vertex -12.500000000000002 -3.980000000000029 -4.467813896624761e-11
  endloop
endfacet
facet normal 3.571623208619491e-12 4.448149272419124e-27 -1.0
  outer loop
    vertex -12.499999999999991 -12.500000000000014 -4.46569892176285e-11
    vertex -12.500000000000002 -3.980000000000029 -4.467813896624761e-11
    vertex -11.469900200491974 -3.8443847886304994 -4.098962280707496e-11
  endloop
endfacet
facet normal 3.571623208619491e-12 4.448149272419124e-27 -1.0
  outer loop
    vertex -12.499999999999991 -12.500000000000014 -4.46569892176285e-11
    vertex -11.469900200491974 -3.8443847886304994 -4.098962280707496e-11
    vertex -9.264761936218463 -12.074072828613353 -3.309512663918212e-11
  endloop
endfacet
facet normal 3.571623208619491e-12 4.448149272419124e-27 -1.0
  outer loop
    vertex -9.264761936218463 -12.074072828613353 -3.309512663918212e-11
    vertex -11.469900200491974 -3.8443847886304994 -4.098962280707496e-11
    vertex -10.51 -3.446781107062079 -3.757182343022691e-11
  endloop
endfacet
facet normal 3.571623208619491e-12 4.448149272419124e-27 -1.0
  outer loop
    vertex -9.264761936218463 -12.074072828613353 -3.309512663918212e-11
    vertex -10.51 -3.446781107062079 -3.757182343022691e-11
    vertex -9.685715010877544 -2.814284989122459 -3.462777842244691e-11
  endloop
endfacet
facet normal 3.571623208619491e-12 4.448149272419124e-27 -1.0
  outer loop
    vertex -9.264761936218463 -12.074072828613353 -3.309512663918212e-11
    vertex -9.685715010877544 -2.814284989122459 -3.462777842244691e-11
    vertex -9.053218892937947 -1.990000000000003 -3.23605253704784e-11
  endloop
endfacet
facet normal 3.571623208619491e-12 4.448149272419124e-27 -1.0
  outer loop
    vertex -9.264761936218463 -12.074072828613353 -3.309512663918212e-11
    vertex -9.053218892937947 -1.990000000000003 -3.23605253704784e-11
    vertex -6.2499999999999805 -10.8253175473055 -2.2345414407709538e-11
  endloop
endfacet
facet normal 3.571623208619491e-12 4.448149272419124e-27 -1.0
  outer loop
    vertex -6.2499999999999805 -10.8253175473055 -2.2345414407709538e-11
    vertex -9.053218892937947 -1.990000000000003 -3.23605253704784e-11
    vertex -8.655615211369502 -1.030099799508063 -3.0939262263274256e-11
  endloop
endfacet
facet normal 3.571623208619491e-12 4.448149272419124e-27 -1.0
  outer loop
    vertex -6.2499999999999805 -10.8253175473055 -2.2345414407709538e-11
    vertex -8.655615211369502 -1.030099799508063 -3.0939262263274256e-11
    vertex -8.52000000000002 -2.255973186038318e-14 -3.046550789420621e-11
  endloop
endfacet
facet normal 3.571623208619491e-12 4.448149272419124e-27 -1.0
  outer loop
    vertex -6.2499999999999805 -10.8253175473055 -2.2345414407709538e-11
    vertex -8.52000000000002 -2.255973186038318e-14 -3.046550789420621e-11
    vertex -6.250000000000025 10.825317547305477 -2.2345414407709538e-11
  endloop
endfacet
facet normal 3.571623208619491e-12 4.448149272419124e-27 -1.0
  outer loop
    vertex -6.2499999999999805 -10.8253175473055 -2.2345414407709538e-11
    vertex -6.250000000000025 10.825317547305477 -2.2345414407709538e-11
    vertex -3.6611652351681587 8.838834764831835 -1.3095924344952436e-11
  endloop
endfacet
facet normal 3.571623208619491e-12 4.448149272419124e-27 -1.0
  outer loop
    vertex -6.2499999999999805 -10.8253175473055 -2.2345414407709538e-11
    vertex -3.6611652351681587 8.838834764831835 -1.3095924344952436e-11
    vertex -3.6611652351681587 -8.838834764831857 -1.3095924344952436e-11
  endloop
endfacet
facet normal 3.571623208619491e-12 4.448149272419124e-27 -1.0
  outer loop
    vertex -3.6611652351681587 -8.838834764831857 -1.3095924344952436e-11
    vertex -3.6611652351681587 8.838834764831835 -1.3095924344952436e-11
    vertex -1.6746824526945157 6.249999999999991 -6.000888674861926e-12
  endloop
endfacet
facet normal 3.571623208619491e-12 4.448149272419124e-27 -1.0
  outer loop
    vertex -3.6611652351681587 -8.838834764831857 -1.3095924344952436e-11
    vertex -1.6746824526945157 6.249999999999991 -6.000888674861926e-12
    vertex -1.6746824526945157 -6.2499999999999885 -6.000888674861926e-12
  endloop
endfacet
facet normal 3.571623208619491e-12 4.448149272419124e-27 -1.0
  outer loop
    vertex -1.6746824526945157 -6.2499999999999885 -6.000888674861926e-12
    vertex -1.6746824526945157 6.249999999999991 -6.000888674861926e-12
    vertex -0.4259271713866638 3.2352380637815066 -1.5340617665060561e-12
  endloop
endfacet
facet normal 3.571623208619491e-12 4.448149272419124e-27 -1.0
  outer loop
    vertex -1.6746824526945157 -6.2499999999999885 -6.000888674861926e-12
    vertex -0.4259271713866638 3.2352380637815066 -1.5340617665060561e-12
    vertex -0.42592717138661873 -3.2352380637815177 -1.5340617665060561e-12
  endloop
endfacet
facet normal 3.571623208619491e-12 4.448149272419124e-27 -1.0
  outer loop
    vertex -0.42592717138661873 -3.2352380637815177 -1.5340617665060561e-12
    vertex -0.4259271713866638 3.2352380637815066 -1.5340617665060561e-12
    vertex 0.0 0.0 0.0
  endloop
endfacet
facet normal -3.5717145313703947e-12 -4.857761220473063e-27 1.0
  outer loop
    vertex -15.73523806402439 -12.074072828613374 67.99999999994381
    vertex -16.480000000242878 -2.255973186037832e-14 67.99999999994112
    vertex -18.75000000024286 -10.8253175473055 67.99999999993302
  endloop
endfacet
facet normal -3.5717145313703947e-12 -4.857761220473063e-27 1.0
  outer loop
    vertex -16.480000000242878 -2.255973186037832e-14 67.99999999994112
    vertex -15.73523806402439 -12.074072828613374 67.99999999994381
    vertex -16.34438478887337 -1.030099799508063 67.9999999999416
  endloop
endfacet
facet normal -3.5717145313703947e-12 -4.857761220473063e-27 1.0
  outer loop
    vertex -16.34438478887337 -1.030099799508063 67.9999999999416
    vertex -15.73523806402439 -12.074072828613374 67.99999999994381
    vertex -15.94678110730495 -1.9900000000000257 67.99999999994301
  endloop
endfacet
facet normal -3.5717145313703947e-12 -4.857761220473063e-27 1.0
  outer loop
    vertex -15.94678110730495 -1.9900000000000257 67.99999999994301
    vertex -15.73523806402439 -12.074072828613374 67.99999999994381
    vertex -15.314284989365342 -2.8142849891224815 67.99999999994527
  endloop
endfacet
facet normal -3.5717145313703947e-12 -4.857761220473063e-27 1.0
  outer loop
    vertex -15.314284989365342 -2.8142849891224815 67.99999999994527
    vertex -15.73523806402439 -12.074072828613374 67.99999999994381
    vertex -12.500000000242885 -12.500000000000014 67.99999999995535
  endloop
endfacet
facet normal -3.5717145313703947e-12 -4.857761220473063e-27 1.0
  outer loop
    vertex -15.314284989365342 -2.8142849891224815 67.99999999994527
    vertex -12.500000000242885 -12.500000000000014 67.99999999995535
    vertex -14.490000000242874 -3.4467811070621015 67.9999999999482
  endloop
endfacet
facet normal -3.5717145313703947e-12 -4.857761220473063e-27 1.0
  outer loop
    vertex -14.490000000242874 -3.4467811070621015 67.9999999999482
    vertex -12.500000000242885 -12.500000000000014 67.99999999995535
    vertex -13.530099799750912 -3.8443847886304994 67.99999999995163
  endloop
endfacet
facet normal -3.5717145313703947e-12 -4.857761220473063e-27 1.0
  outer loop
    vertex -13.530099799750912 -3.8443847886304994 67.99999999995163
    vertex -12.500000000242885 -12.500000000000014 67.99999999995535
    vertex -12.500000000242885 -3.980000000000029 67.9999999999553
  endloop
endfacet
facet normal -3.5717145313703947e-12 -4.857761220473063e-27 1.0
  outer loop
    vertex -12.500000000242885 -3.980000000000029 67.9999999999553
    vertex -12.500000000242885 -12.500000000000014 67.99999999995535
    vertex -9.264761936461356 -12.074072828613353 67.9999999999669
  endloop
endfacet
facet normal -3.5717145313703947e-12 -4.857761220473063e-27 1.0
  outer loop
    vertex -12.500000000242885 -3.980000000000029 67.9999999999553
    vertex -9.264761936461356 -12.074072828613353 67.9999999999669
    vertex -11.469900200734855 -3.8443847886304994 67.999999999959
  endloop
endfacet
facet normal -3.5717145313703947e-12 -4.857761220473063e-27 1.0
  outer loop
    vertex -11.469900200734855 -3.8443847886304994 67.999999999959
    vertex -9.264761936461356 -12.074072828613353 67.9999999999669
    vertex -10.510000000242881 -3.446781107062079 67.99999999996241
  endloop
endfacet
facet normal -3.5717145313703947e-12 -4.857761220473063e-27 1.0
  outer loop
    vertex -10.510000000242881 -3.446781107062079 67.99999999996241
    vertex -9.264761936461356 -12.074072828613353 67.9999999999669
    vertex -9.685715011120426 -2.814284989122459 67.99999999996537
  endloop
endfacet
facet normal -3.5717145313703947e-12 -4.857761220473063e-27 1.0
  outer loop
    vertex -9.685715011120426 -2.814284989122459 67.99999999996537
    vertex -9.264761936461356 -12.074072828613353 67.9999999999669
    vertex -9.053218893180828 -1.990000000000003 67.99999999996763
  endloop
endfacet
facet normal -3.5717145313703947e-12 -4.857761220473063e-27 1.0
  outer loop
    vertex -9.053218893180828 -1.990000000000003 67.99999999996763
    vertex -9.264761936461356 -12.074072828613353 67.9999999999669
    vertex -6.250000000242873 -10.8253175473055 67.99999999997766
  endloop
endfacet
facet normal -3.5717145313703947e-12 -4.857761220473063e-27 1.0
  outer loop
    vertex -9.053218893180828 -1.990000000000003 67.99999999996763
    vertex -6.250000000242873 -10.8253175473055 67.99999999997766
    vertex -8.655615211612385 -1.030099799508063 67.99999999996905
  endloop
endfacet
facet normal -3.5717145313703947e-12 -4.857761220473063e-27 1.0
  outer loop
    vertex -8.655615211612385 -1.030099799508063 67.99999999996905
    vertex -6.250000000242873 -10.8253175473055 67.99999999997766
    vertex -8.5200000002429 -2.255973186037832e-14 67.99999999996952
  endloop
endfacet
facet normal -3.5717145313703947e-12 -4.857761220473063e-27 1.0
  outer loop
    vertex -8.5200000002429 -2.255973186037832e-14 67.99999999996952
    vertex -6.250000000242873 -10.8253175473055 67.99999999997766
    vertex -6.250000000242919 10.825317547305477 67.99999999997766
  endloop
endfacet
facet normal -3.5717145313703947e-12 -4.857761220473063e-27 1.0
  outer loop
    vertex -6.250000000242919 10.825317547305477 67.99999999997766
    vertex -6.250000000242873 -10.8253175473055 67.99999999997766
    vertex -3.6611652354110524 8.838834764831835 67.99999999998691
  endloop
endfacet
facet normal -3.5717145313703947e-12 -4.857761220473063e-27 1.0
  outer loop
    vertex -3.6611652354110524 8.838834764831835 67.99999999998691
    vertex -6.250000000242873 -10.8253175473055 67.99999999997766
    vertex -3.66116523541103 -8.838834764831857 67.99999999998691
  endloop
endfacet
facet normal -3.5717145313703947e-12 -4.857761220473063e-27 1.0
  outer loop
    vertex -3.6611652354110524 8.838834764831835 67.99999999998691
    vertex -3.66116523541103 -8.838834764831857 67.99999999998691
    vertex -1.674682452937409 6.249999999999991 67.99999999999402
  endloop
endfacet
facet normal -3.5717145313703947e-12 -4.857761220473063e-27 1.0
  outer loop
    vertex -1.674682452937409 6.249999999999991 67.99999999999402
    vertex -3.66116523541103 -8.838834764831857 67.99999999998691
    vertex -1.6746824529373863 -6.2499999999999885 67.99999999999402
  endloop
endfacet
facet normal -3.5717145313703947e-12 -4.857761220473063e-27 1.0
  outer loop
    vertex -1.674682452937409 6.249999999999991 67.99999999999402
    vertex -1.6746824529373863 -6.2499999999999885 67.99999999999402
    vertex -0.4259271716295346 3.2352380637815066 67.99999999999847
  endloop
endfacet
facet normal -3.5717145313703947e-12 -4.857761220473063e-27 1.0
  outer loop
    vertex -0.4259271716295346 3.2352380637815066 67.99999999999847
    vertex -1.6746824529373863 -6.2499999999999885 67.99999999999402
    vertex -0.4259271716295346 -3.2352380637815177 67.99999999999847
  endloop
endfacet
facet normal -3.5717145313703947e-12 -4.857761220473063e-27 1.0
  outer loop
    vertex -0.4259271716295346 3.2352380637815066 67.99999999999847
    vertex -0.4259271716295346 -3.2352380637815177 67.99999999999847
    vertex -2.4289335604331586e-10 4.857761220473062e-27 68.0
  endloop
endfacet
facet normal -3.5717145313703947e-12 -4.857761220473063e-27 1.0
  outer loop
    vertex -24.574072828856245 -3.235238063781563 67.99999999991222
    vertex -24.574072828856256 3.2352380637814724 67.99999999991222
    vertex -25.000000000242895 -2.255973186037832e-14 67.99999999991071
  endloop
endfacet
facet normal -3.5717145313703947e-12 -4.857761220473063e-27 1.0
  outer loop
    vertex -24.574072828856256 3.2352380637814724 67.99999999991222
    vertex -24.574072828856245 -3.235238063781563 67.99999999991222
    vertex -23.32531754754838 6.249999999999969 67.99999999991668
  endloop
endfacet
facet normal -3.5717145313703947e-12 -4.857761220473063e-27 1.0
  outer loop
    vertex -23.32531754754838 6.249999999999969 67.99999999991668
    vertex -24.574072828856245 -3.235238063781563 67.99999999991222
    vertex -23.32531754754837 -6.250000000000034 67.99999999991668
  endloop
endfacet
facet normal -3.5717145313703947e-12 -4.857761220473063e-27 1.0
  outer loop
    vertex -23.32531754754838 6.249999999999969 67.99999999991668
    vertex -23.32531754754837 -6.250000000000034 67.99999999991668
    vertex -21.33883476507474 8.838834764831812 67.99999999992377
  endloop
endfacet
facet normal -3.5717145313703947e-12 -4.857761220473063e-27 1.0
  outer loop
    vertex -21.33883476507474 8.838834764831812 67.99999999992377
    vertex -23.32531754754837 -6.250000000000034 67.99999999991668
    vertex -21.338834765074726 -8.838834764831857 67.99999999992377
  endloop
endfacet
facet normal -3.5717145313703947e-12 -4.857761220473063e-27 1.0
  outer loop
    vertex -21.33883476507474 8.838834764831812 67.99999999992377
    vertex -21.338834765074726 -8.838834764831857 67.99999999992377
    vertex -18.750000000242895 10.825317547305467 67.99999999993302
  endloop
endfacet
facet normal -3.5717145313703947e-12 -4.857761220473063e-27 1.0
  outer loop
    vertex -18.750000000242895 10.825317547305467 67.99999999993302
    vertex -21.338834765074726 -8.838834764831857 67.99999999992377
    vertex -18.75000000024286 -10.8253175473055 67.99999999993302
  endloop
endfacet
facet normal -3.5717145313703947e-12 -4.857761220473063e-27 1.0
  outer loop
    vertex -18.750000000242895 10.825317547305467 67.99999999993302
    vertex -18.75000000024286 -10.8253175473055 67.99999999993302
    vertex -15.735238064024413 12.07407282861333 67.99999999994381
  endloop
endfacet
facet normal -3.5717145313703947e-12 -4.857761220473063e-27 1.0
  outer loop
    vertex -15.735238064024413 12.07407282861333 67.99999999994381
    vertex -18.75000000024286 -10.8253175473055 67.99999999993302
    vertex -16.480000000242878 -2.255973186037832e-14 67.99999999994112
  endloop
endfacet
facet normal -3.5717145313703947e-12 -4.857761220473063e-27 1.0
  outer loop
    vertex -15.735238064024413 12.07407282861333 67.99999999994381
    vertex -16.480000000242878 -2.255973186037832e-14 67.99999999994112
    vertex -16.34438478887337 1.0300997995080179 67.9999999999416
  endloop
endfacet
facet normal -3.5717145313703947e-12 -4.857761220473063e-27 1.0
  outer loop
    vertex -15.735238064024413 12.07407282861333 67.99999999994381
    vertex -16.34438478887337 1.0300997995080179 67.9999999999416
    vertex -15.94678110730495 1.989999999999958 67.99999999994301
  endloop
endfacet
facet normal -3.5717145313703947e-12 -4.857761220473063e-27 1.0
  outer loop
    vertex -15.735238064024413 12.07407282861333 67.99999999994381
    vertex -15.94678110730495 1.989999999999958 67.99999999994301
    vertex -15.314284989365353 2.814284989122425 67.99999999994527
  endloop
endfacet
facet normal -3.5717145313703947e-12 -4.857761220473063e-27 1.0
  outer loop
    vertex -15.735238064024413 12.07407282861333 67.99999999994381
    vertex -15.314284989365353 2.814284989122425 67.99999999994527
    vertex -12.500000000242908 12.49999999999998 67.99999999995535
  endloop
endfacet
facet normal -3.5717145313703947e-12 -4.857761220473063e-27 1.0
  outer loop
    vertex -12.500000000242908 12.49999999999998 67.99999999995535
    vertex -15.314284989365353 2.814284989122425 67.99999999994527
    vertex -14.490000000242897 3.4467811070620336 67.9999999999482
  endloop
endfacet
facet normal -3.5717145313703947e-12 -4.857761220473063e-27 1.0
  outer loop
    vertex -12.500000000242908 12.49999999999998 67.99999999995535
    vertex -14.490000000242897 3.4467811070620336 67.9999999999482
    vertex -13.530099799750923 3.8443847886304656 67.99999999995163
  endloop
endfacet
facet normal -3.5717145313703947e-12 -4.857761220473063e-27 1.0
  outer loop
    vertex -12.500000000242908 12.49999999999998 67.99999999995535
    vertex -13.530099799750923 3.8443847886304656 67.99999999995163
    vertex -12.500000000242895 3.9799999999999724 67.9999999999553
  endloop
endfacet
facet normal -3.5717145313703947e-12 -4.857761220473063e-27 1.0
  outer loop
    vertex -12.500000000242908 12.49999999999998 67.99999999995535
    vertex -12.500000000242895 3.9799999999999724 67.9999999999553
    vertex -9.264761936461401 12.07407282861334 67.9999999999669
  endloop
endfacet
facet normal -3.5717145313703947e-12 -4.857761220473063e-27 1.0
  outer loop
    vertex -9.264761936461401 12.07407282861334 67.9999999999669
    vertex -12.500000000242895 3.9799999999999724 67.9999999999553
    vertex -11.469900200734868 3.8443847886304656 67.999999999959
  endloop
endfacet
facet normal -3.5717145313703947e-12 -4.857761220473063e-27 1.0
  outer loop
    vertex -9.264761936461401 12.07407282861334 67.9999999999669
    vertex -11.469900200734868 3.8443847886304656 67.999999999959
    vertex -10.510000000242881 3.446781107062045 67.99999999996241
  endloop
endfacet
facet normal -3.5717145313703947e-12 -4.857761220473063e-27 1.0
  outer loop
    vertex -9.264761936461401 12.07407282861334 67.9999999999669
    vertex -10.510000000242881 3.446781107062045 67.99999999996241
    vertex -9.685715011120426 2.814284989122436 67.99999999996537
  endloop
endfacet
facet normal -3.5717145313703947e-12 -4.857761220473063e-27 1.0
  outer loop
    vertex -9.264761936461401 12.07407282861334 67.9999999999669
    vertex -9.685715011120426 2.814284989122436 67.99999999996537
    vertex -9.053218893180828 1.9899999999999805 67.99999999996763
  endloop
endfacet
facet normal -3.5717145313703947e-12 -4.857761220473063e-27 1.0
  outer loop
    vertex -9.264761936461401 12.07407282861334 67.9999999999669
    vertex -9.053218893180828 1.9899999999999805 67.99999999996763
    vertex -6.250000000242919 10.825317547305477 67.99999999997766
  endloop
endfacet
facet normal -3.5717145313703947e-12 -4.857761220473063e-27 1.0
  outer loop
    vertex -6.250000000242919 10.825317547305477 67.99999999997766
    vertex -9.053218893180828 1.9899999999999805 67.99999999996763
    vertex -8.655615211612385 1.0300997995080179 67.99999999996905
  endloop
endfacet
facet normal -3.5717145313703947e-12 -4.857761220473063e-27 1.0
  outer loop
    vertex -6.250000000242919 10.825317547305477 67.99999999997766
    vertex -8.655615211612385 1.0300997995080179 67.99999999996905
    vertex -8.5200000002429 -2.255973186037832e-14 67.99999999996952
  endloop
endfacet
facet normal -0.1305261922200721 0.9914448613738077 -4.662125574847007e-13
  outer loop
    vertex -12.500000000242885 -3.980000000000029 67.9999999999553
    vertex -11.469900200491974 -3.8443847886304994 -4.098962280707496e-11
    vertex -12.500000000000002 -3.980000000000029 -4.467813896624761e-11
  endloop
endfacet
facet normal -0.1305261922200721 0.9914448613738077 -4.662125574847007e-13
  outer loop
    vertex -11.469900200491974 -3.8443847886304994 -4.098962280707496e-11
    vertex -12.500000000242885 -3.980000000000029 67.9999999999553
    vertex -11.469900200734855 -3.8443847886304994 67.999999999959
  endloop
endfacet
facet normal 0.1305261922200721 0.9914448613738077 4.662126405566617e-13
  outer loop
    vertex -13.530099799750912 -3.8443847886304994 67.99999999995163
    vertex -12.500000000000002 -3.980000000000029 -4.467813896624761e-11
    vertex -13.530099799508031 -3.8443847886304994 -4.8355375259490074e-11
  endloop
endfacet
facet normal 0.1305261922200721 0.9914448613738077 4.662126405566617e-13
  outer loop
    vertex -12.500000000000002 -3.980000000000029 -4.467813896624761e-11
    vertex -13.530099799750912 -3.8443847886304994 67.99999999995163
    vertex -12.500000000242885 -3.980000000000029 67.9999999999553
  endloop
endfacet
facet normal 0.3826834323650683 0.9238795325112956 1.3668664294962397e-12
  outer loop
    vertex -14.490000000242874 -3.4467811070621015 67.9999999999482
    vertex -13.530099799508031 -3.8443847886304994 -4.8355375259490074e-11
    vertex -14.489999999999995 -3.4467811070621015 -5.179573436819851e-11
  endloop
endfacet
facet normal 0.3826834323650683 0.9238795325112956 1.3668664294962397e-12
  outer loop
    vertex -13.530099799508031 -3.8443847886304994 -4.8355375259490074e-11
    vertex -14.490000000242874 -3.4467811070621015 67.9999999999482
    vertex -13.530099799750912 -3.8443847886304994 67.99999999995163
  endloop
endfacet
facet normal 0.6087614290087251 0.793353340291232 2.1743700283474313e-12
  outer loop
    vertex -15.314284989365342 -2.8142849891224815 67.99999999994527
    vertex -14.489999999999995 -3.4467811070621015 -5.179573436819851e-11
    vertex -15.314284989122461 -2.8142849891224815 -5.472849951004832e-11
  endloop
endfacet
facet normal 0.6087614290087251 0.793353340291232 2.1743700283474313e-12
  outer loop
    vertex -14.489999999999995 -3.4467811070621015 -5.179573436819851e-11
    vertex -15.314284989365342 -2.8142849891224815 67.99999999994527
    vertex -14.490000000242874 -3.4467811070621015 67.9999999999482
  endloop
endfacet
facet normal 0.7933533402912332 0.6087614290087233 2.8336946927242434e-12
  outer loop
    vertex -15.94678110706207 -1.9900000000000257 -5.698447269608664e-11
    vertex -15.314284989365342 -2.8142849891224815 67.99999999994527
    vertex -15.314284989122461 -2.8142849891224815 -5.472849951004832e-11
  endloop
endfacet
facet normal 0.7933533402912332 0.6087614290087233 2.8336946927242434e-12
  outer loop
    vertex -15.314284989365342 -2.8142849891224815 67.99999999994527
    vertex -15.94678110706207 -1.9900000000000257 -5.698447269608664e-11
    vertex -15.94678110730495 -1.9900000000000257 67.99999999994301
  endloop
endfacet
facet normal 0.9238795325112881 0.38268343236508684 3.2999079063975233e-12
  outer loop
    vertex -16.344384788630492 -1.030099799508063 -5.840573580329078e-11
    vertex -15.94678110730495 -1.9900000000000257 67.99999999994301
    vertex -15.94678110706207 -1.9900000000000257 -5.698447269608664e-11
  endloop
endfacet
facet normal 0.9238795325112881 0.38268343236508684 3.2999079063975233e-12
  outer loop
    vertex -15.94678110730495 -1.9900000000000257 67.99999999994301
    vertex -16.344384788630492 -1.030099799508063 -5.840573580329078e-11
    vertex -16.34438478887337 -1.030099799508063 67.9999999999416
  endloop
endfacet
facet normal 0.9914448613738107 0.13052619222004938 3.5412368131152497e-12
  outer loop
    vertex -16.479999999999997 -2.255973186038318e-14 -5.887949017235882e-11
    vertex -16.34438478887337 -1.030099799508063 67.9999999999416
    vertex -16.344384788630492 -1.030099799508063 -5.840573580329078e-11
  endloop
endfacet
facet normal 0.9914448613738107 0.13052619222004938 3.5412368131152497e-12
  outer loop
    vertex -16.34438478887337 -1.030099799508063 67.9999999999416
    vertex -16.479999999999997 -2.255973186038318e-14 -5.887949017235882e-11
    vertex -16.480000000242878 -2.255973186037832e-14 67.99999999994112
  endloop
endfacet
facet normal 0.9914448613738107 -0.13052619222004938 3.5412368131152497e-12
  outer loop
    vertex -16.344384788630492 1.0300997995080179 -5.840573580329078e-11
    vertex -16.480000000242878 -2.255973186037832e-14 67.99999999994112
    vertex -16.479999999999997 -2.255973186038318e-14 -5.887949017235882e-11
  endloop
endfacet
facet normal 0.9914448613738107 -0.13052619222004938 3.5412368131152497e-12
  outer loop
    vertex -16.480000000242878 -2.255973186037832e-14 67.99999999994112
    vertex -16.344384788630492 1.0300997995080179 -5.840573580329078e-11
    vertex -16.34438478887337 1.0300997995080179 67.9999999999416
  endloop
endfacet
facet normal 0.9238795325112849 -0.38268343236509456 3.299907906397512e-12
  outer loop
    vertex -15.94678110706207 1.989999999999958 -5.698447269608664e-11
    vertex -16.34438478887337 1.0300997995080179 67.9999999999416
    vertex -16.344384788630492 1.0300997995080179 -5.840573580329078e-11
  endloop
endfacet
facet normal 0.9238795325112849 -0.38268343236509456 3.299907906397512e-12
  outer loop
    vertex -16.34438478887337 1.0300997995080179 67.9999999999416
    vertex -15.94678110706207 1.989999999999958 -5.698447269608664e-11
    vertex -15.94678110730495 1.989999999999958 67.99999999994301
  endloop
endfacet
facet normal 0.7933533402912424 -0.6087614290087113 2.8336941203150483e-12
  outer loop
    vertex -15.314284989122473 2.814284989122425 -5.472849951004832e-11
    vertex -15.94678110730495 1.989999999999958 67.99999999994301
    vertex -15.94678110706207 1.989999999999958 -5.698447269608664e-11
  endloop
endfacet
facet normal 0.7933533402912424 -0.6087614290087113 2.8336941203150483e-12
  outer loop
    vertex -15.94678110730495 1.989999999999958 67.99999999994301
    vertex -15.314284989122473 2.814284989122425 -5.472849951004832e-11
    vertex -15.314284989365353 2.814284989122425 67.99999999994527
  endloop
endfacet
facet normal 0.6087614290087233 -0.7933533402912332 2.1743700283474252e-12
  outer loop
    vertex -14.490000000000016 3.4467811070620336 -5.179573436819851e-11
    vertex -15.314284989365353 2.814284989122425 67.99999999994527
    vertex -15.314284989122473 2.814284989122425 -5.472849951004832e-11
  endloop
endfacet
facet normal 0.6087614290087233 -0.7933533402912332 2.1743700283474252e-12
  outer loop
    vertex -15.314284989365353 2.814284989122425 67.99999999994527
    vertex -14.490000000000016 3.4467811070620336 -5.179573436819851e-11
    vertex -14.490000000242897 3.4467811070620336 67.9999999999482
  endloop
endfacet
facet normal 0.3826834323650923 -0.9238795325112857 1.3668664294963252e-12
  outer loop
    vertex -13.530099799508044 3.8443847886304656 -4.8355375259490074e-11
    vertex -14.490000000242897 3.4467811070620336 67.9999999999482
    vertex -14.490000000000016 3.4467811070620336 -5.179573436819851e-11
  endloop
endfacet
facet normal 0.3826834323650923 -0.9238795325112857 1.3668664294963252e-12
  outer loop
    vertex -14.490000000242897 3.4467811070620336 67.9999999999482
    vertex -13.530099799508044 3.8443847886304656 -4.8355375259490074e-11
    vertex -13.530099799750923 3.8443847886304656 67.99999999995163
  endloop
endfacet
facet normal 0.1305261922200508 -0.9914448613738105 4.662126405565854e-13
  outer loop
    vertex -12.500000000000014 3.9799999999999724 -4.467813896624761e-11
    vertex -13.530099799750923 3.8443847886304656 67.99999999995163
    vertex -13.530099799508044 3.8443847886304656 -4.8355375259490074e-11
  endloop
endfacet
facet normal 0.1305261922200508 -0.9914448613738105 4.662126405565854e-13
  outer loop
    vertex -13.530099799750923 3.8443847886304656 67.99999999995163
    vertex -12.500000000000014 3.9799999999999724 -4.467813896624761e-11
    vertex -12.500000000242895 3.9799999999999724 67.9999999999553
  endloop
endfacet
facet normal -0.1305261922200508 -0.9914448613738105 -4.662126740147136e-13
  outer loop
    vertex -11.469900200491985 3.8443847886304656 -4.098962280707496e-11
    vertex -12.500000000242895 3.9799999999999724 67.9999999999553
    vertex -12.500000000000014 3.9799999999999724 -4.467813896624761e-11
  endloop
endfacet
facet normal -0.1305261922200508 -0.9914448613738105 -4.662126740147136e-13
  outer loop
    vertex -12.500000000242895 3.9799999999999724 67.9999999999553
    vertex -11.469900200491985 3.8443847886304656 -4.098962280707496e-11
    vertex -11.469900200734868 3.8443847886304656 67.999999999959
  endloop
endfacet
facet normal -0.3826834323650793 -0.9238795325112913 -1.3668663113178596e-12
  outer loop
    vertex -10.51 3.446781107062045 -3.757182343022691e-11
    vertex -11.469900200734868 3.8443847886304656 67.999999999959
    vertex -11.469900200491985 3.8443847886304656 -4.098962280707496e-11
  endloop
endfacet
facet normal -0.3826834323650793 -0.9238795325112913 -1.3668663113178596e-12
  outer loop
    vertex -11.469900200734868 3.8443847886304656 67.999999999959
    vertex -10.51 3.446781107062045 -3.757182343022691e-11
    vertex -10.510000000242881 3.446781107062045 67.99999999996241
  endloop
endfacet
facet normal -0.6087614290087232 -0.7933533402912332 -2.174370176065316e-12
  outer loop
    vertex -9.685715010877544 2.814284989122436 -3.462777842244691e-11
    vertex -10.510000000242881 3.446781107062045 67.99999999996241
    vertex -10.51 3.446781107062045 -3.757182343022691e-11
  endloop
endfacet
facet normal -0.6087614290087232 -0.7933533402912332 -2.174370176065316e-12
  outer loop
    vertex -10.510000000242881 3.446781107062045 67.99999999996241
    vertex -9.685715010877544 2.814284989122436 -3.462777842244691e-11
    vertex -9.685715011120426 2.814284989122436 67.99999999996537
  endloop
endfacet
facet normal -0.7933533402912385 -0.6087614290087165 -2.8336949789288775e-12
  outer loop
    vertex -9.685715011120426 2.814284989122436 67.99999999996537
    vertex -9.053218892937947 1.9899999999999805 -3.23605253704784e-11
    vertex -9.053218893180828 1.9899999999999805 67.99999999996763
  endloop
endfacet
facet normal -0.7933533402912385 -0.6087614290087165 -2.8336949789288775e-12
  outer loop
    vertex -9.053218892937947 1.9899999999999805 -3.23605253704784e-11
    vertex -9.685715011120426 2.814284989122436 67.99999999996537
    vertex -9.685715010877544 2.814284989122436 -3.462777842244691e-11
  endloop
endfacet
facet normal -0.9238795325112803 -0.3826834323651054 -3.299907112210989e-12
  outer loop
    vertex -9.053218893180828 1.9899999999999805 67.99999999996763
    vertex -8.655615211369502 1.0300997995080179 -3.0939262263274256e-11
    vertex -8.655615211612385 1.0300997995080179 67.99999999996905
  endloop
endfacet
facet normal -0.9238795325112803 -0.3826834323651054 -3.299907112210989e-12
  outer loop
    vertex -8.655615211369502 1.0300997995080179 -3.0939262263274256e-11
    vertex -9.053218893180828 1.9899999999999805 67.99999999996763
    vertex -9.053218892937947 1.9899999999999805 -3.23605253704784e-11
  endloop
endfacet
facet normal -0.9914448613738136 -0.13052619222002804 -3.5412368131152614e-12
  outer loop
    vertex -8.5200000002429 -2.255973186037832e-14 67.99999999996952
    vertex -8.655615211369502 1.0300997995080179 -3.0939262263274256e-11
    vertex -8.52000000000002 -2.255973186038318e-14 -3.046550789420621e-11
  endloop
endfacet
facet normal -0.9914448613738136 -0.13052619222002804 -3.5412368131152614e-12
  outer loop
    vertex -8.655615211369502 1.0300997995080179 -3.0939262263274256e-11
    vertex -8.5200000002429 -2.255973186037832e-14 67.99999999996952
    vertex -8.655615211612385 1.0300997995080179 67.99999999996905
  endloop
endfacet
facet normal -0.9914448613738136 0.13052619222002804 -3.5412368131152614e-12
  outer loop
    vertex -8.5200000002429 -2.255973186037832e-14 67.99999999996952
    vertex -8.655615211369502 -1.030099799508063 -3.0939262263274256e-11
    vertex -8.655615211612385 -1.030099799508063 67.99999999996905
  endloop
endfacet
facet normal -0.9914448613738136 0.13052619222002804 -3.5412368131152614e-12
  outer loop
    vertex -8.655615211369502 -1.030099799508063 -3.0939262263274256e-11
    vertex -8.5200000002429 -2.255973186037832e-14 67.99999999996952
    vertex -8.52000000000002 -2.255973186038318e-14 -3.046550789420621e-11
  endloop
endfacet
facet normal -0.9238795325112771 0.3826834323651131 -3.2999071122109773e-12
  outer loop
    vertex -8.655615211612385 -1.030099799508063 67.99999999996905
    vertex -9.053218892937947 -1.990000000000003 -3.23605253704784e-11
    vertex -9.053218893180828 -1.990000000000003 67.99999999996763
  endloop
endfacet
facet normal -0.9238795325112771 0.3826834323651131 -3.2999071122109773e-12
  outer loop
    vertex -9.053218892937947 -1.990000000000003 -3.23605253704784e-11
    vertex -8.655615211612385 -1.030099799508063 67.99999999996905
    vertex -8.655615211369502 -1.030099799508063 -3.0939262263274256e-11
  endloop
endfacet
facet normal -0.7933533402912385 0.6087614290087165 -2.8336949789288775e-12
  outer loop
    vertex -9.053218893180828 -1.990000000000003 67.99999999996763
    vertex -9.685715010877544 -2.814284989122459 -3.462777842244691e-11
    vertex -9.685715011120426 -2.814284989122459 67.99999999996537
  endloop
endfacet
facet normal -0.7933533402912385 0.6087614290087165 -2.8336949789288775e-12
  outer loop
    vertex -9.685715010877544 -2.814284989122459 -3.462777842244691e-11
    vertex -9.053218893180828 -1.990000000000003 67.99999999996763
    vertex -9.053218892937947 -1.990000000000003 -3.23605253704784e-11
  endloop
endfacet
facet normal -0.6087614290087302 0.7933533402912278 -2.1743705490544555e-12
  outer loop
    vertex -10.510000000242881 -3.446781107062079 67.99999999996241
    vertex -9.685715010877544 -2.814284989122459 -3.462777842244691e-11
    vertex -10.51 -3.446781107062079 -3.757182343022691e-11
  endloop
endfacet
facet normal -0.6087614290087302 0.7933533402912278 -2.1743705490544555e-12
  outer loop
    vertex -9.685715010877544 -2.814284989122459 -3.462777842244691e-11
    vertex -10.510000000242881 -3.446781107062079 67.99999999996241
    vertex -9.685715011120426 -2.814284989122459 67.99999999996537
  endloop
endfacet
facet normal -0.3826834323650831 0.9238795325112897 -1.3668663113178732e-12
  outer loop
    vertex -11.469900200734855 -3.8443847886304994 67.999999999959
    vertex -10.51 -3.446781107062079 -3.757182343022691e-11
    vertex -11.469900200491974 -3.8443847886304994 -4.098962280707496e-11
  endloop
endfacet
facet normal -0.3826834323650831 0.9238795325112897 -1.3668663113178732e-12
  outer loop
    vertex -10.51 -3.446781107062079 -3.757182343022691e-11
    vertex -11.469900200734855 -3.8443847886304994 67.999999999959
    vertex -10.510000000242881 -3.446781107062079 67.99999999996241
  endloop
endfacet
endsolid roller-x4
