solid roller-x4
facet normal -0.6087614290087243 -0.7933533402912326 -2.1743811647349343e-12
  outer loop
    vertex -1.9750000002830308 -7.400800344948535 79.24486578309379
    vertex -2.7930717860056093 -6.773071785686847 89.24486578309086
    vertex -2.7930717859698917 -6.773071785686847 79.24486578309086
  endloop
endfacet
facet normal -0.6087614290087243 -0.7933533402912326 -2.1743811647349343e-12
  outer loop
    vertex -2.7930717860056093 -6.773071785686847 89.24486578309086
    vertex -1.9750000002830308 -7.400800344948535 79.24486578309379
    vertex -1.9750000003187484 -7.400800344948535 89.24486578309377
  endloop
endfacet
facet normal 3.571936317139041e-12 -1.4049554487131431e-27 -1.0
  outer loop
    vertex -1.0300997995080037 -7.824384788630461 -3.790034952544374e-12
    vertex 1.0300997995080545 -7.824384788630461 3.575717499870734e-12
    vertex 2.5379698342931078e-14 -7.95999999999999 -1.127986593019159e-13
  endloop
endfacet
facet normal 3.571936317139041e-12 -1.4049554487131431e-27 -1.0
  outer loop
    vertex 1.0300997995080545 -7.824384788630461 3.575717499870734e-12
    vertex -1.0300997995080037 -7.824384788630461 -3.790034952544374e-12
    vertex -1.9899999999999665 -7.426781107062062 -7.230394061252809e-12
  endloop
endfacet
facet normal 3.571936317139041e-12 -1.4049554487131431e-27 -1.0
  outer loop
    vertex 1.0300997995080545 -7.824384788630461 3.575717499870734e-12
    vertex -1.9899999999999665 -7.426781107062062 -7.230394061252809e-12
    vertex 1.9900000000000284 -7.42678110706204 6.993516876718786e-12
  endloop
endfacet
facet normal 3.571936317139041e-12 -1.4049554487131431e-27 -1.0
  outer loop
    vertex 1.9900000000000284 -7.42678110706204 6.993516876718786e-12
    vertex -1.9899999999999665 -7.426781107062062 -7.230394061252809e-12
    vertex -2.8142849891224335 -6.794284989122443 -1.0163159203102622e-11
  endloop
endfacet
facet normal 3.571936317139041e-12 -1.4049554487131431e-27 -1.0
  outer loop
    vertex 1.9900000000000284 -7.42678110706204 6.993516876718786e-12
    vertex -2.8142849891224335 -6.794284989122443 -1.0163159203102622e-11
    vertex 2.814284989122484 -6.79428498912242 9.93756188449879e-12
  endloop
endfacet
facet normal 3.571936317139041e-12 -1.4049554487131431e-27 -1.0
  outer loop
    vertex 2.814284989122484 -6.79428498912242 9.93756188449879e-12
    vertex -2.8142849891224335 -6.794284989122443 -1.0163159203102622e-11
    vertex -3.446781107062042 -5.969999999999986 -1.241913238914094e-11
  endloop
endfacet
facet normal 3.571936317139041e-12 -1.4049554487131431e-27 -1.0
  outer loop
    vertex 2.814284989122484 -6.79428498912242 9.93756188449879e-12
    vertex -3.446781107062042 -5.969999999999986 -1.241913238914094e-11
    vertex 3.4467811070620815 -5.969999999999964 1.22048149364673e-11
  endloop
endfacet
facet normal 3.571936317139041e-12 -1.4049554487131431e-27 -1.0
  outer loop
    vertex 3.4467811070620815 -5.969999999999964 1.22048149364673e-11
    vertex -3.446781107062042 -5.969999999999986 -1.241913238914094e-11
    vertex -3.8443847886304625 -5.010099799508024 -1.3840395496345081e-11
  endloop
endfacet
facet normal 3.571936317139041e-12 -1.4049554487131431e-27 -1.0
  outer loop
    vertex 3.4467811070620815 -5.969999999999964 1.22048149364673e-11
    vertex -3.8443847886304625 -5.010099799508024 -1.3840395496345081e-11
    vertex 3.8443847886305247 -5.010099799508024 1.362607804367144e-11
  endloop
endfacet
facet normal 3.571936317139041e-12 -1.4049554487131431e-27 -1.0
  outer loop
    vertex 3.8443847886305247 -5.010099799508024 1.362607804367144e-11
    vertex -3.8443847886304625 -5.010099799508024 -1.3840395496345081e-11
    vertex -3.97999999999997 -3.9799999999999836 -1.4314149865413128e-11
  endloop
endfacet
facet normal 3.571936317139041e-12 -1.4049554487131431e-27 -1.0
  outer loop
    vertex 3.8443847886305247 -5.010099799508024 1.362607804367144e-11
    vertex -3.97999999999997 -3.9799999999999836 -1.4314149865413128e-11
    vertex 3.980000000000009 -3.9799999999999836 1.4099832412739488e-11
  endloop
endfacet
facet normal 3.571936317139041e-12 -1.4049554487131431e-27 -1.0
  outer loop
    vertex 3.980000000000009 -3.9799999999999836 1.4099832412739488e-11
    vertex -3.97999999999997 -3.9799999999999836 -1.4314149865413128e-11
    vertex -3.8443847886304625 -2.9499002004919435 -1.3840395496345081e-11
  endloop
endfacet
facet normal 3.571936317139041e-12 -1.4049554487131431e-27 -1.0
  outer loop
    vertex 3.980000000000009 -3.9799999999999836 1.4099832412739488e-11
    vertex -3.8443847886304625 -2.9499002004919435 -1.3840395496345081e-11
    vertex 3.8443847886305247 -2.9499002004919435 1.362607804367144e-11
  endloop
endfacet
facet normal 3.571936317139041e-12 -1.4049554487131431e-27 -1.0
  outer loop
    vertex 3.8443847886305247 -2.9499002004919435 1.362607804367144e-11
    vertex -3.8443847886304625 -2.9499002004919435 -1.3840395496345081e-11
    vertex -3.446781107062042 -1.990000000000003 -1.241913238914094e-11
  endloop
endfacet
facet normal 3.571936317139041e-12 -1.4049554487131431e-27 -1.0
  outer loop
    vertex 3.8443847886305247 -2.9499002004919435 1.362607804367144e-11
    vertex -3.446781107062042 -1.990000000000003 -1.241913238914094e-11
    vertex 3.4467811070620815 -1.9899999999999805 1.22048149364673e-11
  endloop
endfacet
facet normal 3.571936317139041e-12 -1.4049554487131431e-27 -1.0
  outer loop
    vertex 3.4467811070620815 -1.9899999999999805 1.22048149364673e-11
    vertex -3.446781107062042 -1.990000000000003 -1.241913238914094e-11
    vertex -2.8142849891224446 -1.165715010877536 -1.0163159203102622e-11
  endloop
endfacet
facet normal 3.571936317139041e-12 -1.4049554487131431e-27 -1.0
  outer loop
    vertex 3.4467811070620815 -1.9899999999999805 1.22048149364673e-11
    vertex -2.8142849891224446 -1.165715010877536 -1.0163159203102622e-11
    vertex 2.814284989122484 -1.1657150108775247 9.93756188449879e-12
  endloop
endfacet
facet normal 3.571936317139041e-12 -1.4049554487131431e-27 -1.0
  outer loop
    vertex 2.814284989122484 -1.1657150108775247 9.93756188449879e-12
    vertex -2.8142849891224446 -1.165715010877536 -1.0163159203102622e-11
    vertex -1.989999999999989 -0.5332188929379275 -7.230394061252809e-12
  endloop
endfacet
facet normal 3.571936317139041e-12 -1.4049554487131431e-27 -1.0
  outer loop
    vertex 2.814284989122484 -1.1657150108775247 9.93756188449879e-12
    vertex -1.989999999999989 -0.5332188929379275 -7.230394061252809e-12
    vertex 1.9900000000000284 -0.5332188929379161 6.993516876718786e-12
  endloop
endfacet
facet normal 3.571936317139041e-12 -1.4049554487131431e-27 -1.0
  outer loop
    vertex 1.9900000000000284 -0.5332188929379161 6.993516876718786e-12
    vertex -1.989999999999989 -0.5332188929379275 -7.230394061252809e-12
    vertex -1.030099799508015 -0.13561521136949564 -3.790034952544374e-12
  endloop
endfacet
facet normal 3.571936317139041e-12 -1.4049554487131431e-27 -1.0
  outer loop
    vertex 1.9900000000000284 -0.5332188929379161 6.993516876718786e-12
    vertex -1.030099799508015 -0.13561521136949564 -3.790034952544374e-12
    vertex 1.0300997995080432 -0.13561521136949564 3.575717499870734e-12
  endloop
endfacet
facet normal 3.571936317139041e-12 -1.4049554487131431e-27 -1.0
  outer loop
    vertex 1.0300997995080432 -0.13561521136949564 3.575717499870734e-12
    vertex -1.030099799508015 -0.13561521136949564 -3.790034952544374e-12
    vertex 1.4099832412739488e-14 1.127986593019159e-14 -1.127986593019159e-13
  endloop
endfacet
facet normal -0.9914448613738103 -0.1305261922200527 -3.541254307052289e-12
  outer loop
    vertex -3.950000000283033 -3.9799999999999836 79.24486578308674
    vertex -3.8154070141605625 -5.002335228154948 89.2448657830872
    vertex -3.9500000003187505 -3.9799999999999836 89.24486578308672
  endloop
endfacet
facet normal -0.9914448613738103 -0.1305261922200527 -3.541254307052289e-12
  outer loop
    vertex -3.8154070141605625 -5.002335228154948 89.2448657830872
    vertex -3.950000000283033 -3.9799999999999836 79.24486578308674
    vertex -3.815407014124845 -5.002335228154948 79.24486578308722
  endloop
endfacet
facet normal -0.38268343236509034 -0.9238795325112867 -1.3668731423173702e-12
  outer loop
    vertex -1.0223352284379819 -7.795407013841811 79.24486578309718
    vertex -1.9750000003187484 -7.400800344948535 89.24486578309377
    vertex -1.9750000002830308 -7.400800344948535 79.24486578309379
  endloop
endfacet
facet normal -0.38268343236509034 -0.9238795325112867 -1.3668731423173702e-12
  outer loop
    vertex -1.9750000003187484 -7.400800344948535 89.24486578309377
    vertex -1.0223352284379819 -7.795407013841811 79.24486578309718
    vertex -1.0223352284736995 -7.795407013841811 89.24486578309718
  endloop
endfacet
facet normal -0.9914448613738106 0.13052619222005143 -3.54125430705229e-12
  outer loop
    vertex -3.8154070141605625 -2.9576647718450193 89.2448657830872
    vertex -3.950000000283033 -3.9799999999999836 79.24486578308674
    vertex -3.9500000003187505 -3.9799999999999836 89.24486578308672
  endloop
endfacet
facet normal -0.9914448613738106 0.13052619222005143 -3.54125430705229e-12
  outer loop
    vertex -3.950000000283033 -3.9799999999999836 79.24486578308674
    vertex -3.8154070141605625 -2.9576647718450193 89.2448657830872
    vertex -3.815407014124845 -2.9576647718450193 79.24486578308722
  endloop
endfacet
facet normal -0.9238795325112867 -0.38268343236508984 -3.2999236782261195e-12
  outer loop
    vertex -3.815407014124845 -5.002335228154948 79.24486578308722
    vertex -3.4208003452672746 -5.954999999999986 89.24486578308861
    vertex -3.8154070141605625 -5.002335228154948 89.2448657830872
  endloop
endfacet
facet normal -0.9238795325112867 -0.38268343236508984 -3.2999236782261195e-12
  outer loop
    vertex -3.4208003452672746 -5.954999999999986 89.24486578308861
    vertex -3.815407014124845 -5.002335228154948 79.24486578308722
    vertex -3.420800345231557 -5.954999999999986 79.24486578308863
  endloop
endfacet
facet normal -3.5718116508721392e-12 0.0 1.0
  outer loop
    vertex 1.0223352278362179 -7.795407013841811 89.24486578310449
    vertex -1.0223352284736995 -7.795407013841811 89.24486578309718
    vertex -3.1874645145535394e-10 -7.929999999999988 89.24486578310085
  endloop
endfacet
facet normal -3.5718116508721392e-12 0.0 1.0
  outer loop
    vertex -1.0223352284736995 -7.795407013841811 89.24486578309718
    vertex 1.0223352278362179 -7.795407013841811 89.24486578310449
    vertex 1.9749999996812555 -7.400800344948535 89.2448657831079
  endloop
endfacet
facet normal -3.5718116508721392e-12 0.0 1.0
  outer loop
    vertex -1.0223352284736995 -7.795407013841811 89.24486578309718
    vertex 1.9749999996812555 -7.400800344948535 89.2448657831079
    vertex -1.9750000003187484 -7.400800344948535 89.24486578309377
  endloop
endfacet
facet normal -3.5718116508721392e-12 0.0 1.0
  outer loop
    vertex -1.9750000003187484 -7.400800344948535 89.24486578309377
    vertex 1.9749999996812555 -7.400800344948535 89.2448657831079
    vertex 2.7930717853681166 -6.773071785686847 89.24486578311081
  endloop
endfacet
facet normal -3.5718116508721392e-12 0.0 1.0
  outer loop
    vertex -1.9750000003187484 -7.400800344948535 89.24486578309377
    vertex 2.7930717853681166 -6.773071785686847 89.24486578311081
    vertex -2.7930717860056093 -6.773071785686847 89.24486578309086
  endloop
endfacet
facet normal -3.5718116508721392e-12 0.0 1.0
  outer loop
    vertex -2.7930717860056093 -6.773071785686847 89.24486578309086
    vertex 2.7930717853681166 -6.773071785686847 89.24486578311081
    vertex 3.4208003446298045 -5.954999999999986 89.24486578311306
  endloop
endfacet
facet normal -3.5718116508721392e-12 0.0 1.0
  outer loop
    vertex -2.7930717860056093 -6.773071785686847 89.24486578309086
    vertex 3.4208003446298045 -5.954999999999986 89.24486578311306
    vertex -3.4208003452672746 -5.954999999999986 89.24486578308861
  endloop
endfacet
facet normal -3.5718116508721392e-12 0.0 1.0
  outer loop
    vertex -3.4208003452672746 -5.954999999999986 89.24486578308861
    vertex 3.4208003446298045 -5.954999999999986 89.24486578311306
    vertex 3.815407013523081 -5.002335228154948 89.24486578311446
  endloop
endfacet
facet normal -3.5718116508721392e-12 0.0 1.0
  outer loop
    vertex -3.4208003452672746 -5.954999999999986 89.24486578308861
    vertex 3.815407013523081 -5.002335228154948 89.24486578311446
    vertex -3.8154070141605625 -5.002335228154948 89.2448657830872
  endloop
endfacet
facet normal -3.5718116508721392e-12 0.0 1.0
  outer loop
    vertex -3.8154070141605625 -5.002335228154948 89.2448657830872
    vertex 3.815407013523081 -5.002335228154948 89.24486578311446
    vertex 3.949999999681258 -3.9799999999999836 89.24486578311495
  endloop
endfacet
facet normal -3.5718116508721392e-12 0.0 1.0
  outer loop
    vertex -3.8154070141605625 -5.002335228154948 89.2448657830872
    vertex 3.949999999681258 -3.9799999999999836 89.24486578311495
    vertex -3.9500000003187505 -3.9799999999999836 89.24486578308672
  endloop
endfacet
facet normal -3.5718116508721392e-12 0.0 1.0
  outer loop
    vertex -3.9500000003187505 -3.9799999999999836 89.24486578308672
    vertex 3.949999999681258 -3.9799999999999836 89.24486578311495
    vertex 3.815407013523081 -2.9576647718450193 89.24486578311446
  endloop
endfacet
facet normal -3.5718116508721392e-12 0.0 1.0
  outer loop
    vertex -3.9500000003187505 -3.9799999999999836 89.24486578308672
    vertex 3.815407013523081 -2.9576647718450193 89.24486578311446
    vertex -3.8154070141605625 -2.9576647718450193 89.2448657830872
  endloop
endfacet
facet normal -3.5718116508721392e-12 0.0 1.0
  outer loop
    vertex -3.8154070141605625 -2.9576647718450193 89.2448657830872
    vertex 3.815407013523081 -2.9576647718450193 89.24486578311446
    vertex 3.420800344629782 -2.0049999999999817 89.24486578311306
  endloop
endfacet
facet normal -3.5718116508721392e-12 0.0 1.0
  outer loop
    vertex -3.8154070141605625 -2.9576647718450193 89.2448657830872
    vertex 3.420800344629782 -2.0049999999999817 89.24486578311306
    vertex -3.4208003452672746 -2.0049999999999817 89.24486578308861
  endloop
endfacet
facet normal -3.5718116508721392e-12 0.0 1.0
  outer loop
    vertex -3.4208003452672746 -2.0049999999999817 89.24486578308861
    vertex 3.420800344629782 -2.0049999999999817 89.24486578311306
    vertex 2.7930717853681166 -1.1869282143131208 89.24486578311081
  endloop
endfacet
facet normal -3.5718116508721392e-12 0.0 1.0
  outer loop
    vertex -3.4208003452672746 -2.0049999999999817 89.24486578308861
    vertex 2.7930717853681166 -1.1869282143131208 89.24486578311081
    vertex -2.7930717860056093 -1.1869282143131208 89.24486578309086
  endloop
endfacet
facet normal -3.5718116508721392e-12 0.0 1.0
  outer loop
    vertex -2.7930717860056093 -1.1869282143131208 89.24486578309086
    vertex 2.7930717853681166 -1.1869282143131208 89.24486578311081
    vertex 1.9749999996812555 -0.5591996550514442 89.2448657831079
  endloop
endfacet
facet normal -3.5718116508721392e-12 0.0 1.0
  outer loop
    vertex -2.7930717860056093 -1.1869282143131208 89.24486578309086
    vertex 1.9749999996812555 -0.5591996550514442 89.2448657831079
    vertex -1.9750000003187484 -0.5591996550514442 89.24486578309377
  endloop
endfacet
facet normal -3.5718116508721392e-12 0.0 1.0
  outer loop
    vertex -1.9750000003187484 -0.5591996550514442 89.24486578309377
    vertex 1.9749999996812555 -0.5591996550514442 89.2448657831079
    vertex 1.0223352278362179 -0.1645929861581564 89.24486578310449
  endloop
endfacet
facet normal -3.5718116508721392e-12 0.0 1.0
  outer loop
    vertex -1.9750000003187484 -0.5591996550514442 89.24486578309377
    vertex 1.0223352278362179 -0.1645929861581564 89.24486578310449
    vertex -1.0223352284736995 -0.1645929861581564 89.24486578309718
  endloop
endfacet
facet normal -3.5718116508721392e-12 0.0 1.0
  outer loop
    vertex -1.0223352284736995 -0.1645929861581564 89.24486578309718
    vertex 1.0223352278362179 -0.1645929861581564 89.24486578310449
    vertex -3.1874645145535394e-10 -0.02999999999997964 89.24486578310085
  endloop
endfacet
facet normal -0.13052619222004805 0.9914448613738109 -4.66214974115544e-13
  outer loop
    vertex -1.0223352284736995 -0.1645929861581564 89.24486578309718
    vertex -2.830287559874023e-10 -0.02999999999997964 79.24486578310085
    vertex -1.0223352284379819 -0.1645929861581564 79.24486578309718
  endloop
endfacet
facet normal -0.13052619222004805 0.9914448613738109 -4.66214974115544e-13
  outer loop
    vertex -2.830287559874023e-10 -0.02999999999997964 79.24486578310085
    vertex -1.0223352284736995 -0.1645929861581564 89.24486578309718
    vertex -3.1874645145535394e-10 -0.02999999999997964 89.24486578310085
  endloop
endfacet
facet normal -0.9238795325112874 0.3826834323650883 -3.299923678226122e-12
  outer loop
    vertex -3.4208003452672746 -2.0049999999999817 89.24486578308861
    vertex -3.815407014124845 -2.9576647718450193 79.24486578308722
    vertex -3.8154070141605625 -2.9576647718450193 89.2448657830872
  endloop
endfacet
facet normal -0.9238795325112874 0.3826834323650883 -3.299923678226122e-12
  outer loop
    vertex -3.815407014124845 -2.9576647718450193 79.24486578308722
    vertex -3.4208003452672746 -2.0049999999999817 89.24486578308861
    vertex -3.420800345231557 -2.0049999999999817 79.24486578308863
  endloop
endfacet
facet normal -0.793353340291234 -0.6087614290087221 -2.8337087041105586e-12
  outer loop
    vertex -3.420800345231557 -5.954999999999986 79.24486578308863
    vertex -2.7930717860056093 -6.773071785686847 89.24486578309086
    vertex -3.4208003452672746 -5.954999999999986 89.24486578308861
  endloop
endfacet
facet normal -0.793353340291234 -0.6087614290087221 -2.8337087041105586e-12
  outer loop
    vertex -2.7930717860056093 -6.773071785686847 89.24486578309086
    vertex -3.420800345231557 -5.954999999999986 79.24486578308863
    vertex -2.7930717859698917 -6.773071785686847 79.24486578309086
  endloop
endfacet
facet normal -3.5718116508721392e-12 0.0 1.0
  outer loop
    vertex 12.074072828330332 -7.215238063781479 79.24486578314396
    vertex -2.830287559874023e-10 -7.929999999999988 79.24486578310085
    vertex 10.82531754702248 -10.229999999999961 79.2448657831395
  endloop
endfacet
facet normal -3.5718116508721392e-12 0.0 1.0
  outer loop
    vertex -2.830287559874023e-10 -7.929999999999988 79.24486578310085
    vertex 12.074072828330332 -7.215238063781479 79.24486578314396
    vertex 1.0223352278719355 -7.795407013841811 79.2448657831045
  endloop
endfacet
facet normal -3.5718116508721392e-12 0.0 1.0
  outer loop
    vertex 1.0223352278719355 -7.795407013841811 79.2448657831045
    vertex 12.074072828330332 -7.215238063781479 79.24486578314396
    vertex 1.9749999997169734 -7.400800344948535 79.2448657831079
  endloop
endfacet
facet normal -3.5718116508721392e-12 0.0 1.0
  outer loop
    vertex 1.9749999997169734 -7.400800344948535 79.2448657831079
    vertex 12.074072828330332 -7.215238063781479 79.24486578314396
    vertex 2.7930717854038343 -6.773071785686847 79.24486578311082
  endloop
endfacet
facet normal -3.5718116508721392e-12 0.0 1.0
  outer loop
    vertex 2.7930717854038343 -6.773071785686847 79.24486578311082
    vertex 12.074072828330332 -7.215238063781479 79.24486578314396
    vertex 12.499999999716971 -3.979999999999961 79.24486578314549
  endloop
endfacet
facet normal -3.5718116508721392e-12 0.0 1.0
  outer loop
    vertex 2.7930717854038343 -6.773071785686847 79.24486578311082
    vertex 12.499999999716971 -3.979999999999961 79.24486578314549
    vertex 3.420800344665522 -5.954999999999986 79.24486578311306
  endloop
endfacet
facet normal -3.5718116508721392e-12 0.0 1.0
  outer loop
    vertex 3.420800344665522 -5.954999999999986 79.24486578311306
    vertex 12.499999999716971 -3.979999999999961 79.24486578314549
    vertex 3.8154070135587985 -5.002335228154948 79.24486578311446
  endloop
endfacet
facet normal -3.5718116508721392e-12 0.0 1.0
  outer loop
    vertex 3.8154070135587985 -5.002335228154948 79.24486578311446
    vertex 12.499999999716971 -3.979999999999961 79.24486578314549
    vertex 3.9499999997169755 -3.9799999999999836 79.24486578311495
  endloop
endfacet
facet normal -3.5718116508721392e-12 0.0 1.0
  outer loop
    vertex 3.9499999997169755 -3.9799999999999836 79.24486578311495
    vertex 12.499999999716971 -3.979999999999961 79.24486578314549
    vertex 3.8154070135587985 -2.9576647718450193 79.24486578311446
  endloop
endfacet
facet normal -3.5718116508721392e-12 0.0 1.0
  outer loop
    vertex 3.8154070135587985 -2.9576647718450193 79.24486578311446
    vertex 12.499999999716971 -3.979999999999961 79.24486578314549
    vertex 12.074072828330332 -0.7447619362184548 79.24486578314396
  endloop
endfacet
facet normal -3.5718116508721392e-12 0.0 1.0
  outer loop
    vertex 3.8154070135587985 -2.9576647718450193 79.24486578311446
    vertex 12.074072828330332 -0.7447619362184548 79.24486578314396
    vertex 3.420800344665522 -2.0049999999999817 79.24486578311306
  endloop
endfacet
facet normal -3.5718116508721392e-12 0.0 1.0
  outer loop
    vertex 3.420800344665522 -2.0049999999999817 79.24486578311306
    vertex 12.074072828330332 -0.7447619362184548 79.24486578314396
    vertex 2.7930717854038343 -1.1869282143131208 79.24486578311082
  endloop
endfacet
facet normal -3.5718116508721392e-12 0.0 1.0
  outer loop
    vertex 2.7930717854038343 -1.1869282143131208 79.24486578311082
    vertex 12.074072828330332 -0.7447619362184548 79.24486578314396
    vertex 1.9749999997169734 -0.5591996550514442 79.2448657831079
  endloop
endfacet
facet normal -3.5718116508721392e-12 0.0 1.0
  outer loop
    vertex 1.9749999997169734 -0.5591996550514442 79.2448657831079
    vertex 12.074072828330332 -0.7447619362184548 79.24486578314396
    vertex 10.825317547022458 2.2700000000000276 79.2448657831395
  endloop
endfacet
facet normal -3.5718116508721392e-12 0.0 1.0
  outer loop
    vertex 1.9749999997169734 -0.5591996550514442 79.2448657831079
    vertex 10.825317547022458 2.2700000000000276 79.2448657831395
    vertex 1.0223352278719355 -0.1645929861581564 79.2448657831045
  endloop
endfacet
facet normal -3.5718116508721392e-12 0.0 1.0
  outer loop
    vertex 1.0223352278719355 -0.1645929861581564 79.2448657831045
    vertex 10.825317547022458 2.2700000000000276 79.2448657831395
    vertex -2.830287559874023e-10 -0.02999999999997964 79.24486578310085
  endloop
endfacet
facet normal -3.5718116508721392e-12 0.0 1.0
  outer loop
    vertex -2.830287559874023e-10 -0.02999999999997964 79.24486578310085
    vertex 10.825317547022458 2.2700000000000276 79.2448657831395
    vertex -10.825317547588515 2.270000000000005 79.24486578306218
  endloop
endfacet
facet normal -3.5718116508721392e-12 0.0 1.0
  outer loop
    vertex -10.825317547588515 2.270000000000005 79.24486578306218
    vertex 10.825317547022458 2.2700000000000276 79.2448657831395
    vertex -8.838834765114873 4.858834764831848 79.24486578306927
  endloop
endfacet
facet normal -3.5718116508721392e-12 0.0 1.0
  outer loop
    vertex -8.838834765114873 4.858834764831848 79.24486578306927
    vertex 10.825317547022458 2.2700000000000276 79.2448657831395
    vertex 8.838834764548814 4.8588347648318715 79.24486578313241
  endloop
endfacet
facet normal -3.5718116508721392e-12 0.0 1.0
  outer loop
    vertex -8.838834765114873 4.858834764831848 79.24486578306927
    vertex 8.838834764548814 4.8588347648318715 79.24486578313241
    vertex -6.25000000028304 6.845317547305492 79.24486578307852
  endloop
endfacet
facet normal -3.5718116508721392e-12 0.0 1.0
  outer loop
    vertex -6.25000000028304 6.845317547305492 79.24486578307852
    vertex 8.838834764548814 4.8588347648318715 79.24486578313241
    vertex 6.249999999716948 6.845317547305503 79.24486578312316
  endloop
endfacet
facet normal -3.5718116508721392e-12 0.0 1.0
  outer loop
    vertex -6.25000000028304 6.845317547305492 79.24486578307852
    vertex 6.249999999716948 6.845317547305503 79.24486578312316
    vertex -3.2352380640645464 8.094072828613367 79.2448657830893
  endloop
endfacet
facet normal -3.5718116508721392e-12 0.0 1.0
  outer loop
    vertex -3.2352380640645464 8.094072828613367 79.2448657830893
    vertex 6.249999999716948 6.845317547305503 79.24486578312316
    vertex 3.2352380634984663 8.094072828613378 79.2448657831124
  endloop
endfacet
facet normal -3.5718116508721392e-12 0.0 1.0
  outer loop
    vertex -3.2352380640645464 8.094072828613367 79.2448657830893
    vertex 3.2352380634984663 8.094072828613378 79.2448657831124
    vertex -2.830400358533325e-10 8.520000000000016 79.24486578310085
  endloop
endfacet
facet normal -3.5718116508721392e-12 0.0 1.0
  outer loop
    vertex 3.2352380634985116 -16.05407282861332 79.2448657831124
    vertex -3.2352380640645237 -16.054072828613347 79.2448657830893
    vertex -2.830174761214721e-10 -16.479999999999983 79.24486578310085
  endloop
endfacet
facet normal -3.5718116508721392e-12 0.0 1.0
  outer loop
    vertex -3.2352380640645237 -16.054072828613347 79.2448657830893
    vertex 3.2352380634985116 -16.05407282861332 79.2448657831124
    vertex -6.250000000283006 -14.80531754730547 79.24486578307852
  endloop
endfacet
facet normal -3.5718116508721392e-12 0.0 1.0
  outer loop
    vertex -6.250000000283006 -14.80531754730547 79.24486578307852
    vertex 3.2352380634985116 -16.05407282861332 79.2448657831124
    vertex 6.2499999997169935 -14.80531754730547 79.24486578312316
  endloop
endfacet
facet normal -3.5718116508721392e-12 0.0 1.0
  outer loop
    vertex -6.250000000283006 -14.80531754730547 79.24486578307852
    vertex 6.2499999997169935 -14.80531754730547 79.24486578312316
    vertex 8.838834764548837 -12.818834764831827 79.24486578313241
  endloop
endfacet
facet normal -3.5718116508721392e-12 0.0 1.0
  outer loop
    vertex -6.250000000283006 -14.80531754730547 79.24486578307852
    vertex 8.838834764548837 -12.818834764831827 79.24486578313241
    vertex -8.83883476511486 -12.818834764831827 79.24486578306927
  endloop
endfacet
facet normal -3.5718116508721392e-12 0.0 1.0
  outer loop
    vertex -8.83883476511486 -12.818834764831827 79.24486578306927
    vertex 8.838834764548837 -12.818834764831827 79.24486578313241
    vertex 10.82531754702248 -10.229999999999961 79.2448657831395
  endloop
endfacet
facet normal -3.5718116508721392e-12 0.0 1.0
  outer loop
    vertex -8.83883476511486 -12.818834764831827 79.24486578306927
    vertex 10.82531754702248 -10.229999999999961 79.2448657831395
    vertex -10.825317547588504 -10.230000000000006 79.24486578306218
  endloop
endfacet
facet normal -3.5718116508721392e-12 0.0 1.0
  outer loop
    vertex -10.825317547588504 -10.230000000000006 79.24486578306218
    vertex 10.82531754702248 -10.229999999999961 79.2448657831395
    vertex -12.074072828896378 -7.215238063781524 79.24486578305772
  endloop
endfacet
facet normal -3.5718116508721392e-12 0.0 1.0
  outer loop
    vertex -12.074072828896378 -7.215238063781524 79.24486578305772
    vertex 10.82531754702248 -10.229999999999961 79.2448657831395
    vertex -2.830287559874023e-10 -7.929999999999988 79.24486578310085
  endloop
endfacet
facet normal -3.5718116508721392e-12 0.0 1.0
  outer loop
    vertex -12.074072828896378 -7.215238063781524 79.24486578305772
    vertex -2.830287559874023e-10 -7.929999999999988 79.24486578310085
    vertex -1.0223352284379819 -7.795407013841811 79.24486578309718
  endloop
endfacet
facet normal -3.5718116508721392e-12 0.0 1.0
  outer loop
    vertex -12.074072828896378 -7.215238063781524 79.24486578305772
    vertex -1.0223352284379819 -7.795407013841811 79.24486578309718
    vertex -1.9750000002830308 -7.400800344948535 79.24486578309379
  endloop
endfacet
facet normal -3.5718116508721392e-12 0.0 1.0
  outer loop
    vertex -12.074072828896378 -7.215238063781524 79.24486578305772
    vertex -1.9750000002830308 -7.400800344948535 79.24486578309379
    vertex -2.7930717859698917 -6.773071785686847 79.24486578309086
  endloop
endfacet
facet normal -3.5718116508721392e-12 0.0 1.0
  outer loop
    vertex -12.074072828896378 -7.215238063781524 79.24486578305772
    vertex -2.7930717859698917 -6.773071785686847 79.24486578309086
    vertex -12.500000000283029 -3.9799999999999836 79.2448657830562
  endloop
endfacet
facet normal -3.5718116508721392e-12 0.0 1.0
  outer loop
    vertex -12.500000000283029 -3.9799999999999836 79.2448657830562
    vertex -2.7930717859698917 -6.773071785686847 79.24486578309086
    vertex -3.420800345231557 -5.954999999999986 79.24486578308863
  endloop
endfacet
facet normal -3.5718116508721392e-12 0.0 1.0
  outer loop
    vertex -12.500000000283029 -3.9799999999999836 79.2448657830562
    vertex -3.420800345231557 -5.954999999999986 79.24486578308863
    vertex -3.815407014124845 -5.002335228154948 79.24486578308722
  endloop
endfacet
facet normal -3.5718116508721392e-12 0.0 1.0
  outer loop
    vertex -12.500000000283029 -3.9799999999999836 79.2448657830562
    vertex -3.815407014124845 -5.002335228154948 79.24486578308722
    vertex -3.950000000283033 -3.9799999999999836 79.24486578308674
  endloop
endfacet
facet normal -3.5718116508721392e-12 0.0 1.0
  outer loop
    vertex -12.500000000283029 -3.9799999999999836 79.2448657830562
    vertex -3.950000000283033 -3.9799999999999836 79.24486578308674
    vertex -3.815407014124845 -2.9576647718450193 79.24486578308722
  endloop
endfacet
facet normal -3.5718116508721392e-12 0.0 1.0
  outer loop
    vertex -12.500000000283029 -3.9799999999999836 79.2448657830562
    vertex -3.815407014124845 -2.9576647718450193 79.24486578308722
    vertex -12.07407282889639 -0.7447619362184885 79.24486578305772
  endloop
endfacet
facet normal -3.5718116508721392e-12 0.0 1.0
  outer loop
    vertex -12.07407282889639 -0.7447619362184885 79.24486578305772
    vertex -3.815407014124845 -2.9576647718450193 79.24486578308722
    vertex -3.420800345231557 -2.0049999999999817 79.24486578308863
  endloop
endfacet
facet normal -3.5718116508721392e-12 0.0 1.0
  outer loop
    vertex -12.07407282889639 -0.7447619362184885 79.24486578305772
    vertex -3.420800345231557 -2.0049999999999817 79.24486578308863
    vertex -2.7930717859698917 -1.1869282143131208 79.24486578309086
  endloop
endfacet
facet normal -3.5718116508721392e-12 0.0 1.0
  outer loop
    vertex -12.07407282889639 -0.7447619362184885 79.24486578305772
    vertex -2.7930717859698917 -1.1869282143131208 79.24486578309086
    vertex -1.9750000002830308 -0.5591996550514442 79.24486578309379
  endloop
endfacet
facet normal -3.5718116508721392e-12 0.0 1.0
  outer loop
    vertex -12.07407282889639 -0.7447619362184885 79.24486578305772
    vertex -1.9750000002830308 -0.5591996550514442 79.24486578309379
    vertex -10.825317547588515 2.270000000000005 79.24486578306218
  endloop
endfacet
facet normal -3.5718116508721392e-12 0.0 1.0
  outer loop
    vertex -10.825317547588515 2.270000000000005 79.24486578306218
    vertex -1.9750000002830308 -0.5591996550514442 79.24486578309379
    vertex -1.0223352284379819 -0.1645929861581564 79.24486578309718
  endloop
endfacet
facet normal -3.5718116508721392e-12 0.0 1.0
  outer loop
    vertex -10.825317547588515 2.270000000000005 79.24486578306218
    vertex -1.0223352284379819 -0.1645929861581564 79.24486578309718
    vertex -2.830287559874023e-10 -0.02999999999997964 79.24486578310085
  endloop
endfacet
facet normal 3.5717411068746154e-12 -1.3200495473910731e-27 -1.0
  outer loop
    vertex -3.2352380638171874 -16.054072828613347 10.000000186782435
    vertex 3.235238063745848 -16.05407282861332 10.000000186805536
    vertex -3.5681035903678543e-11 -16.479999999999983 10.000000186793974
  endloop
endfacet
facet normal 3.5717411068746154e-12 -1.3200495473910731e-27 -1.0
  outer loop
    vertex 3.235238063745848 -16.05407282861332 10.000000186805536
    vertex -3.2352380638171874 -16.054072828613347 10.000000186782435
    vertex -6.250000000035681 -14.80531754730547 10.000000186771652
  endloop
endfacet
facet normal 3.5717411068746154e-12 -1.3200495473910731e-27 -1.0
  outer loop
    vertex 3.235238063745848 -16.05407282861332 10.000000186805536
    vertex -6.250000000035681 -14.80531754730547 10.000000186771652
    vertex 6.24999999996433 -14.80531754730547 10.000000186816287
  endloop
endfacet
facet normal 3.5717411068746154e-12 -1.3200495473910731e-27 -1.0
  outer loop
    vertex 6.24999999996433 -14.80531754730547 10.000000186816287
    vertex -6.250000000035681 -14.80531754730547 10.000000186771652
    vertex -8.838834764867537 -12.818834764831827 10.000000186762403
  endloop
endfacet
facet normal 3.5717411068746154e-12 -1.3200495473910731e-27 -1.0
  outer loop
    vertex 6.24999999996433 -14.80531754730547 10.000000186816287
    vertex -8.838834764867537 -12.818834764831827 10.000000186762403
    vertex 8.838834764796152 -12.818834764831827 10.000000186825536
  endloop
endfacet
facet normal 3.5717411068746154e-12 -1.3200495473910731e-27 -1.0
  outer loop
    vertex 8.838834764796152 -12.818834764831827 10.000000186825536
    vertex -8.838834764867537 -12.818834764831827 10.000000186762403
    vertex -10.825317547341168 -10.230000000000006 10.000000186755308
  endloop
endfacet
facet normal 3.5717411068746154e-12 -1.3200495473910731e-27 -1.0
  outer loop
    vertex 8.838834764796152 -12.818834764831827 10.000000186825536
    vertex -10.825317547341168 -10.230000000000006 10.000000186755308
    vertex 10.825317547269794 -10.229999999999961 10.000000186832631
  endloop
endfacet
facet normal 3.5717411068746154e-12 -1.3200495473910731e-27 -1.0
  outer loop
    vertex 10.825317547269794 -10.229999999999961 10.000000186832631
    vertex -10.825317547341168 -10.230000000000006 10.000000186755308
    vertex -12.074072828649042 -7.215238063781524 10.00000018675084
  endloop
endfacet
facet normal 3.5717411068746154e-12 -1.3200495473910731e-27 -1.0
  outer loop
    vertex 10.825317547269794 -10.229999999999961 10.000000186832631
    vertex -12.074072828649042 -7.215238063781524 10.00000018675084
    vertex -3.569231576960874e-11 -7.95999999999999 10.000000186793974
  endloop
endfacet
facet normal 3.5717411068746154e-12 -1.3200495473910731e-27 -1.0
  outer loop
    vertex -3.569231576960874e-11 -7.95999999999999 10.000000186793974
    vertex -12.074072828649042 -7.215238063781524 10.00000018675084
    vertex -1.0300997995437213 -7.824384788630461 10.000000186790297
  endloop
endfacet
facet normal 3.5717411068746154e-12 -1.3200495473910731e-27 -1.0
  outer loop
    vertex -1.0300997995437213 -7.824384788630461 10.000000186790297
    vertex -12.074072828649042 -7.215238063781524 10.00000018675084
    vertex -1.9900000000356841 -7.426781107062062 10.000000186786858
  endloop
endfacet
facet normal 3.5717411068746154e-12 -1.3200495473910731e-27 -1.0
  outer loop
    vertex -1.9900000000356841 -7.426781107062062 10.000000186786858
    vertex -12.074072828649042 -7.215238063781524 10.00000018675084
    vertex -2.814284989158151 -6.794284989122443 10.000000186783925
  endloop
endfacet
facet normal 3.5717411068746154e-12 -1.3200495473910731e-27 -1.0
  outer loop
    vertex -2.814284989158151 -6.794284989122443 10.000000186783925
    vertex -12.074072828649042 -7.215238063781524 10.00000018675084
    vertex -12.500000000035692 -3.9799999999999836 10.000000186749329
  endloop
endfacet
facet normal 3.5717411068746154e-12 -1.3200495473910731e-27 -1.0
  outer loop
    vertex -2.814284989158151 -6.794284989122443 10.000000186783925
    vertex -12.500000000035692 -3.9799999999999836 10.000000186749329
    vertex -3.44678110709776 -5.969999999999986 10.00000018678167
  endloop
endfacet
facet normal 3.5717411068746154e-12 -1.3200495473910731e-27 -1.0
  outer loop
    vertex -3.44678110709776 -5.969999999999986 10.00000018678167
    vertex -12.500000000035692 -3.9799999999999836 10.000000186749329
    vertex -3.84438478866618 -5.010099799508024 10.000000186780248
  endloop
endfacet
facet normal 3.5717411068746154e-12 -1.3200495473910731e-27 -1.0
  outer loop
    vertex -3.84438478866618 -5.010099799508024 10.000000186780248
    vertex -12.500000000035692 -3.9799999999999836 10.000000186749329
    vertex -3.9800000000356874 -3.9799999999999836 10.00000018677975
  endloop
endfacet
facet normal 3.5717411068746154e-12 -1.3200495473910731e-27 -1.0
  outer loop
    vertex -3.9800000000356874 -3.9799999999999836 10.00000018677975
    vertex -12.500000000035692 -3.9799999999999836 10.000000186749329
    vertex -12.074072828649054 -0.7447619362184885 10.00000018675084
  endloop
endfacet
facet normal 3.5717411068746154e-12 -1.3200495473910731e-27 -1.0
  outer loop
    vertex -3.9800000000356874 -3.9799999999999836 10.00000018677975
    vertex -12.074072828649054 -0.7447619362184885 10.00000018675084
    vertex -3.84438478866618 -2.9499002004919435 10.000000186780248
  endloop
endfacet
facet normal 3.5717411068746154e-12 -1.3200495473910731e-27 -1.0
  outer loop
    vertex -3.84438478866618 -2.9499002004919435 10.000000186780248
    vertex -12.074072828649054 -0.7447619362184885 10.00000018675084
    vertex -3.44678110709776 -1.990000000000003 10.00000018678167
  endloop
endfacet
facet normal 3.5717411068746154e-12 -1.3200495473910731e-27 -1.0
  outer loop
    vertex -3.44678110709776 -1.990000000000003 10.00000018678167
    vertex -12.074072828649054 -0.7447619362184885 10.00000018675084
    vertex -2.8142849891581627 -1.165715010877536 10.000000186783925
  endloop
endfacet
facet normal 3.5717411068746154e-12 -1.3200495473910731e-27 -1.0
  outer loop
    vertex -2.8142849891581627 -1.165715010877536 10.000000186783925
    vertex -12.074072828649054 -0.7447619362184885 10.00000018675084
    vertex -1.9900000000357068 -0.5332188929379275 10.000000186786858
  endloop
endfacet
facet normal 3.5717411068746154e-12 -1.3200495473910731e-27 -1.0
  outer loop
    vertex -1.9900000000357068 -0.5332188929379275 10.000000186786858
    vertex -12.074072828649054 -0.7447619362184885 10.00000018675084
    vertex -10.825317547341179 2.270000000000005 10.000000186755308
  endloop
endfacet
facet normal 3.5717411068746154e-12 -1.3200495473910731e-27 -1.0
  outer loop
    vertex -1.9900000000357068 -0.5332188929379275 10.000000186786858
    vertex -10.825317547341179 2.270000000000005 10.000000186755308
    vertex -1.0300997995437327 -0.13561521136949564 10.000000186790297
  endloop
endfacet
facet normal 3.5717411068746154e-12 -1.3200495473910731e-27 -1.0
  outer loop
    vertex -1.0300997995437327 -0.13561521136949564 10.000000186790297
    vertex -10.825317547341179 2.270000000000005 10.000000186755308
    vertex -3.570359563553893e-11 1.127986593019159e-14 10.000000186793974
  endloop
endfacet
facet normal 3.5717411068746154e-12 -1.3200495473910731e-27 -1.0
  outer loop
    vertex -3.569231576960874e-11 -7.95999999999999 10.000000186793974
    vertex 12.074072828577691 -7.215238063781479 10.000000186837099
    vertex 10.825317547269794 -10.229999999999961 10.000000186832631
  endloop
endfacet
facet normal 3.5717411068746154e-12 -1.3200495473910731e-27 -1.0
  outer loop
    vertex 12.074072828577691 -7.215238063781479 10.000000186837099
    vertex -3.569231576960874e-11 -7.95999999999999 10.000000186793974
    vertex 1.0300997994723369 -7.824384788630461 10.000000186797664
  endloop
endfacet
facet normal 3.5717411068746154e-12 -1.3200495473910731e-27 -1.0
  outer loop
    vertex 12.074072828577691 -7.215238063781479 10.000000186837099
    vertex 1.0300997994723369 -7.824384788630461 10.000000186797664
    vertex 1.9899999999642883 -7.42678110706204 10.000000186801081
  endloop
endfacet
facet normal 3.5717411068746154e-12 -1.3200495473910731e-27 -1.0
  outer loop
    vertex 12.074072828577691 -7.215238063781479 10.000000186837099
    vertex 1.9899999999642883 -7.42678110706204 10.000000186801081
    vertex 2.814284989086744 -6.79428498912242 10.000000186804025
  endloop
endfacet
facet normal 3.5717411068746154e-12 -1.3200495473910731e-27 -1.0
  outer loop
    vertex 12.074072828577691 -7.215238063781479 10.000000186837099
    vertex 2.814284989086744 -6.79428498912242 10.000000186804025
    vertex 12.499999999964308 -3.979999999999961 10.000000186838632
  endloop
endfacet
facet normal 3.5717411068746154e-12 -1.3200495473910731e-27 -1.0
  outer loop
    vertex 12.499999999964308 -3.979999999999961 10.000000186838632
    vertex 2.814284989086744 -6.79428498912242 10.000000186804025
    vertex 3.4467811070263865 -5.969999999999964 10.000000186806293
  endloop
endfacet
facet normal 3.5717411068746154e-12 -1.3200495473910731e-27 -1.0
  outer loop
    vertex 12.499999999964308 -3.979999999999961 10.000000186838632
    vertex 3.4467811070263865 -5.969999999999964 10.000000186806293
    vertex 3.8443847885947844 -5.010099799508024 10.000000186807714
  endloop
endfacet
facet normal 3.5717411068746154e-12 -1.3200495473910731e-27 -1.0
  outer loop
    vertex 12.499999999964308 -3.979999999999961 10.000000186838632
    vertex 3.8443847885947844 -5.010099799508024 10.000000186807714
    vertex 3.979999999964314 -3.9799999999999836 10.000000186808187
  endloop
endfacet
facet normal 3.5717411068746154e-12 -1.3200495473910731e-27 -1.0
  outer loop
    vertex 12.499999999964308 -3.979999999999961 10.000000186838632
    vertex 3.979999999964314 -3.9799999999999836 10.000000186808187
    vertex 3.8443847885947844 -2.9499002004919435 10.000000186807714
  endloop
endfacet
facet normal 3.5717411068746154e-12 -1.3200495473910731e-27 -1.0
  outer loop
    vertex 12.499999999964308 -3.979999999999961 10.000000186838632
    vertex 3.8443847885947844 -2.9499002004919435 10.000000186807714
    vertex 12.074072828577647 -0.7447619362184548 10.000000186837099
  endloop
endfacet
facet normal 3.5717411068746154e-12 -1.3200495473910731e-27 -1.0
  outer loop
    vertex 12.074072828577647 -0.7447619362184548 10.000000186837099
    vertex 3.8443847885947844 -2.9499002004919435 10.000000186807714
    vertex 3.446781107026341 -1.9899999999999805 10.000000186806293
  endloop
endfacet
facet normal 3.5717411068746154e-12 -1.3200495473910731e-27 -1.0
  outer loop
    vertex 12.074072828577647 -0.7447619362184548 10.000000186837099
    vertex 3.446781107026341 -1.9899999999999805 10.000000186806293
    vertex 2.814284989086744 -1.1657150108775247 10.000000186804025
  endloop
endfacet
facet normal 3.5717411068746154e-12 -1.3200495473910731e-27 -1.0
  outer loop
    vertex 12.074072828577647 -0.7447619362184548 10.000000186837099
    vertex 2.814284989086744 -1.1657150108775247 10.000000186804025
    vertex 1.9899999999642883 -0.5332188929379161 10.000000186801081
  endloop
endfacet
facet normal 3.5717411068746154e-12 -1.3200495473910731e-27 -1.0
  outer loop
    vertex 12.074072828577647 -0.7447619362184548 10.000000186837099
    vertex 1.9899999999642883 -0.5332188929379161 10.000000186801081
    vertex 10.825317547269794 2.2700000000000276 10.000000186832631
  endloop
endfacet
facet normal 3.5717411068746154e-12 -1.3200495473910731e-27 -1.0
  outer loop
    vertex 10.825317547269794 2.2700000000000276 10.000000186832631
    vertex 1.9899999999642883 -0.5332188929379161 10.000000186801081
    vertex 1.0300997994723256 -0.13561521136949564 10.000000186797664
  endloop
endfacet
facet normal 3.5717411068746154e-12 -1.3200495473910731e-27 -1.0
  outer loop
    vertex 10.825317547269794 2.2700000000000276 10.000000186832631
    vertex 1.0300997994723256 -0.13561521136949564 10.000000186797664
    vertex -3.570359563553893e-11 1.127986593019159e-14 10.000000186793974
  endloop
endfacet
facet normal 3.5717411068746154e-12 -1.3200495473910731e-27 -1.0
  outer loop
    vertex 10.825317547269794 2.2700000000000276 10.000000186832631
    vertex -3.570359563553893e-11 1.127986593019159e-14 10.000000186793974
    vertex -10.825317547341179 2.270000000000005 10.000000186755308
  endloop
endfacet
facet normal 3.5717411068746154e-12 -1.3200495473910731e-27 -1.0
  outer loop
    vertex 10.825317547269794 2.2700000000000276 10.000000186832631
    vertex -10.825317547341179 2.270000000000005 10.000000186755308
    vertex -8.838834764867547 4.858834764831848 10.000000186762403
  endloop
endfacet
facet normal 3.5717411068746154e-12 -1.3200495473910731e-27 -1.0
  outer loop
    vertex 10.825317547269794 2.2700000000000276 10.000000186832631
    vertex -8.838834764867547 4.858834764831848 10.000000186762403
    vertex 8.838834764796152 4.8588347648318715 10.000000186825536
  endloop
endfacet
facet normal 3.5717411068746154e-12 -1.3200495473910731e-27 -1.0
  outer loop
    vertex 8.838834764796152 4.8588347648318715 10.000000186825536
    vertex -8.838834764867547 4.858834764831848 10.000000186762403
    vertex -6.250000000035703 6.845317547305492 10.000000186771652
  endloop
endfacet
facet normal 3.5717411068746154e-12 -1.3200495473910731e-27 -1.0
  outer loop
    vertex 8.838834764796152 4.8588347648318715 10.000000186825536
    vertex -6.250000000035703 6.845317547305492 10.000000186771652
    vertex 6.249999999964285 6.845317547305503 10.000000186816287
  endloop
endfacet
facet normal 3.5717411068746154e-12 -1.3200495473910731e-27 -1.0
  outer loop
    vertex 6.249999999964285 6.845317547305503 10.000000186816287
    vertex -6.250000000035703 6.845317547305492 10.000000186771652
    vertex -3.235238063817221 8.094072828613367 10.000000186782435
  endloop
endfacet
facet normal 3.5717411068746154e-12 -1.3200495473910731e-27 -1.0
  outer loop
    vertex 6.249999999964285 6.845317547305503 10.000000186816287
    vertex -3.235238063817221 8.094072828613367 10.000000186782435
    vertex 3.2352380637458027 8.094072828613378 10.000000186805536
  endloop
endfacet
facet normal 3.5717411068746154e-12 -1.3200495473910731e-27 -1.0
  outer loop
    vertex 3.2352380637458027 8.094072828613378 10.000000186805536
    vertex -3.235238063817221 8.094072828613367 10.000000186782435
    vertex -3.570359563553893e-11 8.520000000000016 10.000000186793974
  endloop
endfacet
facet normal -0.13052619222004933 -0.9914448613738107 -4.662286721569541e-13
  outer loop
    vertex -3.5681035903678543e-11 -16.479999999999983 10.000000186793974
    vertex -3.2352380640645237 -16.054072828613347 79.2448657830893
    vertex -3.2352380638171874 -16.054072828613347 10.000000186782435
  endloop
endfacet
facet normal -0.13052619222004933 -0.9914448613738107 -4.662286721569541e-13
  outer loop
    vertex -3.2352380640645237 -16.054072828613347 79.2448657830893
    vertex -3.5681035903678543e-11 -16.479999999999983 10.000000186793974
    vertex -2.830174761214721e-10 -16.479999999999983 79.24486578310085
  endloop
endfacet
facet normal -0.3826834323650911 -0.9238795325112862 -1.3668817120453983e-12
  outer loop
    vertex -3.2352380638171874 -16.054072828613347 10.000000186782435
    vertex -6.250000000283006 -14.80531754730547 79.24486578307852
    vertex -6.250000000035681 -14.80531754730547 10.000000186771652
  endloop
endfacet
facet normal -0.3826834323650911 -0.9238795325112862 -1.3668817120453983e-12
  outer loop
    vertex -6.250000000283006 -14.80531754730547 79.24486578307852
    vertex -3.2352380638171874 -16.054072828613347 10.000000186782435
    vertex -3.2352380640645237 -16.054072828613347 79.2448657830893
  endloop
endfacet
facet normal -0.1305261922200721 -0.9914448613738077 -4.662074848450963e-13
  outer loop
    vertex 2.5379698342931078e-14 -7.95999999999999 -1.127986593019159e-13
    vertex -1.0300997995437213 -7.824384788630461 10.000000186790297
    vertex -1.0300997995080037 -7.824384788630461 -3.790034952544374e-12
  endloop
endfacet
facet normal -0.1305261922200721 -0.9914448613738077 -4.662074848450963e-13
  outer loop
    vertex -1.0300997995437213 -7.824384788630461 10.000000186790297
    vertex 2.5379698342931078e-14 -7.95999999999999 -1.127986593019159e-13
    vertex -3.569231576960874e-11 -7.95999999999999 10.000000186793974
  endloop
endfacet
facet normal -0.9914448613738107 0.1305261922200494 -3.5411884065050433e-12
  outer loop
    vertex -3.84438478866618 -2.9499002004919435 10.000000186780248
    vertex -3.97999999999997 -3.9799999999999836 -1.4314149865413128e-11
    vertex -3.9800000000356874 -3.9799999999999836 10.00000018677975
  endloop
endfacet
facet normal -0.9914448613738107 0.1305261922200494 -3.5411884065050433e-12
  outer loop
    vertex -3.97999999999997 -3.9799999999999836 -1.4314149865413128e-11
    vertex -3.84438478866618 -2.9499002004919435 10.000000186780248
    vertex -3.8443847886304625 -2.9499002004919435 -1.3840395496345081e-11
  endloop
endfacet
facet normal 0.9914448613738103 0.1305261922200527 3.541196574760965e-12
  outer loop
    vertex 12.499999999716971 -3.979999999999961 79.24486578314549
    vertex 12.074072828577647 -0.7447619362184548 10.000000186837099
    vertex 12.074072828330332 -0.7447619362184548 79.24486578314396
  endloop
endfacet
facet normal 0.9914448613738103 0.1305261922200527 3.541196574760965e-12
  outer loop
    vertex 12.074072828577647 -0.7447619362184548 10.000000186837099
    vertex 12.499999999716971 -3.979999999999961 79.24486578314549
    vertex 12.499999999964308 -3.979999999999961 10.000000186838632
  endloop
endfacet
facet normal -0.923879532511286 -0.3826834323650917 -3.3000195595734233e-12
  outer loop
    vertex -12.074072828649042 -7.215238063781524 10.00000018675084
    vertex -10.825317547588504 -10.230000000000006 79.24486578306218
    vertex -12.074072828896378 -7.215238063781524 79.24486578305772
  endloop
endfacet
facet normal -0.923879532511286 -0.3826834323650917 -3.3000195595734233e-12
  outer loop
    vertex -10.825317547588504 -10.230000000000006 79.24486578306218
    vertex -12.074072828649042 -7.215238063781524 10.00000018675084
    vertex -10.825317547341168 -10.230000000000006 10.000000186755308
  endloop
endfacet
facet normal 0.9914448613738112 -0.13052619222004544 3.5415198735311728e-12
  outer loop
    vertex 12.074072828577691 -7.215238063781479 10.000000186837099
    vertex 12.499999999716971 -3.979999999999961 79.24486578314549
    vertex 12.074072828330332 -7.215238063781479 79.24486578314396
  endloop
endfacet
facet normal 0.9914448613738112 -0.13052619222004544 3.5415198735311728e-12
  outer loop
    vertex 12.499999999716971 -3.979999999999961 79.24486578314549
    vertex 12.074072828577691 -7.215238063781479 10.000000186837099
    vertex 12.499999999964308 -3.979999999999961 10.000000186838632
  endloop
endfacet
facet normal 0.1305261922200721 -0.9914448613738077 4.66207321706797e-13
  outer loop
    vertex 1.0300997995080545 -7.824384788630461 3.575717499870734e-12
    vertex -3.569231576960874e-11 -7.95999999999999 10.000000186793974
    vertex 2.5379698342931078e-14 -7.95999999999999 -1.127986593019159e-13
  endloop
endfacet
facet normal 0.1305261922200721 -0.9914448613738077 4.66207321706797e-13
  outer loop
    vertex -3.569231576960874e-11 -7.95999999999999 10.000000186793974
    vertex 1.0300997995080545 -7.824384788630461 3.575717499870734e-12
    vertex 1.0300997994723369 -7.824384788630461 10.000000186797664
  endloop
endfacet
facet normal 0.38268343236509167 0.923879532511286 1.3669125616821762e-12
  outer loop
    vertex 3.2352380634984663 8.094072828613378 79.2448657831124
    vertex 6.249999999964285 6.845317547305503 10.000000186816287
    vertex 3.2352380637458027 8.094072828613378 10.000000186805536
  endloop
endfacet
facet normal 0.38268343236509167 0.923879532511286 1.3669125616821762e-12
  outer loop
    vertex 6.249999999964285 6.845317547305503 10.000000186816287
    vertex 3.2352380634984663 8.094072828613378 79.2448657831124
    vertex 6.249999999716948 6.845317547305503 79.24486578312316
  endloop
endfacet
facet normal 0.6087614290087161 0.7933533402912387 2.1744442185269698e-12
  outer loop
    vertex 6.249999999716948 6.845317547305503 79.24486578312316
    vertex 8.838834764796152 4.8588347648318715 10.000000186825536
    vertex 6.249999999964285 6.845317547305503 10.000000186816287
  endloop
endfacet
facet normal 0.6087614290087161 0.7933533402912387 2.1744442185269698e-12
  outer loop
    vertex 8.838834764796152 4.8588347648318715 10.000000186825536
    vertex 6.249999999716948 6.845317547305503 79.24486578312316
    vertex 8.838834764548814 4.8588347648318715 79.24486578313241
  endloop
endfacet
facet normal -0.7933533402912331 -0.6087614290087233 -2.8336551613345614e-12
  outer loop
    vertex -3.446781107062042 -5.969999999999986 -1.241913238914094e-11
    vertex -2.814284989158151 -6.794284989122443 10.000000186783925
    vertex -3.44678110709776 -5.969999999999986 10.00000018678167
  endloop
endfacet
facet normal -0.7933533402912331 -0.6087614290087233 -2.8336551613345614e-12
  outer loop
    vertex -2.814284989158151 -6.794284989122443 10.000000186783925
    vertex -3.446781107062042 -5.969999999999986 -1.241913238914094e-11
    vertex -2.8142849891224335 -6.794284989122443 -1.0163159203102622e-11
  endloop
endfacet
facet normal 0.38268343236508584 -0.9238795325112884 1.3669134242591538e-12
  outer loop
    vertex 6.24999999996433 -14.80531754730547 10.000000186816287
    vertex 3.2352380634985116 -16.05407282861332 79.2448657831124
    vertex 3.235238063745848 -16.05407282861332 10.000000186805536
  endloop
endfacet
facet normal 0.38268343236508584 -0.9238795325112884 1.3669134242591538e-12
  outer loop
    vertex 3.2352380634985116 -16.05407282861332 79.2448657831124
    vertex 6.24999999996433 -14.80531754730547 10.000000186816287
    vertex 6.2499999997169935 -14.80531754730547 79.24486578312316
  endloop
endfacet
facet normal 0.9238795325112873 0.38268343236508884 3.2998703337526957e-12
  outer loop
    vertex 12.074072828330332 -0.7447619362184548 79.24486578314396
    vertex 10.825317547269794 2.2700000000000276 10.000000186832631
    vertex 10.825317547022458 2.2700000000000276 79.2448657831395
  endloop
endfacet
facet normal 0.9238795325112873 0.38268343236508884 3.2998703337526957e-12
  outer loop
    vertex 10.825317547269794 2.2700000000000276 10.000000186832631
    vertex 12.074072828330332 -0.7447619362184548 79.24486578314396
    vertex 12.074072828577647 -0.7447619362184548 10.000000186837099
  endloop
endfacet
facet normal 0.13052619222004935 0.9914448613738107 4.662284037944984e-13
  outer loop
    vertex -2.830400358533325e-10 8.520000000000016 79.24486578310085
    vertex 3.2352380637458027 8.094072828613378 10.000000186805536
    vertex -3.570359563553893e-11 8.520000000000016 10.000000186793974
  endloop
endfacet
facet normal 0.13052619222004935 0.9914448613738107 4.662284037944984e-13
  outer loop
    vertex 3.2352380637458027 8.094072828613378 10.000000186805536
    vertex -2.830400358533325e-10 8.520000000000016 79.24486578310085
    vertex 3.2352380634984663 8.094072828613378 79.2448657831124
  endloop
endfacet
facet normal 0.7933533402912345 0.6087614290087215 2.833791577220202e-12
  outer loop
    vertex 10.825317547022458 2.2700000000000276 79.2448657831395
    vertex 8.838834764796152 4.8588347648318715 10.000000186825536
    vertex 8.838834764548814 4.8588347648318715 79.24486578313241
  endloop
endfacet
facet normal 0.7933533402912345 0.6087614290087215 2.833791577220202e-12
  outer loop
    vertex 8.838834764796152 4.8588347648318715 10.000000186825536
    vertex 10.825317547022458 2.2700000000000276 79.2448657831395
    vertex 10.825317547269794 2.2700000000000276 10.000000186832631
  endloop
endfacet
facet normal 0.923879532511286 -0.3826834323650918 3.300020422150422e-12
  outer loop
    vertex 10.825317547269794 -10.229999999999961 10.000000186832631
    vertex 12.074072828330332 -7.215238063781479 79.24486578314396
    vertex 10.82531754702248 -10.229999999999961 79.2448657831395
  endloop
endfacet
facet normal 0.923879532511286 -0.3826834323650918 3.300020422150422e-12
  outer loop
    vertex 12.074072828330332 -7.215238063781479 79.24486578314396
    vertex 10.825317547269794 -10.229999999999961 10.000000186832631
    vertex 12.074072828577691 -7.215238063781479 10.000000186837099
  endloop
endfacet
facet normal -0.9914448613738107 0.13052619222004974 -3.5413582967478457e-12
  outer loop
    vertex -12.07407282889639 -0.7447619362184885 79.24486578305772
    vertex -12.500000000035692 -3.9799999999999836 10.000000186749329
    vertex -12.500000000283029 -3.9799999999999836 79.2448657830562
  endloop
endfacet
facet normal -0.9914448613738107 0.13052619222004974 -3.5413582967478457e-12
  outer loop
    vertex -12.500000000035692 -3.9799999999999836 10.000000186749329
    vertex -12.07407282889639 -0.7447619362184885 79.24486578305772
    vertex -12.074072828649054 -0.7447619362184885 10.00000018675084
  endloop
endfacet
facet normal -0.38268343236509106 0.9238795325112862 -1.3668817120453981e-12
  outer loop
    vertex -6.25000000028304 6.845317547305492 79.24486578307852
    vertex -3.235238063817221 8.094072828613367 10.000000186782435
    vertex -6.250000000035703 6.845317547305492 10.000000186771652
  endloop
endfacet
facet normal -0.38268343236509106 0.9238795325112862 -1.3668817120453981e-12
  outer loop
    vertex -3.235238063817221 8.094072828613367 10.000000186782435
    vertex -6.25000000028304 6.845317547305492 79.24486578307852
    vertex -3.2352380640645464 8.094072828613367 79.2448657830893
  endloop
endfacet
facet normal 0.1305261922200508 0.9914448613738105 4.662059347073883e-13
  outer loop
    vertex -3.570359563553893e-11 1.127986593019159e-14 10.000000186793974
    vertex 1.0300997995080432 -0.13561521136949564 3.575717499870734e-12
    vertex 1.4099832412739488e-14 1.127986593019159e-14 -1.127986593019159e-13
  endloop
endfacet
facet normal 0.1305261922200508 0.9914448613738105 4.662059347073883e-13
  outer loop
    vertex 1.0300997995080432 -0.13561521136949564 3.575717499870734e-12
    vertex -3.570359563553893e-11 1.127986593019159e-14 10.000000186793974
    vertex 1.0300997994723256 -0.13561521136949564 10.000000186797664
  endloop
endfacet
facet normal 0.9914448613738106 -0.13052619222005143 3.54125430705229e-12
  outer loop
    vertex 3.8154070135587985 -5.002335228154948 79.24486578311446
    vertex 3.949999999681258 -3.9799999999999836 89.24486578311495
    vertex 3.815407013523081 -5.002335228154948 89.24486578311446
  endloop
endfacet
facet normal 0.9914448613738106 -0.13052619222005143 3.54125430705229e-12
  outer loop
    vertex 3.949999999681258 -3.9799999999999836 89.24486578311495
    vertex 3.8154070135587985 -5.002335228154948 79.24486578311446
    vertex 3.9499999997169755 -3.9799999999999836 79.24486578311495
  endloop
endfacet
facet normal 0.793353340291234 0.6087614290087221 2.8337087041105586e-12
  outer loop
    vertex 3.420800344629782 -2.0049999999999817 89.24486578311306
    vertex 2.7930717854038343 -1.1869282143131208 79.24486578311082
    vertex 2.7930717853681166 -1.1869282143131208 89.24486578311081
  endloop
endfacet
facet normal 0.793353340291234 0.6087614290087221 2.8337087041105586e-12
  outer loop
    vertex 2.7930717854038343 -1.1869282143131208 79.24486578311082
    vertex 3.420800344629782 -2.0049999999999817 89.24486578311306
    vertex 3.420800344665522 -2.0049999999999817 79.24486578311306
  endloop
endfacet
facet normal -0.9238795325112849 0.3826834323650946 -3.2998633934244113e-12
  outer loop
    vertex -3.44678110709776 -1.990000000000003 10.00000018678167
    vertex -3.8443847886304625 -2.9499002004919435 -1.3840395496345081e-11
    vertex -3.84438478866618 -2.9499002004919435 10.000000186780248
  endloop
endfacet
facet normal -0.9238795325112849 0.3826834323650946 -3.2998633934244113e-12
  outer loop
    vertex -3.8443847886304625 -2.9499002004919435 -1.3840395496345081e-11
    vertex -3.44678110709776 -1.990000000000003 10.00000018678167
    vertex -3.446781107062042 -1.990000000000003 -1.241913238914094e-11
  endloop
endfacet
facet normal -0.608761429008725 -0.793353340291232 -2.1743363507830857e-12
  outer loop
    vertex -1.9899999999999665 -7.426781107062062 -7.230394061252809e-12
    vertex -2.814284989158151 -6.794284989122443 10.000000186783925
    vertex -2.8142849891224335 -6.794284989122443 -1.0163159203102622e-11
  endloop
endfacet
facet normal -0.608761429008725 -0.793353340291232 -2.1743363507830857e-12
  outer loop
    vertex -2.814284989158151 -6.794284989122443 10.000000186783925
    vertex -1.9899999999999665 -7.426781107062062 -7.230394061252809e-12
    vertex -1.9900000000356841 -7.426781107062062 10.000000186786858
  endloop
endfacet
facet normal -0.1305261922200525 0.9914448613738103 -4.662181917379343e-13
  outer loop
    vertex -3.2352380640645464 8.094072828613367 79.2448657830893
    vertex -3.570359563553893e-11 8.520000000000016 10.000000186793974
    vertex -3.235238063817221 8.094072828613367 10.000000186782435
  endloop
endfacet
facet normal -0.1305261922200525 0.9914448613738103 -4.662181917379343e-13
  outer loop
    vertex -3.570359563553893e-11 8.520000000000016 10.000000186793974
    vertex -3.2352380640645464 8.094072828613367 79.2448657830893
    vertex -2.830400358533325e-10 8.520000000000016 79.24486578310085
  endloop
endfacet
facet normal -0.7933533402912354 0.6087614290087204 -2.833727876017369e-12
  outer loop
    vertex -8.838834765114873 4.858834764831848 79.24486578306927
    vertex -10.825317547341179 2.270000000000005 10.000000186755308
    vertex -10.825317547588515 2.270000000000005 79.24486578306218
  endloop
endfacet
facet normal -0.7933533402912354 0.6087614290087204 -2.833727876017369e-12
  outer loop
    vertex -10.825317547341179 2.270000000000005 10.000000186755308
    vertex -8.838834765114873 4.858834764831848 79.24486578306927
    vertex -8.838834764867547 4.858834764831848 10.000000186762403
  endloop
endfacet
facet normal -0.38268343236509234 0.9238795325112857 -1.3668470247174115e-12
  outer loop
    vertex -1.9900000000357068 -0.5332188929379275 10.000000186786858
    vertex -1.030099799508015 -0.13561521136949564 -3.790034952544374e-12
    vertex -1.989999999999989 -0.5332188929379275 -7.230394061252809e-12
  endloop
endfacet
facet normal -0.38268343236509234 0.9238795325112857 -1.3668470247174115e-12
  outer loop
    vertex -1.030099799508015 -0.13561521136949564 -3.790034952544374e-12
    vertex -1.9900000000357068 -0.5332188929379275 10.000000186786858
    vertex -1.0300997995437327 -0.13561521136949564 10.000000186790297
  endloop
endfacet
facet normal -0.7933533402912424 0.6087614290087112 -2.8336534580594486e-12
  outer loop
    vertex -2.8142849891581627 -1.165715010877536 10.000000186783925
    vertex -3.446781107062042 -1.990000000000003 -1.241913238914094e-11
    vertex -3.44678110709776 -1.990000000000003 10.00000018678167
  endloop
endfacet
facet normal -0.7933533402912424 0.6087614290087112 -2.8336534580594486e-12
  outer loop
    vertex -3.446781107062042 -1.990000000000003 -1.241913238914094e-11
    vertex -2.8142849891581627 -1.165715010877536 10.000000186783925
    vertex -2.8142849891224446 -1.165715010877536 -1.0163159203102622e-11
  endloop
endfacet
facet normal -0.9914448613738105 -0.13052619222005138 -3.541358053017169e-12
  outer loop
    vertex -12.500000000035692 -3.9799999999999836 10.000000186749329
    vertex -12.074072828896378 -7.215238063781524 79.24486578305772
    vertex -12.500000000283029 -3.9799999999999836 79.2448657830562
  endloop
endfacet
facet normal -0.9914448613738105 -0.13052619222005138 -3.541358053017169e-12
  outer loop
    vertex -12.074072828896378 -7.215238063781524 79.24486578305772
    vertex -12.500000000035692 -3.9799999999999836 10.000000186749329
    vertex -12.074072828649042 -7.215238063781524 10.00000018675084
  endloop
endfacet
facet normal -0.7933533402912327 -0.6087614290087238 -2.8337267392812644e-12
  outer loop
    vertex -10.825317547341168 -10.230000000000006 10.000000186755308
    vertex -8.83883476511486 -12.818834764831827 79.24486578306927
    vertex -10.825317547588504 -10.230000000000006 79.24486578306218
  endloop
endfacet
facet normal -0.7933533402912327 -0.6087614290087238 -2.8337267392812644e-12
  outer loop
    vertex -8.83883476511486 -12.818834764831827 79.24486578306927
    vertex -10.825317547341168 -10.230000000000006 10.000000186755308
    vertex -8.838834764867537 -12.818834764831827 10.000000186762403
  endloop
endfacet
facet normal 0.7933533402912383 0.6087614290087164 2.835445709543163e-12
  outer loop
    vertex 3.446781107026341 -1.9899999999999805 10.000000186806293
    vertex 2.814284989122484 -1.1657150108775247 9.93756188449879e-12
    vertex 2.814284989086744 -1.1657150108775247 10.000000186804025
  endloop
endfacet
facet normal 0.7933533402912383 0.6087614290087164 2.835445709543163e-12
  outer loop
    vertex 2.814284989122484 -1.1657150108775247 9.93756188449879e-12
    vertex 3.446781107026341 -1.9899999999999805 10.000000186806293
    vertex 3.4467811070620815 -1.9899999999999805 1.22048149364673e-11
  endloop
endfacet
facet normal 0.9238795325112849 -0.38268343236509467 3.2998633934244113e-12
  outer loop
    vertex 3.4467811070620815 -5.969999999999964 1.22048149364673e-11
    vertex 3.8443847885947844 -5.010099799508024 10.000000186807714
    vertex 3.4467811070263865 -5.969999999999964 10.000000186806293
  endloop
endfacet
facet normal 0.9238795325112849 -0.38268343236509467 3.2998633934244113e-12
  outer loop
    vertex 3.8443847885947844 -5.010099799508024 10.000000186807714
    vertex 3.4467811070620815 -5.969999999999964 1.22048149364673e-11
    vertex 3.8443847886305247 -5.010099799508024 1.362607804367144e-11
  endloop
endfacet
facet normal 0.9238795325112803 0.3826834323651054 3.3019457966243128e-12
  outer loop
    vertex 3.8443847885947844 -2.9499002004919435 10.000000186807714
    vertex 3.4467811070620815 -1.9899999999999805 1.22048149364673e-11
    vertex 3.446781107026341 -1.9899999999999805 10.000000186806293
  endloop
endfacet
facet normal 0.9238795325112803 0.3826834323651054 3.3019457966243128e-12
  outer loop
    vertex 3.4467811070620815 -1.9899999999999805 1.22048149364673e-11
    vertex 3.8443847885947844 -2.9499002004919435 10.000000186807714
    vertex 3.8443847886305247 -2.9499002004919435 1.362607804367144e-11
  endloop
endfacet
facet normal 0.7933533402912278 -0.6087614290087301 2.8336565899248197e-12
  outer loop
    vertex 2.814284989122484 -6.79428498912242 9.93756188449879e-12
    vertex 3.4467811070263865 -5.969999999999964 10.000000186806293
    vertex 2.814284989086744 -6.79428498912242 10.000000186804025
  endloop
endfacet
facet normal 0.7933533402912278 -0.6087614290087301 2.8336565899248197e-12
  outer loop
    vertex 3.4467811070263865 -5.969999999999964 10.000000186806293
    vertex 2.814284989122484 -6.79428498912242 9.93756188449879e-12
    vertex 3.4467811070620815 -5.969999999999964 1.22048149364673e-11
  endloop
endfacet
facet normal 0.3826834323650868 -0.9238795325112881 1.3672782534386076e-12
  outer loop
    vertex 1.9900000000000284 -7.42678110706204 6.993516876718786e-12
    vertex 1.0300997994723369 -7.824384788630461 10.000000186797664
    vertex 1.0300997995080545 -7.824384788630461 3.575717499870734e-12
  endloop
endfacet
facet normal 0.3826834323650868 -0.9238795325112881 1.3672782534386076e-12
  outer loop
    vertex 1.0300997994723369 -7.824384788630461 10.000000186797664
    vertex 1.9900000000000284 -7.42678110706204 6.993516876718786e-12
    vertex 1.9899999999642883 -7.42678110706204 10.000000186801081
  endloop
endfacet
facet normal -0.9914448613738107 -0.1305261922200494 -3.5411884065050433e-12
  outer loop
    vertex -3.97999999999997 -3.9799999999999836 -1.4314149865413128e-11
    vertex -3.84438478866618 -5.010099799508024 10.000000186780248
    vertex -3.9800000000356874 -3.9799999999999836 10.00000018677975
  endloop
endfacet
facet normal -0.9914448613738107 -0.1305261922200494 -3.5411884065050433e-12
  outer loop
    vertex -3.84438478866618 -5.010099799508024 10.000000186780248
    vertex -3.97999999999997 -3.9799999999999836 -1.4314149865413128e-11
    vertex -3.8443847886304625 -5.010099799508024 -1.3840395496345081e-11
  endloop
endfacet
facet normal 0.9914448613738107 -0.1305261922200494 3.5411876314362298e-12
  outer loop
    vertex 3.8443847886305247 -5.010099799508024 1.362607804367144e-11
    vertex 3.979999999964314 -3.9799999999999836 10.000000186808187
    vertex 3.8443847885947844 -5.010099799508024 10.000000186807714
  endloop
endfacet
facet normal 0.9914448613738107 -0.1305261922200494 3.5411876314362298e-12
  outer loop
    vertex 3.979999999964314 -3.9799999999999836 10.000000186808187
    vertex 3.8443847886305247 -5.010099799508024 1.362607804367144e-11
    vertex 3.980000000000009 -3.9799999999999836 1.4099832412739488e-11
  endloop
endfacet
facet normal 0.6087614290087232 -0.7933533402912333 2.174345322486695e-12
  outer loop
    vertex 8.838834764796152 -12.818834764831827 10.000000186825536
    vertex 6.2499999997169935 -14.80531754730547 79.24486578312316
    vertex 6.24999999996433 -14.80531754730547 10.000000186816287
  endloop
endfacet
facet normal 0.6087614290087232 -0.7933533402912333 2.174345322486695e-12
  outer loop
    vertex 6.2499999997169935 -14.80531754730547 79.24486578312316
    vertex 8.838834764796152 -12.818834764831827 10.000000186825536
    vertex 8.838834764548837 -12.818834764831827 79.24486578313241
  endloop
endfacet
facet normal 0.793353340291237 -0.6087614290087181 2.833533809562225e-12
  outer loop
    vertex 8.838834764796152 -12.818834764831827 10.000000186825536
    vertex 10.82531754702248 -10.229999999999961 79.2448657831395
    vertex 8.838834764548837 -12.818834764831827 79.24486578313241
  endloop
endfacet
facet normal 0.793353340291237 -0.6087614290087181 2.833533809562225e-12
  outer loop
    vertex 10.82531754702248 -10.229999999999961 79.2448657831395
    vertex 8.838834764796152 -12.818834764831827 10.000000186825536
    vertex 10.825317547269794 -10.229999999999961 10.000000186832631
  endloop
endfacet
facet normal 0.382683432365083 0.9238795325112895 1.3672771827150756e-12
  outer loop
    vertex 1.0300997994723256 -0.13561521136949564 10.000000186797664
    vertex 1.9900000000000284 -0.5332188929379161 6.993516876718786e-12
    vertex 1.0300997995080432 -0.13561521136949564 3.575717499870734e-12
  endloop
endfacet
facet normal 0.382683432365083 0.9238795325112895 1.3672771827150756e-12
  outer loop
    vertex 1.9900000000000284 -0.5332188929379161 6.993516876718786e-12
    vertex 1.0300997994723256 -0.13561521136949564 10.000000186797664
    vertex 1.9899999999642883 -0.5332188929379161 10.000000186801081
  endloop
endfacet
facet normal -0.3826834323650683 -0.9238795325112956 -1.366847024717325e-12
  outer loop
    vertex -1.0300997995080037 -7.824384788630461 -3.790034952544374e-12
    vertex -1.9900000000356841 -7.426781107062062 10.000000186786858
    vertex -1.9899999999999665 -7.426781107062062 -7.230394061252809e-12
  endloop
endfacet
facet normal -0.3826834323650683 -0.9238795325112956 -1.366847024717325e-12
  outer loop
    vertex -1.9900000000356841 -7.426781107062062 10.000000186786858
    vertex -1.0300997995080037 -7.824384788630461 -3.790034952544374e-12
    vertex -1.0300997995437213 -7.824384788630461 10.000000186790297
  endloop
endfacet
facet normal 0.6087614290087233 0.7933533402912331 2.17571533332885e-12
  outer loop
    vertex 1.9899999999642883 -0.5332188929379161 10.000000186801081
    vertex 2.814284989122484 -1.1657150108775247 9.93756188449879e-12
    vertex 1.9900000000000284 -0.5332188929379161 6.993516876718786e-12
  endloop
endfacet
facet normal 0.6087614290087233 0.7933533402912331 2.17571533332885e-12
  outer loop
    vertex 2.814284989122484 -1.1657150108775247 9.93756188449879e-12
    vertex 1.9899999999642883 -0.5332188929379161 10.000000186801081
    vertex 2.814284989086744 -1.1657150108775247 10.000000186804025
  endloop
endfacet
facet normal 0.9914448613738107 0.13052619222004938 3.5411876314362298e-12
  outer loop
    vertex 3.979999999964314 -3.9799999999999836 10.000000186808187
    vertex 3.8443847886305247 -2.9499002004919435 1.362607804367144e-11
    vertex 3.8443847885947844 -2.9499002004919435 10.000000186807714
  endloop
endfacet
facet normal 0.9914448613738107 0.13052619222004938 3.5411876314362298e-12
  outer loop
    vertex 3.8443847886305247 -2.9499002004919435 1.362607804367144e-11
    vertex 3.979999999964314 -3.9799999999999836 10.000000186808187
    vertex 3.980000000000009 -3.9799999999999836 1.4099832412739488e-11
  endloop
endfacet
facet normal 0.6087614290087301 -0.7933533402912278 2.175710893826099e-12
  outer loop
    vertex 2.814284989122484 -6.79428498912242 9.93756188449879e-12
    vertex 1.9899999999642883 -7.42678110706204 10.000000186801081
    vertex 1.9900000000000284 -7.42678110706204 6.993516876718786e-12
  endloop
endfacet
facet normal 0.6087614290087301 -0.7933533402912278 2.175710893826099e-12
  outer loop
    vertex 1.9899999999642883 -7.42678110706204 10.000000186801081
    vertex 2.814284989122484 -6.79428498912242 9.93756188449879e-12
    vertex 2.814284989086744 -6.79428498912242 10.000000186804025
  endloop
endfacet
facet normal -0.9238795325112881 -0.38268343236508684 -3.299863393424423e-12
  outer loop
    vertex -3.8443847886304625 -5.010099799508024 -1.3840395496345081e-11
    vertex -3.44678110709776 -5.969999999999986 10.00000018678167
    vertex -3.84438478866618 -5.010099799508024 10.000000186780248
  endloop
endfacet
facet normal -0.9238795325112881 -0.38268343236508684 -3.299863393424423e-12
  outer loop
    vertex -3.44678110709776 -5.969999999999986 10.00000018678167
    vertex -3.8443847886304625 -5.010099799508024 -1.3840395496345081e-11
    vertex -3.446781107062042 -5.969999999999986 -1.241913238914094e-11
  endloop
endfacet
facet normal -0.6087614290087233 0.7933533402912331 -2.174342493561001e-12
  outer loop
    vertex -2.8142849891581627 -1.165715010877536 10.000000186783925
    vertex -1.989999999999989 -0.5332188929379275 -7.230394061252809e-12
    vertex -2.8142849891224446 -1.165715010877536 -1.0163159203102622e-11
  endloop
endfacet
facet normal -0.6087614290087233 0.7933533402912331 -2.174342493561001e-12
  outer loop
    vertex -1.989999999999989 -0.5332188929379275 -7.230394061252809e-12
    vertex -2.8142849891581627 -1.165715010877536 10.000000186783925
    vertex -1.9900000000357068 -0.5332188929379275 10.000000186786858
  endloop
endfacet
facet normal -0.1305261922200508 0.9914448613738105 -4.662067913453538e-13
  outer loop
    vertex -1.0300997995437327 -0.13561521136949564 10.000000186790297
    vertex 1.4099832412739488e-14 1.127986593019159e-14 -1.127986593019159e-13
    vertex -1.030099799508015 -0.13561521136949564 -3.790034952544374e-12
  endloop
endfacet
facet normal -0.1305261922200508 0.9914448613738105 -4.662067913453538e-13
  outer loop
    vertex 1.4099832412739488e-14 1.127986593019159e-14 -1.127986593019159e-13
    vertex -1.0300997995437327 -0.13561521136949564 10.000000186790297
    vertex -3.570359563553893e-11 1.127986593019159e-14 10.000000186793974
  endloop
endfacet
facet normal -0.6087614290087223 0.7933533402912339 -2.1743960795865495e-12
  outer loop
    vertex -8.838834765114873 4.858834764831848 79.24486578306927
    vertex -6.250000000035703 6.845317547305492 10.000000186771652
    vertex -8.838834764867547 4.858834764831848 10.000000186762403
  endloop
endfacet
facet normal -0.6087614290087223 0.7933533402912339 -2.1743960795865495e-12
  outer loop
    vertex -6.250000000035703 6.845317547305492 10.000000186771652
    vertex -8.838834765114873 4.858834764831848 79.24486578306927
    vertex -6.25000000028304 6.845317547305492 79.24486578307852
  endloop
endfacet
facet normal 0.793353340291234 -0.6087614290087221 2.8337087041105586e-12
  outer loop
    vertex 2.7930717854038343 -6.773071785686847 79.24486578311082
    vertex 3.4208003446298045 -5.954999999999986 89.24486578311306
    vertex 2.7930717853681166 -6.773071785686847 89.24486578311081
  endloop
endfacet
facet normal 0.793353340291234 -0.6087614290087221 2.8337087041105586e-12
  outer loop
    vertex 3.4208003446298045 -5.954999999999986 89.24486578311306
    vertex 2.7930717854038343 -6.773071785686847 79.24486578311082
    vertex 3.420800344665522 -5.954999999999986 79.24486578311306
  endloop
endfacet
facet normal 0.923879532511286 0.3826834323650923 3.2999236782261163e-12
  outer loop
    vertex 3.815407013523081 -2.9576647718450193 89.24486578311446
    vertex 3.420800344665522 -2.0049999999999817 79.24486578311306
    vertex 3.420800344629782 -2.0049999999999817 89.24486578311306
  endloop
endfacet
facet normal 0.923879532511286 0.3826834323650923 3.2999236782261163e-12
  outer loop
    vertex 3.420800344665522 -2.0049999999999817 79.24486578311306
    vertex 3.815407013523081 -2.9576647718450193 89.24486578311446
    vertex 3.8154070135587985 -2.9576647718450193 79.24486578311446
  endloop
endfacet
facet normal 0.6087614290087255 0.7933533402912314 2.1743811647349388e-12
  outer loop
    vertex 1.9749999996812555 -0.5591996550514442 89.2448657831079
    vertex 2.7930717854038343 -1.1869282143131208 79.24486578311082
    vertex 1.9749999997169734 -0.5591996550514442 79.2448657831079
  endloop
endfacet
facet normal 0.6087614290087255 0.7933533402912314 2.1743811647349388e-12
  outer loop
    vertex 2.7930717854038343 -1.1869282143131208 79.24486578311082
    vertex 1.9749999996812555 -0.5591996550514442 89.2448657831079
    vertex 2.7930717853681166 -1.1869282143131208 89.24486578311081
  endloop
endfacet
facet normal 0.13052619222005524 -0.99144486137381 4.662284037945194e-13
  outer loop
    vertex 3.235238063745848 -16.05407282861332 10.000000186805536
    vertex -2.830174761214721e-10 -16.479999999999983 79.24486578310085
    vertex -3.5681035903678543e-11 -16.479999999999983 10.000000186793974
  endloop
endfacet
facet normal 0.13052619222005524 -0.99144486137381 4.662284037945194e-13
  outer loop
    vertex -2.830174761214721e-10 -16.479999999999983 79.24486578310085
    vertex 3.235238063745848 -16.05407282861332 10.000000186805536
    vertex 3.2352380634985116 -16.05407282861332 79.2448657831124
  endloop
endfacet
facet normal -0.6087614290087199 -0.7933533402912357 -2.1743460631983433e-12
  outer loop
    vertex -6.250000000035681 -14.80531754730547 10.000000186771652
    vertex -8.83883476511486 -12.818834764831827 79.24486578306927
    vertex -8.838834764867537 -12.818834764831827 10.000000186762403
  endloop
endfacet
facet normal -0.6087614290087199 -0.7933533402912357 -2.1743460631983433e-12
  outer loop
    vertex -8.83883476511486 -12.818834764831827 79.24486578306927
    vertex -6.250000000035681 -14.80531754730547 10.000000186771652
    vertex -6.250000000283006 -14.80531754730547 79.24486578307852
  endloop
endfacet
facet normal -0.9238795325112865 0.38268343236509045 -3.3000195595734254e-12
  outer loop
    vertex -10.825317547588515 2.270000000000005 79.24486578306218
    vertex -12.074072828649054 -0.7447619362184885 10.00000018675084
    vertex -12.07407282889639 -0.7447619362184885 79.24486578305772
  endloop
endfacet
facet normal -0.9238795325112865 0.38268343236509045 -3.3000195595734254e-12
  outer loop
    vertex -12.074072828649054 -0.7447619362184885 10.00000018675084
    vertex -10.825317547588515 2.270000000000005 79.24486578306218
    vertex -10.825317547341179 2.270000000000005 10.000000186755308
  endloop
endfacet
facet normal -0.38268343236509034 0.9238795325112867 -1.3668731423173702e-12
  outer loop
    vertex -1.9750000003187484 -0.5591996550514442 89.24486578309377
    vertex -1.0223352284379819 -0.1645929861581564 79.24486578309718
    vertex -1.9750000002830308 -0.5591996550514442 79.24486578309379
  endloop
endfacet
facet normal -0.38268343236509034 0.9238795325112867 -1.3668731423173702e-12
  outer loop
    vertex -1.0223352284379819 -0.1645929861581564 79.24486578309718
    vertex -1.9750000003187484 -0.5591996550514442 89.24486578309377
    vertex -1.0223352284736995 -0.1645929861581564 89.24486578309718
  endloop
endfacet
facet normal 0.9238795325112874 -0.3826834323650883 3.299923678226122e-12
  outer loop
    vertex 3.420800344665522 -5.954999999999986 79.24486578311306
    vertex 3.815407013523081 -5.002335228154948 89.24486578311446
    vertex 3.4208003446298045 -5.954999999999986 89.24486578311306
  endloop
endfacet
facet normal 0.9238795325112874 -0.3826834323650883 3.299923678226122e-12
  outer loop
    vertex 3.815407013523081 -5.002335228154948 89.24486578311446
    vertex 3.420800344665522 -5.954999999999986 79.24486578311306
    vertex 3.8154070135587985 -5.002335228154948 79.24486578311446
  endloop
endfacet
facet normal -0.13052619222004805 -0.9914448613738109 -4.66214974115544e-13
  outer loop
    vertex -2.830287559874023e-10 -7.929999999999988 79.24486578310085
    vertex -1.0223352284736995 -7.795407013841811 89.24486578309718
    vertex -1.0223352284379819 -7.795407013841811 79.24486578309718
  endloop
endfacet
facet normal -0.13052619222004805 -0.9914448613738109 -4.66214974115544e-13
  outer loop
    vertex -1.0223352284736995 -7.795407013841811 89.24486578309718
    vertex -2.830287559874023e-10 -7.929999999999988 79.24486578310085
    vertex -3.1874645145535394e-10 -7.929999999999988 89.24486578310085
  endloop
endfacet
facet normal 0.6087614290087255 -0.7933533402912314 2.1743811647349388e-12
  outer loop
    vertex 2.7930717854038343 -6.773071785686847 79.24486578311082
    vertex 1.9749999996812555 -7.400800344948535 89.2448657831079
    vertex 1.9749999997169734 -7.400800344948535 79.2448657831079
  endloop
endfacet
facet normal 0.6087614290087255 -0.7933533402912314 2.1743811647349388e-12
  outer loop
    vertex 1.9749999996812555 -7.400800344948535 89.2448657831079
    vertex 2.7930717854038343 -6.773071785686847 79.24486578311082
    vertex 2.7930717853681166 -6.773071785686847 89.24486578311081
  endloop
endfacet
facet normal -0.793353340291234 0.6087614290087221 -2.8337087041105586e-12
  outer loop
    vertex -2.7930717860056093 -1.1869282143131208 89.24486578309086
    vertex -3.420800345231557 -2.0049999999999817 79.24486578308863
    vertex -3.4208003452672746 -2.0049999999999817 89.24486578308861
  endloop
endfacet
facet normal -0.793353340291234 0.6087614290087221 -2.8337087041105586e-12
  outer loop
    vertex -3.420800345231557 -2.0049999999999817 79.24486578308863
    vertex -2.7930717860056093 -1.1869282143131208 89.24486578309086
    vertex -2.7930717859698917 -1.1869282143131208 79.24486578309086
  endloop
endfacet
facet normal 0.38268343236509034 -0.9238795325112867 1.3668731423173702e-12
  outer loop
    vertex 1.9749999997169734 -7.400800344948535 79.2448657831079
    vertex 1.0223352278362179 -7.795407013841811 89.24486578310449
    vertex 1.0223352278719355 -7.795407013841811 79.2448657831045
  endloop
endfacet
facet normal 0.38268343236509034 -0.9238795325112867 1.3668731423173702e-12
  outer loop
    vertex 1.0223352278362179 -7.795407013841811 89.24486578310449
    vertex 1.9749999997169734 -7.400800344948535 79.2448657831079
    vertex 1.9749999996812555 -7.400800344948535 89.2448657831079
  endloop
endfacet
facet normal -0.6087614290087243 0.7933533402912326 -2.1743811647349343e-12
  outer loop
    vertex -2.7930717860056093 -1.1869282143131208 89.24486578309086
    vertex -1.9750000002830308 -0.5591996550514442 79.24486578309379
    vertex -2.7930717859698917 -1.1869282143131208 79.24486578309086
  endloop
endfacet
facet normal -0.6087614290087243 0.7933533402912326 -2.1743811647349343e-12
  outer loop
    vertex -1.9750000002830308 -0.5591996550514442 79.24486578309379
    vertex -2.7930717860056093 -1.1869282143131208 89.24486578309086
    vertex -1.9750000003187484 -0.5591996550514442 89.24486578309377
  endloop
endfacet
facet normal 0.1305261922200477 -0.991444861373811 4.662149741155427e-13
  outer loop
    vertex 1.0223352278719355 -7.795407013841811 79.2448657831045
    vertex -3.1874645145535394e-10 -7.929999999999988 89.24486578310085
    vertex -2.830287559874023e-10 -7.929999999999988 79.24486578310085
  endloop
endfacet
facet normal 0.1305261922200477 -0.991444861373811 4.662149741155427e-13
  outer loop
    vertex -3.1874645145535394e-10 -7.929999999999988 89.24486578310085
    vertex 1.0223352278719355 -7.795407013841811 79.2448657831045
    vertex 1.0223352278362179 -7.795407013841811 89.24486578310449
  endloop
endfacet
facet normal 0.3826834323650893 0.9238795325112871 1.3668731423173662e-12
  outer loop
    vertex 1.0223352278362179 -0.1645929861581564 89.24486578310449
    vertex 1.9749999997169734 -0.5591996550514442 79.2448657831079
    vertex 1.0223352278719355 -0.1645929861581564 79.2448657831045
  endloop
endfacet
facet normal 0.3826834323650893 0.9238795325112871 1.3668731423173662e-12
  outer loop
    vertex 1.9749999997169734 -0.5591996550514442 79.2448657831079
    vertex 1.0223352278362179 -0.1645929861581564 89.24486578310449
    vertex 1.9749999996812555 -0.5591996550514442 89.2448657831079
  endloop
endfacet
facet normal 0.9914448613738103 0.1305261922200527 3.541254307052289e-12
  outer loop
    vertex 3.949999999681258 -3.9799999999999836 89.24486578311495
    vertex 3.8154070135587985 -2.9576647718450193 79.24486578311446
    vertex 3.815407013523081 -2.9576647718450193 89.24486578311446
  endloop
endfacet
facet normal 0.9914448613738103 0.1305261922200527 3.541254307052289e-12
  outer loop
    vertex 3.8154070135587985 -2.9576647718450193 79.24486578311446
    vertex 3.949999999681258 -3.9799999999999836 89.24486578311495
    vertex 3.9499999997169755 -3.9799999999999836 79.24486578311495
  endloop
endfacet
facet normal 0.13052619222004838 0.9914448613738108 4.662149741155451e-13
  outer loop
    vertex -3.1874645145535394e-10 -0.02999999999997964 89.24486578310085
    vertex 1.0223352278719355 -0.1645929861581564 79.2448657831045
    vertex -2.830287559874023e-10 -0.02999999999997964 79.24486578310085
  endloop
endfacet
facet normal 0.13052619222004838 0.9914448613738108 4.662149741155451e-13
  outer loop
    vertex 1.0223352278719355 -0.1645929861581564 79.2448657831045
    vertex -3.1874645145535394e-10 -0.02999999999997964 89.24486578310085
    vertex 1.0223352278362179 -0.1645929861581564 89.24486578310449
  endloop
endfacet
endsolid roller-x4
